<svg width="1920" height="1804" viewBox="0 0 1920 1804" fill="none" xmlns="http://www.w3.org/2000/svg">
<path d="M1980.39 975.055C1883.27 1044.43 1822.51 964.963 1751.36 1056.23C1713.83 1104.43 1720.34 1199.22 1762.75 1243.18C1786.83 1268.1 1824 1284.53 1831.62 1318.3C1837.9 1346.13 1819.88 1374.32 1797.04 1391.44C1774.21 1408.57 1746.67 1418.02 1722.05 1432.55C1689.08 1451.92 1637.57 1488.82 1669.47 1578.9" stroke="#B1DDE0" stroke-opacity="0.7" stroke-width="30" stroke-linecap="square" stroke-linejoin="round"/>
<path d="M156.28 1463.46C196.082 1419.68 216.294 1358.61 210.514 1299.61C208.558 1279.13 210.14 1259.09 211.241 1238.55C214.377 1176.66 260.68 1166.73 303.152 1211.58C327.877 1237.66 355.845 1259.71 372.08 1291.73C388.315 1323.74 402.528 1357.9 428.582 1382.62C457.579 1410.06 500.248 1425.25 517.126 1461.33C526.347 1481.03 526.053 1503.61 525.625 1525.29C523.448 1612.89 521.727 1700.6 519.778 1788.26" stroke="#B1DDE0" stroke-opacity="0.7" stroke-width="30" stroke-linecap="square" stroke-linejoin="round"/>
<ellipse cx="929.168" cy="763.395" rx="215" ry="93.7903" transform="rotate(-46.4132 929.168 763.395)" stroke="#B1DDE0" stroke-opacity="0.7" stroke-width="30"/>
<path d="M2179.86 459.552C2121.9 490.512 1990.82 526.227 1930.18 421.414C1854.38 290.398 1811.93 207.074 1634.33 292.317C1456.72 377.56 1215.23 244.679 1318.12 6.73889" stroke="#B1DDE0" stroke-opacity="0.7" stroke-width="30"/>
<path d="M-23.6792 828.064C60.2533 792.255 188.262 816.817 232.73 739.74C254.931 701.261 256.04 649.234 220.109 613.918C202.577 596.686 152.558 592.403 128.458 587.149C46.9165 569.372 49.2547 473.346 51.3216 425.518C52.9778 387.193 53.9055 328.948 -14.3265 326" stroke="#B1DDE0" stroke-opacity="0.7" stroke-width="30" stroke-linecap="square"/>
</svg>
