<svg width="48" height="54" viewBox="0 0 48 54" fill="none" xmlns="http://www.w3.org/2000/svg">
<g id="Group 117">
<path id="Vector" d="M32.1827 40.45L32.1624 40.6333L32 42L47.3706 41.35L48 41.3333L42.8223 40L32.1827 40.45Z" fill="#335C82"/>
<path id="Vector_2" d="M23.5264 53.6232C23.5264 53.6232 23.4882 53.6034 23.4692 53.5836C23.431 53.5637 23.3737 53.5241 23.3356 53.5042C23.2974 53.4844 23.2401 53.4448 23.2019 53.4249C23.2019 53.4249 23.1829 53.4051 23.1638 53.3853C23.1638 53.3853 23.1256 53.3654 23.1065 53.3456C23.1065 53.3456 23.0874 53.3456 23.0684 53.3258C23.0684 53.3258 23.0493 53.3059 23.0302 53.2861C23.0302 53.2861 22.992 53.2663 22.9729 53.2465C22.9729 53.2465 22.9538 53.2266 22.9347 53.2068C22.8966 53.1671 22.8584 53.1473 22.8202 53.1076C22.7821 53.068 22.7439 53.0482 22.7057 53.0085C22.6675 52.9688 22.6485 52.949 22.6103 52.9094C22.6103 52.9094 22.5721 52.8697 22.553 52.8499C22.5339 52.83 22.4958 52.7904 22.4767 52.7705C22.4576 52.7507 22.4194 52.711 22.4003 52.6912C22.3813 52.6516 22.3431 52.6317 22.324 52.6119C22.3049 52.5722 22.2667 52.5524 22.2477 52.5127C22.1904 52.4533 22.1522 52.3938 22.095 52.3343C21.9041 52.0963 21.7514 51.8385 21.6178 51.5609C21.217 50.7875 20.9689 49.8952 20.9117 48.9235C20.9117 48.8839 20.9117 48.864 20.9117 48.8244C20.8926 48.2889 20.9117 47.7734 21.0071 47.2578C21.1025 46.7422 21.2361 46.2465 21.427 45.7507C21.6178 45.2748 21.866 44.8187 22.1713 44.3824C22.1713 44.3626 22.2095 44.3428 22.2095 44.3031C22.4958 43.9065 22.8011 43.5496 23.1447 43.2521C23.4882 42.9348 23.87 42.6572 24.2708 42.4391C24.6525 42.2408 25.0533 42.0822 25.4541 41.983C25.5877 41.9433 25.7213 41.9235 25.8549 41.9037L26.8282 41.8442L27 40L20.988 40.3173C20.5109 40.3966 20.0528 40.5354 19.6138 40.7535C19.1749 40.9518 18.755 41.2295 18.3733 41.5666C17.9915 41.9037 17.6289 42.2805 17.3236 42.7167C17.0182 43.153 16.751 43.6289 16.541 44.1246C16.3311 44.6204 16.1784 45.136 16.1021 45.6714C16.0067 46.2068 15.9876 46.7422 16.0067 47.2975C16.0448 47.8527 16.1402 48.3683 16.2738 48.864C16.4265 49.3598 16.6365 49.8159 16.8846 50.2521C17.1518 50.6686 17.4572 51.0652 17.8007 51.3824C17.9152 51.4816 18.0297 51.5807 18.1633 51.6799C18.1633 51.6799 18.1824 51.6799 18.1824 51.6997C18.2969 51.779 18.4115 51.8584 18.5451 51.9377C18.5451 51.9377 18.5832 51.9575 18.6023 51.9773C18.6405 51.9972 18.6977 52.0368 18.7359 52.0567C18.7741 52.0765 18.8313 52.1161 18.8695 52.136C18.8886 52.136 18.9267 52.1558 18.9458 52.1756C18.9649 52.1756 18.984 52.1955 19.0031 52.2153C19.1176 52.2748 19.2512 52.3343 19.3848 52.3739C19.4039 52.3739 19.423 52.3739 19.4421 52.3938C19.4803 52.3938 19.5375 52.4334 19.5757 52.4334C19.6138 52.4334 19.6711 52.4533 19.7093 52.4731C19.6711 52.4731 19.6138 52.4533 19.5757 52.4334H19.5375C20.3963 52.711 21.4461 53.0482 22.4576 53.3853L24.3662 54C24.3662 54 24.328 54 24.3089 54C24.2898 54 24.2707 54 24.2517 53.9802C24.1944 53.9802 24.1562 53.9405 24.1181 53.9207C24.0608 53.9008 24.0226 53.881 23.9845 53.8612C23.9463 53.8612 23.9272 53.8414 23.889 53.8215C23.8699 53.8215 23.8509 53.8017 23.8318 53.8017C23.7173 53.7422 23.5837 53.6827 23.4692 53.6034M19.8619 52.5524C19.8619 52.5524 19.8429 52.5524 19.8238 52.5524C19.862 52.5524 19.8811 52.5524 19.9192 52.5722C19.9192 52.5722 19.881 52.5722 19.8619 52.5722" fill="#335C82"/>
<path id="Vector_3" d="M33.5867 27.4469H33.7813L39.9128 27.2098C40.3995 27.1308 40.8666 26.9925 41.3143 26.7752C41.762 26.5579 42.1902 26.301 42.5795 25.9652C42.9688 25.6294 43.3387 25.254 43.6501 24.7996C43.9616 24.365 44.2341 23.8909 44.4482 23.397C44.6623 22.9031 44.7986 22.3895 44.8959 21.8561C44.9932 21.3227 45.0127 20.7893 44.9932 20.2362C44.9543 19.683 44.8569 19.1694 44.7207 18.6755C44.565 18.1816 44.3509 17.7272 44.0978 17.2926C43.8448 16.8778 43.5139 16.4827 43.1635 16.1666C43.1051 16.1073 43.0467 16.0678 42.9883 16.0085C42.9299 15.969 42.8715 15.9098 42.8131 15.8702C42.8131 15.8702 42.7936 15.8702 42.7742 15.8505C42.6574 15.7715 42.5406 15.6924 42.4044 15.6134C42.4044 15.6134 42.3654 15.5937 42.346 15.5739C42.307 15.5542 42.2486 15.5146 42.2097 15.4949C42.1708 15.4751 42.1124 15.4554 42.0735 15.4159C42.054 15.4159 42.015 15.3764 41.9956 15.3764C41.9761 15.3764 41.9566 15.3764 41.9372 15.3566C41.8204 15.2973 41.6841 15.2578 41.5673 15.1986C41.5479 15.1986 41.5284 15.1986 41.5089 15.1788C41.4116 15.1393 41.3143 15.1195 41.217 15.0998C41.1586 15.0998 41.1002 15.0603 41.0223 15.0405C40.925 15.0208 40.8471 15.001 40.7498 15.001C40.7303 15.001 40.6914 15.001 40.672 15.001C40.672 15.001 39.5819 14.9615 38.6086 15.3764C38.667 15.4356 38.706 15.4949 38.7449 15.5542C38.7449 15.5739 38.7838 15.5937 38.7838 15.6134C38.7838 15.6332 38.8228 15.6727 38.8422 15.6924C38.8812 15.7715 38.9395 15.8307 38.9785 15.9098C39.0174 15.969 39.0563 16.048 39.0953 16.1073C39.0953 16.1468 39.1342 16.1666 39.1537 16.2061C39.1537 16.2258 39.1731 16.2456 39.1926 16.2851C39.251 16.3839 39.2899 16.5024 39.3483 16.6012C39.3483 16.6012 39.3483 16.6407 39.3678 16.6605C39.3872 16.7197 39.4067 16.779 39.4457 16.8185C39.4457 16.858 39.4846 16.9173 39.504 16.9568C39.504 16.9765 39.504 16.9963 39.5235 17.0358C39.5624 17.1543 39.6014 17.2729 39.6403 17.3914C39.6403 17.4112 39.6403 17.4507 39.6598 17.4704C39.6598 17.5099 39.6792 17.5692 39.6987 17.6087C39.6987 17.668 39.7181 17.747 39.7376 17.8063C39.7376 17.8063 39.7376 17.8458 39.7376 17.8655C39.7571 17.9841 39.7765 18.1223 39.796 18.2409C39.796 18.2804 39.796 18.3001 39.796 18.3397C39.796 18.4779 39.8349 18.5965 39.8349 18.7348C39.9323 20.3152 39.4651 21.8759 38.5502 23.1402C37.6354 24.4045 36.3507 25.2343 34.9492 25.4516L33.976 25.4911H33.7813L28.8372 25.6886H28.6425L20.1752 26.0245V26.2418L20 27.7827V28L28.4479 27.6642H28.6425L33.5867 27.4666V27.4469Z" fill="#335C82"/>
<path id="Vector_4" d="M28.7171 1.06132C28.7171 1.06132 28.5293 1.02044 28.4251 1H28.3834C28.3834 1 28.3625 1 28.3416 1C28.2999 1 28.2791 1 28.2374 1C28.2374 1 27.1737 1 26.1308 1.38836C26.9234 2.32862 27.3822 3.53459 27.4657 4.86321C27.5699 6.49843 27.0694 8.11321 26.0891 9.42138C25.088 10.7296 23.7322 11.5881 22.2306 11.8129L21.1877 11.8742V12.0991L21 13.7752V14L27.5491 13.673C28.0705 13.5912 28.5711 13.4481 29.0508 13.2233C29.5305 12.9984 29.9894 12.7327 30.4065 12.3852C30.8236 12.0377 31.2199 11.6494 31.5536 11.1792C31.8873 10.7296 32.1793 10.239 32.4087 9.72799C32.6382 9.21698 32.805 8.68553 32.8884 8.13365C32.9927 7.58176 33.0136 7.02987 32.9927 6.45755C32.951 5.88522 32.8467 5.35377 32.7007 4.84277C32.5339 4.33176 32.3045 3.86164 32.0333 3.41195C31.7413 2.9827 31.4076 2.5739 31.0322 2.24686C30.907 2.14465 30.7819 2.04245 30.6359 1.94025C30.6359 1.94025 30.6359 1.94025 30.5942 1.91981C30.4691 1.83805 30.3439 1.73585 30.1979 1.67453C30.1979 1.67453 30.1562 1.67453 30.1353 1.65409C30.0936 1.63365 30.031 1.59277 29.9893 1.57233C29.9476 1.55189 29.8851 1.51101 29.8433 1.49057C29.8016 1.49057 29.7808 1.44969 29.7599 1.44969C29.7599 1.44969 29.7182 1.44969 29.6973 1.42925C29.5722 1.36792 29.4262 1.32704 29.2802 1.26572C29.2593 1.26572 29.2385 1.26572 29.2176 1.24528C29.1759 1.24528 29.1134 1.2044 29.0717 1.2044C29.0299 1.2044 28.9674 1.18396 28.9256 1.16352C28.8631 1.16352 28.8005 1.12264 28.7379 1.12264" fill="#335C82"/>
<path id="Vector_5" d="M20.3181 26.3193V26.1071L21.5309 13.8736V13.6614L21.7041 12.0791V11.8669L22.0699 8.39363C21.9737 6.84998 22.4357 5.32562 23.3404 4.09069C24.1104 3.02943 25.1499 2.29619 26.2857 1.96816C27.2482 1.58225 28.23 1.60154 28.23 1.60154C28.2492 1.60154 28.2877 1.60154 28.307 1.60154H28.3455H28.384C28.4802 1.60154 28.5572 1.62084 28.6535 1.65943C28.7112 1.65943 28.769 1.69802 28.8267 1.69802C28.8845 1.69802 28.923 1.71732 28.9615 1.73661C28.9615 1.73661 28.9807 1.73661 29 1.73661C28.8075 1.67873 28.6342 1.62084 28.4225 1.56295L27.8065 1.37C27.4022 1.23493 26.9594 1.09986 26.5359 0.964785C25.9969 0.791124 25.458 0.617463 24.9382 0.463097L24.1297 0.212253C24.1297 0.212253 24.1682 0.212253 24.1874 0.212253C24.2067 0.212253 24.2259 0.212253 24.2452 0.231548C24.3414 0.27014 24.4377 0.308731 24.5339 0.347323C24.5724 0.347323 24.5917 0.366618 24.6109 0.385914C24.5724 0.366618 24.5147 0.347323 24.4762 0.328027L23.6484 0.0771829C23.6484 0.0771829 23.5137 0.0578871 23.4367 0.0385914C23.3789 0.0385914 23.3212 0.0192957 23.2634 0.0192957C23.1672 0.0192957 23.0517 0 22.9554 0C22.8976 0 22.8592 0 22.8014 0C22.6474 0 22.4934 0 22.3394 0C22.3009 0 22.2431 0 22.2046 0C22.1469 0 22.1084 0 22.0699 0C22.0122 0 21.9736 0 21.9159 0C21.4346 0.0771828 20.9726 0.212253 20.5299 0.424506C20.0871 0.636758 19.6636 0.887603 19.2786 1.21563C18.8936 1.54366 18.5279 1.91028 18.2199 2.33478C17.9119 2.75929 17.6423 3.22238 17.4306 3.70478C17.2188 4.18717 17.0841 4.68886 16.9878 5.20984C16.8916 5.73082 16.8723 6.25181 16.8916 6.77279L16.3718 12.0405L16.1986 13.835V14.0473L14.9858 26.2229L14.8126 27.9595V28.1717L14.4468 31.6257C14.6201 34.5779 12.7721 37.3179 10.231 38.0511C10.231 38.0511 10.077 38.0897 10 38.109C10.0578 38.1669 10.0963 38.2248 10.154 38.2827C10.1733 38.3213 10.2118 38.3406 10.231 38.3792C10.2503 38.4178 10.2888 38.437 10.308 38.4756C10.3273 38.4949 10.3657 38.5335 10.385 38.5528C10.4042 38.5721 10.4428 38.6107 10.462 38.63C10.4813 38.63 10.5005 38.6686 10.5198 38.6879C10.5583 38.7265 10.5775 38.7458 10.616 38.7844C10.6353 38.7844 10.6545 38.823 10.6738 38.8423C10.693 38.8423 10.7123 38.8808 10.7315 38.8808C10.77 38.9194 10.8085 38.9387 10.847 38.9773C10.847 38.9773 10.8663 38.9966 10.8855 39.0159C10.9048 39.0352 10.9433 39.0545 10.9625 39.0931C10.9625 39.0931 10.9818 39.0931 11.001 39.1124C11.0395 39.1317 11.078 39.151 11.0973 39.1896C11.1358 39.2282 11.1743 39.2475 11.2128 39.2668C11.2513 39.2861 11.2898 39.3246 11.3475 39.3439C11.3475 39.3439 11.386 39.3632 11.4053 39.3825C11.5208 39.4597 11.6555 39.5176 11.771 39.5755C11.7903 39.5755 11.8095 39.5755 11.8288 39.6141C11.8673 39.6334 11.925 39.6527 11.9635 39.672L12.7913 39.9228C12.7913 39.9228 12.849 39.9228 12.8875 39.9421C12.926 39.9421 12.9645 39.9421 12.9838 39.9421C13.0415 39.9421 13.0993 39.9614 13.157 39.9807C13.2533 39.9807 13.3495 39.9807 13.465 40C13.5228 40 13.5613 40 13.6191 40C13.7731 40 13.9271 40 14.0811 40C14.1196 40 14.1773 40 14.2158 40C14.2543 40 14.3121 40 14.3506 40C14.4083 40 14.4468 40 14.5045 40C14.9858 39.9228 15.4478 39.7877 15.8906 39.5755C16.3333 39.3632 16.7568 39.1124 17.1418 38.7844C17.5269 38.4563 17.8926 38.0897 18.2006 37.6459C18.5086 37.2214 18.7781 36.7583 18.9899 36.2759C19.2016 35.7935 19.3556 35.2918 19.4326 34.7709C19.5289 34.2499 19.5481 33.7289 19.5289 33.2079L20.0294 28.0367H20.0486V27.8244L20.2026 26.3193H20.3181Z" fill="#335C82"/>
<path id="Vector_6" d="M16 12L0 12.9699V13.218L4.90973 15L15.8074 14.3459L15.8267 14.0977L16 12Z" fill="#335C82"/>
<path id="Vector_7" d="M11.2106 39.62C11.2106 39.62 11.169 39.6 11.1482 39.58C11.1065 39.56 11.0441 39.52 11.0024 39.5C10.9608 39.48 10.8983 39.44 10.8567 39.42C10.815 39.4 10.7942 39.38 10.7526 39.36C10.7526 39.36 10.7317 39.36 10.7109 39.34C10.6693 39.32 10.6485 39.3 10.6068 39.26C10.6068 39.26 10.586 39.24 10.5652 39.22C10.5235 39.18 10.4819 39.16 10.4402 39.12C10.4402 39.12 10.3986 39.08 10.3778 39.08C10.3778 39.08 10.3362 39.04 10.3153 39.02C10.2737 38.98 10.2529 38.96 10.2112 38.92C10.2112 38.92 10.1696 38.88 10.1488 38.86C10.1279 38.84 10.0863 38.8 10.0655 38.78C10.0447 38.74 10.003 38.72 9.98219 38.7C9.96137 38.66 9.91974 38.64 9.89892 38.6C9.8781 38.56 9.83647 38.54 9.81565 38.5C9.75319 38.44 9.71154 38.38 9.64908 38.32C9.44087 38.08 9.27431 37.82 9.12856 37.54C8.69133 36.76 8.42064 35.86 8.35817 34.88C8.35817 34.84 8.35817 34.82 8.35817 34.78C8.33735 34.24 8.35818 33.72 8.46228 33.2C8.56639 32.68 8.71213 32.18 8.92034 31.68C9.12855 31.2 9.39922 30.74 9.73235 30.3C9.73235 30.28 9.774 30.26 9.774 30.24C10.0863 29.84 10.4194 29.48 10.7942 29.18C11.169 28.86 11.5854 28.58 12.0226 28.38C12.4391 28.18 12.8763 28.02 13.3135 27.92C13.4593 27.88 13.605 27.86 13.7508 27.84L14.8126 27.8L15 26L8.44147 26.24C7.92095 26.32 7.42125 26.46 6.94238 26.68C6.4635 26.9 6.00542 27.16 5.58901 27.5C5.17259 27.84 4.77702 28.22 4.44389 28.68C4.11076 29.12 3.81926 29.6 3.59023 30.1C3.3612 30.6 3.19465 31.12 3.11136 31.66C3.00726 32.2 2.98643 32.74 3.00725 33.3C3.0489 33.86 3.153 34.38 3.29874 34.88C3.46531 35.38 3.69432 35.84 3.96499 36.28C4.25648 36.7 4.58964 37.1 4.96441 37.42C5.08934 37.52 5.21424 37.62 5.33917 37.72C5.33917 37.72 5.36 37.72 5.38082 37.74C5.50574 37.82 5.63067 37.9 5.77642 37.98C5.77642 37.98 5.81806 38 5.83888 38.02C5.88052 38.06 5.94297 38.08 5.98461 38.1C6.02625 38.12 6.08873 38.16 6.13037 38.18C6.15119 38.18 6.19282 38.2 6.21364 38.22C6.23446 38.22 6.25528 38.24 6.2761 38.24C6.40102 38.3 6.54679 38.36 6.69254 38.4C6.69254 38.4 6.73418 38.4 6.755 38.42C6.8591 38.46 6.9632 38.48 7.04649 38.5C6.98402 38.5 6.92154 38.48 6.85908 38.46L7.21306 38.56C7.21306 38.56 7.40042 38.62 7.48371 38.64L7.98341 38.78C8.10834 38.82 8.21244 38.86 8.33736 38.88H8.42063L9.21183 39.14C9.4825 39.22 9.77398 39.3 10.0446 39.38L10.3362 39.46C10.3362 39.46 10.5235 39.52 10.6068 39.54L11.1482 39.7L11.6687 39.86L12.1059 40C12.1059 40 12.0851 40 12.0643 40C12.0434 40 12.0226 40 12.0018 39.98C11.9602 39.98 11.9185 39.94 11.8769 39.94C11.8144 39.92 11.752 39.9 11.6895 39.88C11.6687 39.88 11.627 39.86 11.5854 39.84C11.5646 39.84 11.5438 39.82 11.5229 39.8C11.398 39.74 11.2523 39.68 11.1273 39.6" fill="#335C82"/>
<path id="Vector_8" d="M38.3933 14.9082C37.9299 14.7729 37.4665 14.6184 37.0224 14.4831L36.1148 14.1932C36.1148 14.1932 36.1728 14.2126 36.2114 14.2319C36.2307 14.2319 36.25 14.2319 36.2693 14.2512C36.3079 14.2512 36.3659 14.2899 36.4045 14.3092C36.4624 14.3092 36.501 14.3478 36.559 14.3671H36.501L35.6707 14.0966C35.5935 14.0966 35.5356 14.0773 35.4583 14.058C35.4004 14.058 35.3425 14.0386 35.2846 14.0193C35.188 14.0193 35.0915 14.0193 34.9756 14C34.9177 14 34.8791 14 34.8211 14C34.6667 14 34.5122 14 34.3577 14C34.3191 14 34.2612 14 34.2226 14C34.184 14 34.126 14 34.0874 14C34.0295 14 33.9909 14 33.9329 14C33.4502 14.0773 32.9868 14.2126 32.5427 14.4251C32.0986 14.6377 31.6738 14.8889 31.2876 15.2174C30.9014 15.5459 30.5346 15.913 30.2256 16.3382C29.9167 16.7633 29.6464 17.2271 29.434 17.7101C29.2216 18.1932 29.0671 18.6957 28.9899 19.2174C28.8933 19.7391 28.874 20.2609 28.8933 20.7826L28.3913 25.942L27.9472 30.4444L27.001 40.1642L26.8272 41.9614V42.1739L26.4604 45.6522C26.6341 48.5894 24.7805 51.3527 22.2124 52.087C22.2124 52.087 22.0579 52.1256 22 52.1449C22.0386 52.2029 22.0965 52.2609 22.1545 52.3188C22.1738 52.3575 22.2124 52.3768 22.2317 52.4155C22.251 52.4541 22.2896 52.4734 22.309 52.4927C22.3283 52.5121 22.3669 52.5507 22.3862 52.57C22.4055 52.6087 22.4441 52.628 22.4634 52.6473C22.4634 52.6473 22.502 52.686 22.5213 52.7053C22.56 52.744 22.5793 52.7633 22.6179 52.8019C22.6565 52.8406 22.6951 52.8599 22.7337 52.8986C22.7724 52.9372 22.811 52.9565 22.8496 52.9952C22.8496 52.9952 22.8689 53.0145 22.8882 53.0338C22.8882 53.0338 22.9075 53.0531 22.9269 53.0725C22.9269 53.0725 22.9461 53.0918 22.9654 53.1111C22.9654 53.1111 22.9848 53.1111 22.9848 53.1304C22.9848 53.1304 23.0234 53.1498 23.0427 53.1691C23.0427 53.1691 23.0813 53.1884 23.1006 53.2077C23.1392 53.2271 23.1779 53.2657 23.2165 53.285C23.2551 53.3043 23.2937 53.343 23.3516 53.3623C23.3516 53.3623 23.3903 53.3816 23.4096 53.401C23.5254 53.4783 23.6606 53.5362 23.7764 53.5942C23.7957 53.5942 23.815 53.5942 23.8343 53.6135C23.873 53.6329 23.9309 53.6522 23.9695 53.6715L24.7998 53.9227C24.7998 53.9227 24.8577 53.9227 24.8963 53.942C24.935 53.942 24.9736 53.942 24.9929 53.942C25.0508 53.942 25.1087 53.9613 25.1667 53.9807C25.2632 53.9807 25.3598 53.9807 25.4756 54C25.5335 54 25.5722 54 25.6301 54C25.7846 54 25.939 54 26.0935 54C26.1321 54 26.19 54 26.2287 54C26.2673 54 26.3252 54 26.3638 54C26.4218 54 26.4604 54 26.5183 54C27.001 53.9227 27.4644 53.7874 27.9085 53.5749C28.3526 53.3623 28.7775 53.1111 29.1636 52.7826C29.5498 52.4541 29.9167 52.087 30.2256 51.6425C30.5346 51.2174 30.8049 50.7536 31.0173 50.2705C31.2297 49.7874 31.3842 49.285 31.4614 48.7633C31.5579 48.2415 31.5772 47.7198 31.5579 47.1981L32.0986 41.7101L32.253 40.1256V39.913L33.2571 29.8841L33.6626 25.7681L33.8171 24.1836V24.1256L33.9909 22.3092C33.8943 20.7633 34.3577 19.2367 35.2653 18C36.0376 16.9372 37.0803 16.2029 38.2195 15.8744C39.185 15.4879 40.2663 15.5072 40.2663 15.5072C40.2663 15.5072 40.3242 15.5072 40.3628 15.5072C40.4594 15.5072 40.5366 15.5266 40.6332 15.5459C40.6911 15.5459 40.749 15.5845 40.8262 15.6039C40.8842 15.6039 40.9421 15.6232 41 15.6425L38.3354 14.8116L38.3933 14.9082Z" fill="#335C82"/>
</g>
</svg>
