<?xml version="1.0" encoding="utf-8"?>
<!-- Generator: Adobe Illustrator 28.2.0, SVG Export Plug-In . SVG Version: 6.00 Build 0)  -->
<svg version="1.1" id="Capa_1" xmlns="http://www.w3.org/2000/svg" xmlns:xlink="http://www.w3.org/1999/xlink" x="0px" y="0px"
	 viewBox="0 0 320 320" style="enable-background:new 0 0 320 320;" xml:space="preserve">
<style type="text/css">
	.st0{fill:#335C82;}
</style>
<g>
	<polygon class="st0" points="265.2,229.3 208.4,232.2 208.3,233.4 207.4,242.3 289.6,238.1 292.9,237.9 	"/>
	<path class="st0" d="M137.7,302.3c0.1,0,0.3,0,0.3,0C137.9,302.2,137.8,302.3,137.7,302.3L137.7,302.3z"/>
	<path class="st0" d="M160.6,309.2c-0.1,0-0.2-0.1-0.3-0.1c-0.7-0.3-1.4-0.7-2.1-1.1l0.3,0.1c0,0-0.2-0.1-0.3-0.2
		c-0.2-0.1-0.5-0.3-0.8-0.4c-0.2-0.1-0.5-0.3-0.8-0.4c0,0-0.1-0.1-0.2-0.2c0,0-0.2-0.1-0.3-0.2c0,0-0.1,0-0.2-0.1
		c0,0-0.1-0.1-0.2-0.2c0,0-0.2-0.1-0.3-0.2c0,0-0.1-0.1-0.2-0.2c-0.2-0.2-0.4-0.3-0.7-0.5c-0.2-0.2-0.4-0.3-0.7-0.5
		c-0.2-0.2-0.3-0.3-0.5-0.5c0,0-0.2-0.2-0.3-0.3c-0.1-0.1-0.3-0.3-0.4-0.4c-0.1-0.1-0.3-0.3-0.4-0.4c-0.1-0.2-0.3-0.3-0.4-0.4
		c-0.1-0.2-0.3-0.3-0.4-0.5c-0.3-0.3-0.5-0.7-0.9-1c-1.1-1.3-2-2.7-2.7-4.2c-2.3-4.2-3.7-9.1-4-14.4c0-0.2,0-0.3,0-0.5
		c-0.1-2.9,0-5.8,0.5-8.6c0.5-2.8,1.3-5.5,2.4-8.3c1.1-2.6,2.5-5.1,4.2-7.5c0-0.1,0.2-0.2,0.2-0.4c1.6-2.2,3.4-4.1,5.3-5.8
		c2-1.7,4.1-3.3,6.4-4.5c2.2-1.1,4.5-2,6.7-2.5c0.8-0.2,1.5-0.3,2.3-0.4l5.5-0.3l1-10.1l-34.2,1.7c-2.7,0.4-5.3,1.2-7.8,2.4
		c-2.5,1.1-4.9,2.6-7.1,4.5c-2.2,1.8-4.2,3.9-6,6.3c-1.7,2.4-3.3,5-4.5,7.7s-2.1,5.5-2.5,8.5c-0.5,2.9-0.7,5.9-0.5,8.9
		c0.2,3,0.8,5.9,1.5,8.6c0.9,2.7,2.1,5.2,3.5,7.6c1.5,2.3,3.3,4.5,5.2,6.2c0.7,0.5,1.3,1.1,2.1,1.6c0,0,0.1,0,0.1,0.1
		c0.7,0.4,1.3,0.9,2.1,1.3c0,0,0.2,0.1,0.3,0.2c0.2,0.1,0.5,0.3,0.8,0.4c0.2,0.1,0.5,0.3,0.8,0.4c0.1,0,0.3,0.1,0.4,0.2
		c0.1,0,0.2,0.1,0.3,0.2c0.7,0.3,1.4,0.7,2.2,0.9c0.1,0,0.2,0,0.3,0.1c0.2,0,0.5,0.2,0.8,0.2h-0.2c4.9,1.5,10.9,3.4,16.6,5.2
		l9.4,2.9c-0.3-0.1-0.5-0.2-0.7-0.3C160.9,309.4,160.8,309.3,160.6,309.2z"/>
	<path class="st0" d="M161.9,309.7c0.2,0.1,0.4,0.3,0.8,0.3c0.1,0.1,0.2,0.1,0.3,0.1c0.1,0,0.3,0,0.3,0L161.9,309.7
		C161.9,309.7,161.9,309.7,161.9,309.7z"/>
	<path class="st0" d="M137.5,302.2c0.1,0,0.2,0,0.2,0v0C137.7,302.2,137.6,302.2,137.5,302.2z"/>
	<path class="st0" d="M127.2,220.8c1.7-2.4,3.3-5,4.5-7.7c1.2-2.7,2.1-5.5,2.5-8.5c0.5-2.9,0.7-5.9,0.5-8.8l2.8-29.1h0.1v-1.2
		l0.9-8.5h0.7v-1.2l6.8-68.8v-1.2l1-8.9v-1.2l2.1-19.5c-0.5-8.7,2.1-17.3,7.2-24.2c4.3-6,10.2-10.1,16.6-11.9h0
		c4.1,5,6.5,11.4,6.9,18.5c0.5,8.7-2.1,17.3-7.2,24.2c-5.2,6.9-12.3,11.5-20.1,12.7l-5.4,0.3V77l-1,8.9v1.2l34.1-1.7
		c2.7-0.4,5.3-1.2,7.8-2.4c2.5-1.2,4.9-2.6,7.1-4.5c2.2-1.8,4.2-3.9,6-6.4c1.7-2.4,3.3-5,4.5-7.7c1.2-2.7,2.1-5.5,2.5-8.5
		c0.5-2.9,0.7-5.9,0.5-8.9c-0.2-3-0.8-5.9-1.5-8.6c-0.9-2.7-2.1-5.2-3.5-7.6c-1.5-2.3-3.3-4.5-5.2-6.2c-0.7-0.5-1.3-1.1-2.1-1.6
		c0,0,0,0-0.2-0.1c-0.7-0.4-1.3-1-2.1-1.3c0,0-0.2,0-0.3-0.1c-0.2-0.1-0.5-0.3-0.8-0.4c-0.2-0.1-0.5-0.3-0.8-0.4
		c-0.2,0-0.3-0.2-0.4-0.2c0,0-0.2,0-0.3-0.1c-0.7-0.3-1.4-0.5-2.2-0.9c-0.1,0-0.2,0-0.3-0.1c-0.2,0-0.5-0.2-0.8-0.2
		c-0.2,0-0.5-0.1-0.8-0.2c-0.3,0-0.7-0.2-1-0.2l-0.1-0.3c0.3,0,0.6,0.2,0.9,0.2c0.3,0,0.5,0.1,0.8,0.2c0,0,0.1,0,0.2,0
		c-1.1-0.3-2.1-0.7-3.3-1l-3.5-1.1c-2.3-0.8-4.8-1.5-7.2-2.3c-3-1-6.1-2-9-2.8l-2.9-0.9c0.2,0.1,0.4,0.2,0.6,0.2
		c0.2,0,0.3,0.1,0.4,0.2c-0.2-0.1-0.5-0.2-0.8-0.3l-4.7-1.4c0,0-0.8-0.1-1.2-0.2c-0.3,0-0.7-0.1-1-0.1c-0.5,0-1.2-0.1-1.7-0.1
		c-0.3,0-0.5,0-0.9,0c-0.9,0-1.7,0-2.6,0c-0.2,0-0.5,0-0.8,0c-0.3,0-0.5,0-0.8,0c-0.3,0-0.5,0-0.9,0c-2.7,0.4-5.3,1.2-7.8,2.4
		c-2.5,1.2-4.9,2.6-7.1,4.5c-2.2,1.8-4.2,3.9-6,6.3c-1.7,2.4-3.3,5-4.5,7.7c-1.2,2.7-2,5.5-2.5,8.5c-0.5,2.9-0.7,5.9-0.5,8.8
		l-2.9,29.6l0,0.5l-89.7,4.6V83l27.7,8.6l61.1-3.1l-6.8,68l0,0.4l-33.9,1.3c-2.7,0.4-5.3,1.2-7.8,2.4c-2.5,1.2-4.9,2.6-7.1,4.5
		c-2.2,1.8-4.2,3.9-6,6.4c-1.7,2.4-3.3,5-4.5,7.7c-1.2,2.7-2.1,5.5-2.5,8.5c-0.5,2.9-0.7,5.9-0.5,8.9c0.2,3,0.8,5.9,1.5,8.6
		c0.9,2.7,2.1,5.2,3.5,7.6c1.5,2.3,3.3,4.5,5.2,6.2c0.7,0.5,1.3,1.1,2,1.6c0,0,0.1,0,0.2,0.1c0.7,0.4,1.3,0.9,2.1,1.3
		c0,0,0.2,0.1,0.3,0.2c0.2,0.2,0.5,0.3,0.8,0.4c0.2,0.1,0.5,0.3,0.8,0.4c0.1,0,0.3,0.1,0.4,0.2c0.1,0,0.2,0.1,0.3,0.1
		c0.7,0.3,1.4,0.7,2.2,0.9c0,0,0.2,0,0.3,0.1c0.5,0.2,1.1,0.3,1.5,0.4c-0.3,0-0.7-0.1-1-0.2l1.8,0.5c0,0,1,0.3,1.4,0.4l2.6,0.8
		c0.7,0.2,1.2,0.4,1.8,0.5h0.4l4.1,1.4c1.4,0.4,2.9,0.9,4.3,1.3l1.5,0.4c0,0,1,0.3,1.4,0.4l2.8,0.9l2.2,0.7c-0.1,0-0.2-0.1-0.2-0.2
		c-0.7-0.3-1.4-0.7-2.1-1.1l0.4,0.1c0.5,0.3,1,0.5,1.5,0.8c0.1,0,0.2,0,0.3,0.2c0.2,0.1,0.5,0.2,0.8,0.3l4.7,1.4c0,0,0.3,0,0.5,0.1
		c0.2,0,0.4,0,0.5,0c0.3,0,0.7,0.1,1,0.2c0.5,0,1.1,0,1.7,0.1c0.3,0,0.5,0,0.9,0c0.9,0,1.7,0,2.6,0c0.2,0,0.5,0,0.8,0
		c0.2,0,0.5,0,0.8,0c0.3,0,0.5,0,0.9,0c2.7-0.4,5.3-1.2,7.8-2.4c2.5-1.2,4.9-2.6,7.1-4.5C123.4,225.3,125.4,223.3,127.2,220.8z
		 M183.7,18c-0.1,0-5.5,0-10.9,2C178.2,17.9,183.6,18,183.7,18z M84,226.8c-0.1-0.1-0.3-0.3-0.4-0.4c0.1,0,0.2,0.2,0.3,0.3
		c0.2,0.2,0.3,0.3,0.4,0.4c0,0,0.1,0.1,0.1,0.1c0.1,0,0.1,0.1,0.2,0.2c-0.1-0.1-0.2-0.2-0.3-0.3C84.3,227.1,84.1,226.9,84,226.8z
		 M86.9,229.4c-0.2-0.1-0.3-0.2-0.5-0.4c0,0-0.1-0.1-0.2-0.2c-0.2-0.2-0.4-0.3-0.7-0.5c0,0-0.2-0.2-0.3-0.2c0,0-0.2-0.2-0.3-0.3
		c0,0-0.1-0.1-0.1-0.1c0.1,0,0.2,0.2,0.3,0.2c0.2,0.2,0.4,0.3,0.7,0.5c0,0,0.1,0.1,0.2,0.2c0.1,0.1,0.3,0.2,0.4,0.4
		c0,0,0.1,0,0.2,0.1c0.2,0.1,0.4,0.2,0.5,0.4C87.1,229.5,87,229.5,86.9,229.4z M106,186.9c1,16.6-9.4,32-23.8,36.1
		c0,0-0.7,0.2-1.2,0.3c-0.9-1.2-1.7-2.4-2.4-3.8c-2.3-4.2-3.7-9.1-4-14.4c0-0.2,0-0.3,0-0.5c-0.1-2.9,0-5.8,0.5-8.6
		c0.5-2.8,1.3-5.5,2.4-8.3c1.1-2.6,2.5-5.1,4.2-7.5c0-0.1,0.2-0.2,0.2-0.3c1.6-2.2,3.4-4.1,5.3-5.8c2-1.7,4.1-3.3,6.4-4.3
		c2.2-1.1,4.5-2,6.7-2.5c0.8-0.2,1.5-0.3,2.3-0.4l5.3-0.2v0.8L106,186.9z"/>
	<path class="st0" d="M160.9,10.2c-0.1,0-0.3,0-0.3,0l1.7,0.5c-0.3-0.1-0.7-0.3-1-0.4C161.1,10.2,161,10.2,160.9,10.2z"/>
	<path class="st0" d="M92,232.3c0.3,0.1,0.7,0.2,1,0.3c0.2,0,0.4,0.2,0.7,0.2c0.1,0.1,0.2,0.1,0.3,0.1c0.1,0,0.2,0,0.2,0l-2.3-0.8
		l-0.5-0.2c0,0,0.1,0.1,0.1,0.1C91.7,232.2,91.9,232.3,92,232.3z"/>
	<path class="st0" d="M207.9,231.9l5.6-56.3l1.2-11.7h0.4l34.2-1.3c2.7-0.4,5.3-1.2,7.8-2.4c2.5-1.2,4.9-2.6,7.1-4.5
		c2.2-1.8,4.2-3.9,6-6.4c1.7-2.4,3.3-5,4.5-7.7c1.2-2.7,2-5.5,2.5-8.5s0.7-5.9,0.5-8.9c-0.2-3-0.8-5.9-1.5-8.6
		c-0.9-2.7-2.1-5.2-3.5-7.6c-1.4-2.3-3.3-4.5-5.2-6.2c-0.3-0.3-0.7-0.5-1-0.9c-0.3-0.2-0.7-0.5-1-0.8c0,0-0.1,0-0.2-0.1
		c-0.7-0.4-1.3-0.9-2.1-1.3c0,0-0.2-0.1-0.3-0.2c-0.2-0.1-0.5-0.3-0.8-0.4c-0.2-0.1-0.5-0.2-0.8-0.4c-0.1,0-0.3-0.2-0.4-0.2
		c-0.1,0-0.2,0-0.3-0.1c-0.7-0.3-1.4-0.5-2.1-0.9c-0.1,0-0.2,0-0.3-0.1c-0.5-0.2-1.1-0.3-1.6-0.4c-0.3,0-0.7-0.2-1.1-0.3
		c-0.5-0.1-1-0.2-1.5-0.2c-0.1,0-0.3,0-0.4,0c0,0-6.1-0.2-11.5,2.1c0.3,0.3,0.5,0.7,0.8,1c0,0.1,0.2,0.2,0.2,0.3
		c0,0.1,0.2,0.3,0.3,0.4c0.2,0.4,0.5,0.8,0.8,1.2c0.2,0.3,0.4,0.8,0.7,1.1c0,0.2,0.2,0.3,0.3,0.5c0,0.1,0.1,0.2,0.2,0.4
		c0.3,0.5,0.5,1.2,0.9,1.7c0,0,0,0.2,0.1,0.3c0.1,0.3,0.2,0.7,0.4,0.9c0,0.2,0.2,0.5,0.3,0.8c0,0.1,0,0.2,0.1,0.4
		c0.2,0.7,0.4,1.3,0.7,2c0,0.1,0,0.3,0.1,0.4c0,0.2,0.1,0.5,0.2,0.8c0,0.3,0.1,0.8,0.2,1.1c0,0,0,0.2,0,0.3c0.1,0.7,0.2,1.4,0.3,2.1
		c0,0.2,0,0.3,0,0.5c0,0.8,0.2,1.4,0.2,2.2c0.5,8.7-2.1,17.3-7.2,24.2c-5.1,6.9-12.3,11.5-20.1,12.7l-5.4,0.2h-0.4l0.1-0.7l0.9-8.9
		v-0.3l1-10.2c-0.5-8.7,2.1-17.3,7.2-24.2c4.3-6,10.2-10.1,16.6-11.9c5.4-2.2,11.5-2.1,11.5-2.1s0.3,0,0.5,0c0.5,0,1,0.1,1.5,0.2
		c0.3,0,0.7,0.2,1.1,0.3c0.3,0,0.7,0.1,1,0.2l-15-4.7l0.3,0.5c-2.6-0.8-5.2-1.6-7.7-2.4l-5.1-1.6c0,0,0.3,0.1,0.5,0.2
		c0.1,0,0.2,0,0.3,0.1c0.2,0,0.5,0.2,0.8,0.3c0.3,0,0.5,0.2,0.9,0.3h-0.3l-4.7-1.5c-0.4,0-0.8-0.1-1.2-0.2c-0.3,0-0.7-0.1-1-0.2
		c-0.5,0-1.1,0-1.7-0.1c-0.3,0-0.5,0-0.9,0c-0.9,0-1.7,0-2.6,0c-0.2,0-0.5,0-0.8,0c-0.2,0-0.5,0-0.8,0c-0.3,0-0.5,0-0.9,0
		c-2.7,0.4-5.3,1.2-7.8,2.4c-2.5,1.2-4.9,2.6-7.1,4.5c-2.2,1.8-4.2,3.9-6,6.3c-1.7,2.4-3.3,5-4.5,7.7c-1.2,2.7-2.1,5.5-2.5,8.5
		c-0.5,2.9-0.7,5.9-0.5,8.8l-2.8,29l-0.1,0.8l-46.9,1.8v1.2l-1,8.5v1.2l46.8-1.8l-1.3,13.7l-5.3,54.6l-1,10.1v1.2l-2.1,19.5
		c1,16.5-9.4,32-23.9,36.1c0,0-0.9,0.2-1.2,0.3c0.2,0.3,0.5,0.7,0.9,1c0.1,0.2,0.3,0.3,0.4,0.5s0.3,0.3,0.4,0.4
		c0.1,0.1,0.3,0.3,0.4,0.4c0.1,0.2,0.3,0.3,0.4,0.4c0,0,0.2,0.2,0.3,0.3c0.2,0.2,0.3,0.3,0.5,0.5c0.2,0.2,0.4,0.3,0.7,0.5
		c0.2,0.2,0.4,0.3,0.7,0.5c0,0,0.1,0.1,0.2,0.2c0,0,0.1,0.1,0.2,0.2c0,0,0.1,0.1,0.2,0.2c0,0,0.1,0,0.1,0.1c0,0,0.2,0.1,0.3,0.2
		c0,0,0.2,0.1,0.3,0.2c0.2,0.1,0.4,0.3,0.7,0.4c0.2,0.1,0.4,0.3,0.8,0.4c0,0,0.2,0.1,0.3,0.2c0.7,0.4,1.4,0.8,2.1,1.1
		c0.1,0,0.2,0,0.3,0.1c0.2,0.1,0.5,0.2,0.8,0.3l4.7,1.4c0,0,0.3,0,0.5,0.1c0.2,0,0.4,0,0.5,0c0.3,0,0.7,0.1,1,0.2
		c0.5,0,1.1,0,1.7,0.1c0.3,0,0.5,0,0.9,0c0.9,0,1.7,0,2.6,0c0.2,0,0.5,0,0.8,0c0.2,0,0.5,0,0.8,0c0.3,0,0.5,0,0.9,0
		c2.7-0.4,5.3-1.2,7.8-2.4c2.5-1.2,4.9-2.6,7.1-4.5c2.2-1.8,4.2-3.9,6-6.4c1.7-2.4,3.3-5,4.5-7.7c1.2-2.7,2.1-5.5,2.5-8.5
		c0.5-2.9,0.7-5.9,0.5-8.8l3-30.8l0.9-8.9V231.9z"/>
</g>
</svg>
