<svg width="319" height="57" viewBox="0 0 319 57" fill="none" xmlns="http://www.w3.org/2000/svg">
<g clip-path="url(#clip0_340_522)">
<path d="M8.26003 15.16H13.92V10.03H15.9V23.15H13.92V17.02H8.26003V23.15H6.28003V10.03H8.26003V15.16Z" fill="white"/>
<path d="M38.13 19.9601H32.51L31.05 23.1501H28.92L35.41 9.20007L41.67 23.1501H39.5L38.12 19.9601H38.13ZM37.32 18.1001L35.37 13.6401L33.33 18.1001H37.32Z" fill="white"/>
<path d="M59.13 17.56L63.19 23.15H60.77L57.02 17.78H56.66V23.15H54.68V10.03H57C58.73 10.03 59.99 10.35 60.76 11.01C61.61 11.74 62.04 12.69 62.04 13.88C62.04 14.81 61.77 15.61 61.24 16.28C60.71 16.95 60 17.38 59.13 17.56ZM56.66 16.05H57.29C59.17 16.05 60.1 15.33 60.1 13.9C60.1 12.56 59.19 11.89 57.36 11.89H56.65V16.06L56.66 16.05Z" fill="white"/>
<path d="M78.35 15.26L83.45 10.02H86.1L80.17 15.97L86.13 23.15H83.48L78.75 17.31L78.35 17.72V23.15H76.36V10.02H78.35V15.26Z" fill="white"/>
<path d="M106.44 11.89H101.18V15.04H106.29V16.9H101.18V21.29H106.44V23.15H99.2V10.03H106.44V11.89Z" fill="white"/>
<path d="M124.86 17.56L128.92 23.15H126.5L122.75 17.78H122.39V23.15H120.41V10.03H122.73C124.46 10.03 125.72 10.35 126.49 11.01C127.34 11.74 127.77 12.69 127.77 13.88C127.77 14.81 127.5 15.61 126.97 16.28C126.44 16.95 125.73 17.38 124.86 17.56ZM122.39 16.05H123.02C124.9 16.05 125.83 15.33 125.83 13.9C125.83 12.56 124.92 11.89 123.09 11.89H122.38V16.06L122.39 16.05Z" fill="white"/>
<path d="M173.45 10.03V21.29H177.31V23.15H171.47V10.03H173.45Z" fill="white"/>
<path d="M190.67 10.03V21.29H194.53V23.15H188.69V10.03H190.67Z" fill="white"/>
<path d="M204.75 16.53C204.75 14.68 205.43 13.1 206.78 11.77C208.13 10.44 209.75 9.78003 211.64 9.78003C213.53 9.78003 215.11 10.45 216.45 11.78C217.79 13.12 218.46 14.72 218.46 16.6C218.46 18.48 217.79 20.09 216.44 21.4C215.09 22.72 213.45 23.38 211.54 23.38C209.84 23.38 208.32 22.79 206.97 21.62C205.49 20.32 204.74 18.62 204.74 16.52M206.74 16.54C206.74 17.99 207.23 19.18 208.2 20.12C209.17 21.05 210.29 21.52 211.56 21.52C212.94 21.52 214.1 21.04 215.05 20.09C216 19.13 216.47 17.95 216.47 16.57C216.47 15.19 216 14 215.07 13.05C214.14 12.1 212.99 11.62 211.62 11.62C210.25 11.62 209.1 12.1 208.16 13.05C207.22 13.99 206.75 15.15 206.75 16.53" fill="white"/>
<path d="M234.99 17.56L239.05 23.15H236.63L232.88 17.78H232.52V23.15H230.54V10.03H232.86C234.59 10.03 235.85 10.35 236.62 11.01C237.47 11.74 237.9 12.69 237.9 13.88C237.9 14.81 237.63 15.61 237.1 16.28C236.56 16.95 235.86 17.38 234.99 17.56ZM232.52 16.05H233.15C235.03 16.05 235.96 15.33 235.96 13.9C235.96 12.56 235.05 11.89 233.22 11.89H232.51V16.06L232.52 16.05Z" fill="white"/>
<path d="M257.73 11.89H252.46V15.04H257.57V16.9H252.46V21.29H257.73V23.15H250.48V10.03H257.73V11.89Z" fill="white"/>
<path d="M269.95 23.15V10.03H272.7C274.02 10.03 275.06 10.16 275.83 10.42C276.65 10.68 277.4 11.11 278.07 11.72C279.43 12.96 280.1 14.58 280.1 16.59C280.1 18.6 279.39 20.24 277.98 21.49C277.27 22.11 276.53 22.55 275.75 22.79C275.02 23.03 273.99 23.15 272.66 23.15H269.94H269.95ZM271.93 21.29H272.82C273.71 21.29 274.45 21.2 275.04 21.01C275.63 20.81 276.16 20.5 276.64 20.07C277.61 19.18 278.1 18.02 278.1 16.59C278.1 15.16 277.62 13.98 276.65 13.09C275.78 12.29 274.51 11.89 272.82 11.89H271.93V21.29Z" fill="white"/>
<path d="M299.22 19.9601H293.6L292.14 23.1501H290.01L296.5 9.20007L302.76 23.1501H300.59L299.21 19.9601H299.22ZM298.41 18.1001L296.46 13.6401L294.42 18.1001H298.41Z" fill="white"/>
<path d="M16.1 48C15.4 48.31 14.28 48.61 12.87 48.61C9.74003 48.61 7.84003 46.62 7.84003 43.45C7.84003 41.11 8.78003 38.88 10.49 37.46C11.76 36.37 13.35 35.78 15.17 35.78C16.55 35.78 17.53 36.13 17.86 36.39L17.36 37.63C16.9 37.35 16.01 37.11 14.91 37.11C13.62 37.11 12.31 37.61 11.35 38.51C10.19 39.6 9.45003 41.35 9.45003 43.23C9.45003 45.46 10.46 47.28 13.23 47.28C14.17 47.28 15.2 47.1 15.88 46.75L16.08 48H16.1Z" fill="white"/>
<path d="M19.51 48.4001L21.22 39.4801H22.75L21.04 48.4001H19.51ZM22.37 37.9501C21.85 37.9501 21.5 37.5401 21.5 36.9901C21.52 36.4001 21.96 35.9601 22.51 35.9601C23.06 35.9601 23.41 36.3701 23.41 36.9201C23.39 37.5301 22.97 37.9501 22.38 37.9501H22.36H22.37Z" fill="white"/>
<path d="M25.58 48.4L26.67 42.65C26.89 41.49 27.04 40.31 27.13 39.48H28.48C28.41 40.11 28.33 40.73 28.24 41.42H28.3C28.87 40.2 29.83 39.28 31.03 39.28C31.16 39.28 31.34 39.3 31.45 39.32L31.16 40.83C31.07 40.81 30.92 40.79 30.75 40.79C29.42 40.79 28.24 42.39 27.86 44.48L27.12 48.41H25.59L25.58 48.4Z" fill="white"/>
<path d="M41.96 39.4801L40.76 45.8001C40.58 46.8001 40.45 47.6601 40.35 48.4001H38.97L39.21 46.7201H39.17C38.38 47.8801 37.2 48.6001 36.02 48.6001C34.84 48.6001 33.68 48.0501 33.68 46.0201C33.68 45.6001 33.74 45.1201 33.85 44.5301L34.81 39.4801H36.34L35.4 44.4601C35.29 44.9601 35.23 45.3801 35.23 45.7701C35.23 46.6901 35.62 47.3201 36.67 47.3201C37.78 47.3201 39.2 46.0301 39.56 44.0601L40.43 39.4901H41.96V39.4801Z" fill="white"/>
<path d="M44.82 50.43C45.35 50.76 46.24 51.02 47.18 51.02C48.67 51.02 49.85 50.25 50.39 47.83L50.68 46.5H50.62C49.85 47.77 48.76 48.4 47.52 48.4C45.73 48.4 44.81 46.89 44.81 45.3C44.79 42.28 47.02 39.27 50.47 39.27C51.5 39.27 52.63 39.56 53.33 39.9L51.97 47.27C51.6 49.15 51.1 50.46 50.16 51.25C49.28 52.02 48.08 52.25 47.05 52.25C45.96 52.25 44.95 51.99 44.38 51.62L44.82 50.42V50.43ZM51.66 40.81C51.38 40.68 50.83 40.52 50.19 40.52C47.96 40.52 46.43 42.84 46.41 45.05C46.41 46.03 46.76 47.19 48.12 47.19C49.48 47.19 50.77 45.53 51.09 43.78L51.66 40.81Z" fill="white"/>
<path d="M56.23 48.4L57.94 39.48H59.47L57.76 48.4H56.23ZM61.67 35.76L59.22 38.4H58.02L59.83 35.76H61.67Z" fill="white"/>
<path d="M68.22 48.4C68.22 47.87 68.31 47.02 68.42 46.1H68.38C67.4 47.94 66.19 48.61 64.91 48.61C63.34 48.61 62.35 47.36 62.35 45.66C62.35 42.56 64.64 39.28 68.52 39.28C69.37 39.28 70.31 39.43 70.92 39.63L70.02 44.28C69.73 45.83 69.6 47.41 69.63 48.41H68.21L68.22 48.4ZM69.22 40.62C69 40.56 68.67 40.49 68.15 40.49C65.85 40.49 63.97 42.9 63.95 45.37C63.95 46.37 64.3 47.34 65.48 47.34C66.75 47.34 68.26 45.68 68.71 43.3L69.23 40.61L69.22 40.62Z" fill="white"/>
<path d="M81.36 36.16C82.06 35.99 83.04 35.88 84.05 35.88C85.25 35.88 86.39 36.17 87.09 36.84C87.68 37.39 87.99 38.11 87.99 39.09C87.99 40.49 87.31 41.65 86.5 42.33C85.54 43.12 84.14 43.51 82.74 43.51C82.28 43.51 81.86 43.47 81.47 43.42L80.53 48.4H79.02L81.36 36.16ZM81.71 42.13C82.15 42.22 82.5 42.26 82.94 42.26C85.04 42.26 86.44 40.95 86.44 39.2C86.44 37.73 85.39 37.14 83.97 37.14C83.36 37.14 82.9 37.2 82.62 37.27L81.7 42.14L81.71 42.13Z" fill="white"/>
<path d="M90.08 48.4001L92.57 35.3101H94.1L91.59 48.4001H90.08Z" fill="white"/>
<path d="M102.05 48.4C102.05 47.87 102.14 47.02 102.25 46.1H102.21C101.23 47.94 100.02 48.61 98.74 48.61C97.17 48.61 96.18 47.36 96.18 45.66C96.18 42.56 98.47 39.28 102.35 39.28C103.2 39.28 104.14 39.43 104.75 39.63L103.85 44.28C103.56 45.83 103.43 47.41 103.46 48.41H102.04L102.05 48.4ZM103.05 40.62C102.83 40.56 102.5 40.49 101.98 40.49C99.68 40.49 97.8 42.9 97.78 45.37C97.78 46.37 98.13 47.34 99.31 47.34C100.58 47.34 102.09 45.68 102.54 43.3L103.06 40.61L103.05 40.62ZM104.76 35.75L102.29 38.39H101.09L102.91 35.75H104.75H104.76Z" fill="white"/>
<path d="M107.67 46.86C108.09 47.12 108.87 47.41 109.59 47.41C110.62 47.41 111.29 46.75 111.29 45.95C111.29 45.25 110.98 44.83 110.06 44.31C109.03 43.74 108.46 42.95 108.46 42.04C108.46 40.47 109.81 39.28 111.69 39.28C112.5 39.28 113.22 39.5 113.55 39.72L113.13 40.88C112.82 40.7 112.25 40.47 111.58 40.47C110.66 40.47 110 41.04 110 41.82C110 42.47 110.42 42.87 111.22 43.31C112.22 43.88 112.9 44.66 112.9 45.65C112.9 47.53 111.37 48.6 109.49 48.6C108.53 48.58 107.68 48.29 107.28 47.97L107.7 46.85L107.67 46.86Z" fill="white"/>
<path d="M120.26 37.3401L119.85 39.4801H121.99L121.75 40.6801H119.61L118.78 45.0101C118.69 45.5101 118.61 45.9701 118.61 46.4301C118.61 46.9601 118.87 47.3001 119.46 47.3001C119.72 47.3001 119.98 47.2801 120.18 47.2301L120.11 48.4501C119.83 48.5401 119.37 48.6201 118.93 48.6201C117.57 48.6201 117.05 47.7901 117.05 46.8901C117.05 46.3701 117.11 45.8601 117.23 45.2101L118.11 40.6901H116.82L117.06 39.4901H118.33L118.64 37.8501L120.24 37.3501L120.26 37.3401Z" fill="white"/>
<path d="M123.93 48.4001L125.64 39.4801H127.17L125.46 48.4001H123.93ZM126.79 37.9501C126.27 37.9501 125.92 37.5401 125.92 36.9901C125.94 36.4001 126.38 35.9601 126.93 35.9601C127.48 35.9601 127.83 36.3701 127.83 36.9201C127.81 37.5301 127.39 37.9501 126.8 37.9501H126.78H126.79Z" fill="white"/>
<path d="M136.13 48.05C135.67 48.27 134.75 48.6 133.55 48.6C131.25 48.6 130.12 47.03 130.12 45.13C130.12 42.09 132.37 39.29 135.58 39.29C136.41 39.29 137.17 39.53 137.44 39.68L137 40.9C136.65 40.73 136.15 40.57 135.49 40.57C133.17 40.57 131.71 42.86 131.71 44.96C131.71 46.4 132.47 47.34 133.92 47.34C134.82 47.34 135.52 47.06 135.98 46.84L136.13 48.06V48.05Z" fill="white"/>
<path d="M145.28 48.4C145.28 47.87 145.37 47.02 145.48 46.1H145.44C144.46 47.94 143.25 48.61 141.97 48.61C140.4 48.61 139.41 47.36 139.41 45.66C139.41 42.56 141.7 39.28 145.58 39.28C146.43 39.28 147.37 39.43 147.98 39.63L147.08 44.28C146.79 45.83 146.66 47.41 146.69 48.41H145.27L145.28 48.4ZM146.28 40.62C146.06 40.56 145.73 40.49 145.21 40.49C142.91 40.49 141.03 42.9 141.01 45.37C141.01 46.37 141.36 47.34 142.54 47.34C143.81 47.34 145.32 45.68 145.77 43.3L146.29 40.61L146.28 40.62Z" fill="white"/>
<path d="M157.45 44.7501C156.84 44.7501 156.44 44.2701 156.44 43.6601C156.44 42.9801 156.94 42.4301 157.6 42.4301C158.23 42.4301 158.63 42.8901 158.63 43.5401C158.63 44.1901 158.15 44.7601 157.47 44.7601H157.45V44.7501Z" fill="white"/>
<path d="M174.15 42.5601H169.63L168.78 47.0901H173.87L173.61 48.4001H166.99L169.35 35.9801H175.69L175.43 37.2901H170.64L169.88 41.2701H174.4L174.14 42.5601H174.15Z" fill="white"/>
<path d="M177.52 46.86C177.94 47.12 178.72 47.41 179.44 47.41C180.47 47.41 181.14 46.75 181.14 45.95C181.14 45.25 180.83 44.83 179.91 44.31C178.88 43.74 178.31 42.95 178.31 42.04C178.31 40.47 179.66 39.28 181.54 39.28C182.35 39.28 183.07 39.5 183.4 39.72L182.98 40.88C182.67 40.7 182.1 40.47 181.43 40.47C180.51 40.47 179.85 41.04 179.85 41.82C179.85 42.47 180.27 42.87 181.07 43.31C182.07 43.88 182.75 44.66 182.75 45.65C182.75 47.53 181.22 48.6 179.34 48.6C178.38 48.58 177.53 48.29 177.13 47.97L177.55 46.85L177.52 46.86Z" fill="white"/>
<path d="M190.11 37.3401L189.7 39.4801H191.84L191.6 40.6801H189.46L188.63 45.0101C188.54 45.5101 188.46 45.9701 188.46 46.4301C188.46 46.9601 188.72 47.3001 189.31 47.3001C189.57 47.3001 189.83 47.2801 190.03 47.2301L189.96 48.4501C189.68 48.5401 189.22 48.6201 188.78 48.6201C187.42 48.6201 186.9 47.7901 186.9 46.8901C186.9 46.3701 186.96 45.8601 187.08 45.2101L187.96 40.6901H186.67L186.91 39.4901H188.18L188.49 37.8501L190.09 37.3501L190.11 37.3401Z" fill="white"/>
<path d="M200.14 47.89C199.48 48.28 198.39 48.61 197.19 48.61C194.83 48.61 193.8 46.99 193.8 45.02C193.8 42.33 195.79 39.29 198.67 39.29C200.37 39.29 201.29 40.3 201.29 41.58C201.29 43.92 198.65 44.55 195.35 44.49C195.28 44.88 195.33 45.71 195.53 46.19C195.88 46.98 196.6 47.39 197.52 47.39C198.57 47.39 199.36 47.06 199.92 46.76L200.14 47.9V47.89ZM199.81 41.6C199.81 40.88 199.26 40.48 198.45 40.48C196.99 40.48 195.91 41.9 195.54 43.3C197.94 43.32 199.82 43.01 199.82 41.62V41.6H199.81ZM201.49 35.76L199.04 38.4H197.84L199.66 35.76H201.48H201.49Z" fill="white"/>
<path d="M207.85 37.3401L207.44 39.4801H209.58L209.34 40.6801H207.2L206.37 45.0101C206.28 45.5101 206.2 45.9701 206.2 46.4301C206.2 46.9601 206.46 47.3001 207.05 47.3001C207.31 47.3001 207.57 47.2801 207.77 47.2301L207.7 48.4501C207.42 48.5401 206.96 48.6201 206.52 48.6201C205.16 48.6201 204.64 47.7901 204.64 46.8901C204.64 46.3701 204.7 45.8601 204.82 45.2101L205.7 40.6901H204.41L204.65 39.4901H205.92L206.23 37.8501L207.83 37.3501L207.85 37.3401Z" fill="white"/>
<path d="M211.52 48.4001L213.23 39.4801H214.76L213.05 48.4001H211.52ZM214.38 37.9501C213.86 37.9501 213.51 37.5401 213.51 36.9901C213.53 36.4001 213.97 35.9601 214.52 35.9601C215.07 35.9601 215.42 36.3701 215.42 36.9201C215.4 37.5301 214.98 37.9501 214.39 37.9501H214.37H214.38Z" fill="white"/>
<path d="M223.72 48.05C223.26 48.27 222.34 48.6 221.14 48.6C218.84 48.6 217.71 47.03 217.71 45.13C217.71 42.09 219.96 39.29 223.17 39.29C224 39.29 224.76 39.53 225.03 39.68L224.59 40.9C224.24 40.73 223.74 40.57 223.08 40.57C220.76 40.57 219.3 42.86 219.3 44.96C219.3 46.4 220.06 47.34 221.51 47.34C222.41 47.34 223.11 47.06 223.57 46.84L223.72 48.06V48.05Z" fill="white"/>
<path d="M232.87 48.4C232.87 47.87 232.96 47.02 233.07 46.1H233.03C232.05 47.94 230.84 48.61 229.56 48.61C227.99 48.61 227 47.36 227 45.66C227 42.56 229.29 39.28 233.17 39.28C234.02 39.28 234.96 39.43 235.57 39.63L234.67 44.28C234.38 45.83 234.25 47.41 234.28 48.41H232.86L232.87 48.4ZM233.87 40.62C233.65 40.56 233.32 40.49 232.8 40.49C230.5 40.49 228.62 42.9 228.6 45.37C228.6 46.37 228.95 47.34 230.13 47.34C231.4 47.34 232.91 45.68 233.36 43.3L233.88 40.61L233.87 40.62Z" fill="white"/>
<path d="M245.04 44.7501C244.43 44.7501 244.03 44.2701 244.03 43.6601C244.03 42.9801 244.53 42.4301 245.19 42.4301C245.82 42.4301 246.22 42.8901 246.22 43.5401C246.22 44.1901 245.74 44.7601 245.06 44.7601H245.04V44.7501Z" fill="white"/>
<path d="M256.96 35.9801H258.49L256.37 47.0801H261.38L261.12 48.4101H254.59L256.95 35.9901L256.96 35.9801Z" fill="white"/>
<path d="M270.4 48.4C270.4 47.87 270.49 47.02 270.6 46.1H270.56C269.58 47.94 268.37 48.61 267.09 48.61C265.52 48.61 264.53 47.36 264.53 45.66C264.53 42.56 266.82 39.28 270.7 39.28C271.55 39.28 272.49 39.43 273.1 39.63L272.2 44.28C271.91 45.83 271.78 47.41 271.81 48.41H270.39L270.4 48.4ZM271.4 40.62C271.18 40.56 270.85 40.49 270.33 40.49C268.03 40.49 266.15 42.9 266.13 45.37C266.13 46.37 266.48 47.34 267.66 47.34C268.93 47.34 270.44 45.68 270.89 43.3L271.41 40.61L271.4 40.62ZM273.11 35.75L270.64 38.39H269.44L271.26 35.75H273.1H273.11Z" fill="white"/>
<path d="M276.03 46.86C276.45 47.12 277.23 47.41 277.95 47.41C278.98 47.41 279.65 46.75 279.65 45.95C279.65 45.25 279.34 44.83 278.42 44.31C277.39 43.74 276.82 42.95 276.82 42.04C276.82 40.47 278.17 39.28 280.05 39.28C280.86 39.28 281.58 39.5 281.91 39.72L281.49 40.88C281.18 40.7 280.61 40.47 279.94 40.47C279.02 40.47 278.36 41.04 278.36 41.82C278.36 42.47 278.78 42.87 279.58 43.31C280.58 43.88 281.26 44.66 281.26 45.65C281.26 47.53 279.73 48.6 277.85 48.6C276.89 48.58 276.04 48.29 275.64 47.97L276.06 46.85L276.03 46.86Z" fill="white"/>
<path d="M291.11 47.89C290.45 48.28 289.36 48.61 288.16 48.61C285.8 48.61 284.77 46.99 284.77 45.02C284.77 42.33 286.76 39.29 289.64 39.29C291.34 39.29 292.26 40.3 292.26 41.58C292.26 43.92 289.62 44.55 286.32 44.49C286.25 44.88 286.3 45.71 286.5 46.19C286.85 46.98 287.57 47.39 288.49 47.39C289.54 47.39 290.33 47.06 290.89 46.76L291.11 47.9V47.89ZM290.78 41.6C290.78 40.88 290.23 40.48 289.42 40.48C287.96 40.48 286.88 41.9 286.51 43.3C288.91 43.32 290.79 43.01 290.79 41.62V41.6H290.78Z" fill="white"/>
<path d="M294.87 48.4L295.96 42.65C296.18 41.49 296.33 40.31 296.42 39.48H297.77C297.7 40.11 297.62 40.73 297.53 41.42H297.59C298.16 40.2 299.12 39.28 300.32 39.28C300.45 39.28 300.63 39.3 300.74 39.32L300.45 40.83C300.36 40.81 300.21 40.79 300.04 40.79C298.71 40.79 297.53 42.39 297.15 44.48L296.41 48.41H294.88L294.87 48.4Z" fill="white"/>
<path d="M154.44 21.3801L154.43 21.4901L154.35 22.3101L161.92 21.9201L162.23 21.9101L159.68 21.1101L154.44 21.3801Z" fill="white"/>
<path d="M149.85 28.37C149.85 28.37 149.83 28.36 149.82 28.35C149.8 28.34 149.77 28.32 149.75 28.31C149.73 28.3 149.7 28.28 149.68 28.27C149.68 28.27 149.67 28.26 149.66 28.25C149.66 28.25 149.64 28.24 149.63 28.23C149.63 28.23 149.62 28.23 149.61 28.22C149.61 28.22 149.6 28.21 149.59 28.2C149.59 28.2 149.57 28.19 149.56 28.18C149.56 28.18 149.55 28.17 149.54 28.16C149.52 28.14 149.5 28.13 149.48 28.11C149.46 28.09 149.44 28.08 149.42 28.06C149.4 28.04 149.39 28.03 149.37 28.01C149.37 28.01 149.35 27.99 149.34 27.98C149.33 27.97 149.31 27.95 149.3 27.94C149.29 27.93 149.27 27.91 149.26 27.9C149.25 27.88 149.23 27.87 149.22 27.86C149.21 27.84 149.19 27.83 149.18 27.81C149.15 27.78 149.13 27.75 149.1 27.72C149 27.6 148.92 27.47 148.85 27.33C148.64 26.94 148.51 26.49 148.48 26C148.48 25.98 148.48 25.97 148.48 25.95C148.47 25.68 148.48 25.42 148.53 25.16C148.58 24.9 148.65 24.65 148.75 24.4C148.85 24.16 148.98 23.93 149.14 23.71C149.14 23.7 149.16 23.69 149.16 23.67C149.31 23.47 149.47 23.29 149.65 23.14C149.83 22.98 150.03 22.84 150.24 22.73C150.44 22.63 150.65 22.55 150.86 22.5C150.93 22.48 151 22.47 151.07 22.46L151.58 22.43L151.67 21.5L148.52 21.66C148.27 21.7 148.03 21.77 147.8 21.88C147.57 21.98 147.35 22.12 147.15 22.29C146.95 22.46 146.76 22.65 146.6 22.87C146.44 23.09 146.3 23.33 146.19 23.58C146.08 23.83 146 24.09 145.96 24.36C145.91 24.63 145.9 24.9 145.91 25.18C145.93 25.46 145.98 25.72 146.05 25.97C146.13 26.22 146.24 26.45 146.37 26.67C146.51 26.88 146.67 27.08 146.85 27.24C146.91 27.29 146.97 27.34 147.04 27.39C147.04 27.39 147.05 27.39 147.05 27.4C147.11 27.44 147.17 27.48 147.24 27.52C147.24 27.52 147.26 27.53 147.27 27.54C147.29 27.55 147.32 27.57 147.34 27.58C147.36 27.59 147.39 27.61 147.41 27.62C147.42 27.62 147.44 27.63 147.45 27.64C147.46 27.64 147.47 27.65 147.48 27.66C147.54 27.69 147.61 27.72 147.68 27.74C147.69 27.74 147.7 27.74 147.71 27.75C147.73 27.75 147.76 27.77 147.78 27.77C147.8 27.77 147.83 27.78 147.85 27.79C147.83 27.79 147.8 27.78 147.78 27.77H147.76C148.21 27.91 148.76 28.08 149.29 28.25L150.29 28.56C150.29 28.56 150.27 28.56 150.26 28.56C150.25 28.56 150.24 28.56 150.23 28.55C150.2 28.55 150.18 28.53 150.16 28.52C150.13 28.51 150.11 28.5 150.09 28.49C150.07 28.49 150.06 28.48 150.04 28.47C150.03 28.47 150.02 28.46 150.01 28.46C149.95 28.43 149.88 28.4 149.82 28.36M147.93 27.83C147.93 27.83 147.92 27.83 147.91 27.83C147.93 27.83 147.94 27.83 147.96 27.84C147.96 27.84 147.94 27.84 147.93 27.84" fill="white"/>
<path d="M154.96 15.0801H155.06L158.21 14.9601C158.46 14.9201 158.7 14.8501 158.93 14.7401C159.16 14.6301 159.38 14.5001 159.58 14.3301C159.78 14.1601 159.97 13.9701 160.13 13.7401C160.29 13.5201 160.43 13.2801 160.54 13.0301C160.65 12.7801 160.72 12.5201 160.77 12.2501C160.82 11.9801 160.83 11.7101 160.82 11.4301C160.8 11.1501 160.75 10.8901 160.68 10.6401C160.6 10.3901 160.49 10.1601 160.36 9.94005C160.23 9.73005 160.06 9.53005 159.88 9.37005C159.85 9.34005 159.82 9.32005 159.79 9.29005C159.76 9.27005 159.73 9.24005 159.7 9.22005C159.7 9.22005 159.69 9.22005 159.68 9.21005C159.62 9.17005 159.56 9.13005 159.49 9.09005C159.49 9.09005 159.47 9.08005 159.46 9.07005C159.44 9.06005 159.41 9.04005 159.39 9.03005C159.37 9.02005 159.34 9.01005 159.32 8.99005C159.31 8.99005 159.29 8.97005 159.28 8.97005C159.27 8.97005 159.26 8.97005 159.25 8.96005C159.19 8.93005 159.12 8.91005 159.06 8.88005C159.05 8.88005 159.04 8.88005 159.03 8.87005C158.98 8.85005 158.93 8.84005 158.88 8.83005C158.85 8.83005 158.82 8.81005 158.78 8.80005C158.73 8.79005 158.69 8.78005 158.64 8.78005C158.63 8.78005 158.61 8.78005 158.6 8.78005C158.6 8.78005 158.04 8.76005 157.54 8.97005C157.57 9.00005 157.59 9.03005 157.61 9.06005C157.61 9.07005 157.63 9.08005 157.63 9.09005C157.63 9.10005 157.65 9.12005 157.66 9.13005C157.68 9.17005 157.71 9.20005 157.73 9.24005C157.75 9.27005 157.77 9.31005 157.79 9.34005C157.79 9.36005 157.81 9.37005 157.82 9.39005C157.82 9.40005 157.83 9.41005 157.84 9.43005C157.87 9.48005 157.89 9.54005 157.92 9.59005C157.92 9.59005 157.92 9.61005 157.93 9.62005C157.94 9.65005 157.95 9.68005 157.97 9.70005C157.97 9.72005 157.99 9.75005 158 9.77005C158 9.78005 158 9.79005 158.01 9.81005C158.03 9.87005 158.05 9.93005 158.07 9.99005C158.07 10.0001 158.07 10.0201 158.08 10.0301C158.08 10.0501 158.09 10.0801 158.1 10.1001C158.1 10.1301 158.11 10.1701 158.12 10.2001C158.12 10.2001 158.12 10.2201 158.12 10.2301C158.13 10.2901 158.14 10.3601 158.15 10.4201C158.15 10.4401 158.15 10.4501 158.15 10.4701C158.15 10.5401 158.17 10.6001 158.17 10.6701C158.22 11.4701 157.98 12.2601 157.51 12.9001C157.04 13.5401 156.38 13.9601 155.66 14.0701L155.16 14.0901H155.06L152.52 14.1901H152.42L148.07 14.3601V14.4701L147.98 15.2501V15.3601L152.32 15.1901H152.42L154.96 15.0901V15.0801Z" fill="white"/>
<path d="M152.4 1.68002C152.4 1.68002 152.31 1.66002 152.26 1.65002H152.24C152.24 1.65002 152.23 1.65002 152.22 1.65002C152.2 1.65002 152.19 1.65002 152.17 1.65002C152.17 1.65002 151.66 1.65002 151.16 1.84002C151.54 2.30002 151.76 2.89002 151.8 3.54002C151.85 4.34002 151.61 5.13002 151.14 5.77002C150.66 6.41002 150.01 6.83002 149.29 6.94002L148.79 6.97002V7.08002L148.7 7.90002V8.01002L151.84 7.85002C152.09 7.81002 152.33 7.74002 152.56 7.63002C152.79 7.52002 153.01 7.39002 153.21 7.22002C153.41 7.05002 153.6 6.86002 153.76 6.63002C153.92 6.41002 154.06 6.17002 154.17 5.92002C154.28 5.67002 154.36 5.41002 154.4 5.14002C154.45 4.87002 154.46 4.60002 154.45 4.32002C154.43 4.04002 154.38 3.78002 154.31 3.53002C154.23 3.28002 154.12 3.05002 153.99 2.83002C153.85 2.62002 153.69 2.42002 153.51 2.26002C153.45 2.21002 153.39 2.16002 153.32 2.11002C153.32 2.11002 153.32 2.11002 153.3 2.10002C153.24 2.06002 153.18 2.01002 153.11 1.98002C153.11 1.98002 153.09 1.98002 153.08 1.97002C153.06 1.96002 153.03 1.94002 153.01 1.93002C152.99 1.92002 152.96 1.90002 152.94 1.89002C152.92 1.89002 152.91 1.87002 152.9 1.87002C152.9 1.87002 152.88 1.87002 152.87 1.86002C152.81 1.83002 152.74 1.81002 152.67 1.78002C152.66 1.78002 152.65 1.78002 152.64 1.77002C152.62 1.77002 152.59 1.75002 152.57 1.75002C152.55 1.75002 152.52 1.74002 152.5 1.73002C152.47 1.73002 152.44 1.71002 152.41 1.71002" fill="white"/>
<path d="M148.06 14.4601V14.3501L148.69 8.01007V7.90007L148.78 7.08007V6.97007L148.97 5.17007C148.92 4.37007 149.16 3.58007 149.63 2.94007C150.03 2.39007 150.57 2.01007 151.16 1.84007C151.66 1.64007 152.17 1.65007 152.17 1.65007C152.18 1.65007 152.2 1.65007 152.21 1.65007H152.23H152.25C152.3 1.65007 152.34 1.66007 152.39 1.68007C152.42 1.68007 152.45 1.70007 152.48 1.70007C152.51 1.70007 152.53 1.71007 152.55 1.72007C152.55 1.72007 152.56 1.72007 152.57 1.72007C152.47 1.69007 152.38 1.66007 152.27 1.63007L151.95 1.53007C151.74 1.46007 151.51 1.39007 151.29 1.32007C151.01 1.23007 150.73 1.14007 150.46 1.06007L150.04 0.930068C150.04 0.930068 150.06 0.930068 150.07 0.930068C150.08 0.930068 150.09 0.930068 150.1 0.940068C150.15 0.960068 150.2 0.980068 150.25 1.00007C150.27 1.00007 150.28 1.01007 150.29 1.02007C150.27 1.01007 150.24 1.00007 150.22 0.990068L149.79 0.860068C149.79 0.860068 149.72 0.850068 149.68 0.840068C149.65 0.840068 149.62 0.830068 149.59 0.830068C149.54 0.830068 149.48 0.820068 149.43 0.820068C149.4 0.820068 149.38 0.820068 149.35 0.820068C149.27 0.820068 149.19 0.820068 149.11 0.820068C149.09 0.820068 149.06 0.820068 149.04 0.820068C149.01 0.820068 148.99 0.820068 148.97 0.820068C148.94 0.820068 148.92 0.820068 148.89 0.820068C148.64 0.860068 148.4 0.930068 148.17 1.04007C147.94 1.15007 147.72 1.28007 147.52 1.45007C147.32 1.62007 147.13 1.81007 146.97 2.03007C146.81 2.25007 146.67 2.49007 146.56 2.74007C146.45 2.99007 146.38 3.25007 146.33 3.52007C146.28 3.79007 146.27 4.06007 146.28 4.33007L146.01 7.06007L145.92 7.99007V8.10007L145.29 14.4101L145.2 15.3101V15.4201L145.01 17.2101C145.1 18.7401 144.14 20.1601 142.82 20.5401C142.82 20.5401 142.74 20.5601 142.7 20.5701C142.73 20.6001 142.75 20.6301 142.78 20.6601C142.79 20.6801 142.81 20.6901 142.82 20.7101C142.83 20.7301 142.85 20.7401 142.86 20.7601C142.87 20.7701 142.89 20.7901 142.9 20.8001C142.91 20.8101 142.93 20.8301 142.94 20.8401C142.95 20.8401 142.96 20.8601 142.97 20.8701C142.99 20.8901 143 20.9001 143.02 20.9201C143.03 20.9201 143.04 20.9401 143.05 20.9501C143.06 20.9501 143.07 20.9701 143.08 20.9701C143.1 20.9901 143.12 21.0001 143.14 21.0201C143.14 21.0201 143.15 21.0301 143.16 21.0401C143.17 21.0501 143.19 21.0601 143.2 21.0801C143.2 21.0801 143.21 21.0801 143.22 21.0901C143.24 21.1001 143.26 21.1101 143.27 21.1301C143.29 21.1501 143.31 21.1601 143.33 21.1701C143.35 21.1801 143.37 21.2001 143.4 21.2101C143.4 21.2101 143.42 21.2201 143.43 21.2301C143.49 21.2701 143.56 21.3001 143.62 21.3301C143.63 21.3301 143.64 21.3301 143.65 21.3501C143.67 21.3601 143.7 21.3701 143.72 21.3801L144.15 21.5101C144.15 21.5101 144.18 21.5101 144.2 21.5201C144.22 21.5201 144.24 21.5201 144.25 21.5201C144.28 21.5201 144.31 21.5301 144.34 21.5401C144.39 21.5401 144.44 21.5401 144.5 21.5501C144.53 21.5501 144.55 21.5501 144.58 21.5501C144.66 21.5501 144.74 21.5501 144.82 21.5501C144.84 21.5501 144.87 21.5501 144.89 21.5501C144.91 21.5501 144.94 21.5501 144.96 21.5501C144.99 21.5501 145.01 21.5501 145.04 21.5501C145.29 21.5101 145.53 21.4401 145.76 21.3301C145.99 21.2201 146.21 21.0901 146.41 20.9201C146.61 20.7501 146.8 20.5601 146.96 20.3301C147.12 20.1101 147.26 19.8701 147.37 19.6201C147.48 19.3701 147.56 19.1101 147.6 18.8401C147.65 18.5701 147.66 18.3001 147.65 18.0301L147.91 15.3501H147.92V15.2401L148 14.4601H148.06Z" fill="white"/>
<path d="M146.05 7.1001L137.74 7.5301V7.6401L140.29 8.4301L145.95 8.1401L145.96 8.0301L146.05 7.1001Z" fill="white"/>
<path d="M143.49 21.2601C143.49 21.2601 143.47 21.2501 143.46 21.2401C143.44 21.2301 143.41 21.2101 143.39 21.2001C143.37 21.1901 143.34 21.1701 143.32 21.1601C143.3 21.1501 143.29 21.1401 143.27 21.1301C143.27 21.1301 143.26 21.1301 143.25 21.1201C143.23 21.1101 143.22 21.1001 143.2 21.0801C143.2 21.0801 143.19 21.0701 143.18 21.0601C143.16 21.0401 143.14 21.0301 143.12 21.0101C143.12 21.0101 143.1 20.9901 143.09 20.9901C143.09 20.9901 143.07 20.9701 143.06 20.9601C143.04 20.9401 143.03 20.9301 143.01 20.9101C143.01 20.9101 142.99 20.8901 142.98 20.8801C142.97 20.8701 142.95 20.8501 142.94 20.8401C142.93 20.8201 142.91 20.8101 142.9 20.8001C142.89 20.7801 142.87 20.7701 142.86 20.7501C142.85 20.7301 142.83 20.7201 142.82 20.7001C142.79 20.6701 142.77 20.6401 142.74 20.6101C142.64 20.4901 142.56 20.3601 142.49 20.2201C142.28 19.8301 142.15 19.3801 142.12 18.8901C142.12 18.8701 142.12 18.8601 142.12 18.8401C142.11 18.5701 142.12 18.3101 142.17 18.0501C142.22 17.7901 142.29 17.5401 142.39 17.2901C142.49 17.0501 142.62 16.8201 142.78 16.6001C142.78 16.5901 142.8 16.5801 142.8 16.5701C142.95 16.3701 143.11 16.1901 143.29 16.0401C143.47 15.8801 143.67 15.7401 143.88 15.6401C144.08 15.5401 144.29 15.4601 144.5 15.4101C144.57 15.3901 144.64 15.3801 144.71 15.3701L145.22 15.3501L145.31 14.4501L142.16 14.5701C141.91 14.6101 141.67 14.6801 141.44 14.7901C141.21 14.9001 140.99 15.0301 140.79 15.2001C140.59 15.3701 140.4 15.5601 140.24 15.7901C140.08 16.0101 139.94 16.2501 139.83 16.5001C139.72 16.7501 139.64 17.0101 139.6 17.2801C139.55 17.5501 139.54 17.8201 139.55 18.1001C139.57 18.3801 139.62 18.6401 139.69 18.8901C139.77 19.1401 139.88 19.3701 140.01 19.5901C140.15 19.8001 140.31 20.0001 140.49 20.1601C140.55 20.2101 140.61 20.2601 140.67 20.3101C140.67 20.3101 140.68 20.3101 140.69 20.3201C140.75 20.3601 140.81 20.4001 140.88 20.4401C140.88 20.4401 140.9 20.4501 140.91 20.4601C140.93 20.4801 140.96 20.4901 140.98 20.5001C141 20.5101 141.03 20.5301 141.05 20.5401C141.06 20.5401 141.08 20.5501 141.09 20.5601C141.1 20.5601 141.11 20.5701 141.12 20.5701C141.18 20.6001 141.25 20.6301 141.32 20.6501C141.32 20.6501 141.34 20.6501 141.35 20.6601C141.4 20.6801 141.45 20.6901 141.49 20.7001C141.46 20.7001 141.43 20.6901 141.4 20.6801L141.57 20.7301C141.57 20.7301 141.66 20.7601 141.7 20.7701L141.94 20.8401C142 20.8601 142.05 20.8801 142.11 20.8901H142.15L142.53 21.0201C142.66 21.0601 142.8 21.1001 142.93 21.1401L143.07 21.1801C143.07 21.1801 143.16 21.2101 143.2 21.2201L143.46 21.3001L143.71 21.3801L143.92 21.4501C143.92 21.4501 143.91 21.4501 143.9 21.4501C143.89 21.4501 143.88 21.4501 143.87 21.4401C143.85 21.4401 143.83 21.4201 143.81 21.4201C143.78 21.4101 143.75 21.4001 143.72 21.3901C143.71 21.3901 143.69 21.3801 143.67 21.3701C143.66 21.3701 143.65 21.3601 143.64 21.3501C143.58 21.3201 143.51 21.2901 143.45 21.2501" fill="white"/>
<path d="M157.58 8.41006C157.34 8.34006 157.1 8.26006 156.87 8.19006L156.4 8.04006C156.4 8.04006 156.43 8.05006 156.45 8.06006C156.46 8.06006 156.47 8.06006 156.48 8.07006C156.5 8.07006 156.53 8.09006 156.55 8.10006C156.58 8.10006 156.6 8.12006 156.63 8.13006H156.6L156.17 7.99006C156.13 7.99006 156.1 7.98006 156.06 7.97006C156.03 7.97006 156 7.96006 155.97 7.95006C155.92 7.95006 155.87 7.95006 155.81 7.94006C155.78 7.94006 155.76 7.94006 155.73 7.94006C155.65 7.94006 155.57 7.94006 155.49 7.94006C155.47 7.94006 155.44 7.94006 155.42 7.94006C155.4 7.94006 155.37 7.94006 155.35 7.94006C155.32 7.94006 155.3 7.94006 155.27 7.94006C155.02 7.98006 154.78 8.05006 154.55 8.16006C154.32 8.27006 154.1 8.40006 153.9 8.57006C153.7 8.74006 153.51 8.93006 153.35 9.15006C153.19 9.37006 153.05 9.61006 152.94 9.86006C152.83 10.1101 152.75 10.3701 152.71 10.6401C152.66 10.9101 152.65 11.1801 152.66 11.4501L152.4 14.1201L152.17 16.4501L151.68 21.4801L151.59 22.4101V22.5201L151.4 24.3201C151.49 25.8401 150.53 27.2701 149.2 27.6501C149.2 27.6501 149.12 27.6701 149.09 27.6801C149.11 27.7101 149.14 27.7401 149.17 27.7701C149.18 27.7901 149.2 27.8001 149.21 27.8201C149.22 27.8401 149.24 27.8501 149.25 27.8601C149.26 27.8701 149.28 27.8901 149.29 27.9001C149.3 27.9201 149.32 27.9301 149.33 27.9401C149.33 27.9401 149.35 27.9601 149.36 27.9701C149.38 27.9901 149.39 28.0001 149.41 28.0201C149.43 28.0401 149.45 28.0501 149.47 28.0701C149.49 28.0901 149.51 28.1001 149.53 28.1201C149.53 28.1201 149.54 28.1301 149.55 28.1401C149.55 28.1401 149.56 28.1501 149.57 28.1601C149.57 28.1601 149.58 28.1701 149.59 28.1801C149.59 28.1801 149.6 28.1801 149.6 28.1901C149.6 28.1901 149.62 28.2001 149.63 28.2101C149.63 28.2101 149.65 28.2201 149.66 28.2301C149.68 28.2401 149.7 28.2601 149.72 28.2701C149.74 28.2801 149.76 28.3001 149.79 28.3101C149.79 28.3101 149.81 28.3201 149.82 28.3301C149.88 28.3701 149.95 28.4001 150.01 28.4301C150.02 28.4301 150.03 28.4301 150.04 28.4401C150.06 28.4501 150.09 28.4601 150.11 28.4701L150.54 28.6001C150.54 28.6001 150.57 28.6001 150.59 28.6101C150.61 28.6101 150.63 28.6101 150.64 28.6101C150.67 28.6101 150.7 28.6201 150.73 28.6301C150.78 28.6301 150.83 28.6301 150.89 28.6401C150.92 28.6401 150.94 28.6401 150.97 28.6401C151.05 28.6401 151.13 28.6401 151.21 28.6401C151.23 28.6401 151.26 28.6401 151.28 28.6401C151.3 28.6401 151.33 28.6401 151.35 28.6401C151.38 28.6401 151.4 28.6401 151.43 28.6401C151.68 28.6001 151.92 28.5301 152.15 28.4201C152.38 28.3101 152.6 28.1801 152.8 28.0101C153 27.8401 153.19 27.6501 153.35 27.4201C153.51 27.2001 153.65 26.9601 153.76 26.7101C153.87 26.4601 153.95 26.2001 153.99 25.9301C154.04 25.6601 154.05 25.3901 154.04 25.1201L154.32 22.2801L154.4 21.4601V21.3501L154.92 16.1601L155.13 14.0301L155.21 13.2101V13.1801L155.3 12.2401C155.25 11.4401 155.49 10.6501 155.96 10.0101C156.36 9.46006 156.9 9.08006 157.49 8.91006C157.99 8.71006 158.55 8.72006 158.55 8.72006C158.55 8.72006 158.58 8.72006 158.6 8.72006C158.65 8.72006 158.69 8.73006 158.74 8.74006C158.77 8.74006 158.8 8.76006 158.84 8.77006C158.87 8.77006 158.9 8.78006 158.93 8.79006L157.55 8.36006L157.58 8.41006Z" fill="white"/>
</g>
<defs>
<clipPath id="clip0_340_522">
<rect width="318.04" height="55.78" fill="white" transform="translate(0 0.560059)"/>
</clipPath>
</defs>
</svg>
