<svg width="319" height="56" viewBox="0 0 319 56" fill="none" xmlns="http://www.w3.org/2000/svg">
<path d="M8.26003 14.6H13.92V9.46997H15.9V22.59H13.92V16.46H8.26003V22.59H6.28003V9.46997H8.26003V14.6Z" fill="#76777A"/>
<path d="M38.13 19.4H32.51L31.05 22.59H28.92L35.41 8.64001L41.67 22.59H39.5L38.12 19.4H38.13ZM37.32 17.54L35.37 13.08L33.33 17.54H37.32Z" fill="#76777A"/>
<path d="M59.13 17L63.19 22.59H60.77L57.02 17.22H56.66V22.59H54.68V9.46997H57C58.73 9.46997 59.99 9.78997 60.76 10.45C61.61 11.18 62.04 12.13 62.04 13.32C62.04 14.25 61.77 15.05 61.24 15.72C60.71 16.39 60 16.82 59.13 17ZM56.66 15.49H57.29C59.17 15.49 60.1 14.77 60.1 13.34C60.1 12 59.19 11.33 57.36 11.33H56.65V15.5L56.66 15.49Z" fill="#76777A"/>
<path d="M78.35 14.7L83.45 9.45996H86.1L80.17 15.41L86.13 22.59H83.48L78.75 16.75L78.35 17.16V22.59H76.36V9.45996H78.35V14.7Z" fill="#76777A"/>
<path d="M106.44 11.33H101.18V14.48H106.29V16.34H101.18V20.73H106.44V22.59H99.2V9.46997H106.44V11.33Z" fill="#76777A"/>
<path d="M124.86 17L128.92 22.59H126.5L122.75 17.22H122.39V22.59H120.41V9.46997H122.73C124.46 9.46997 125.72 9.78997 126.49 10.45C127.34 11.18 127.77 12.13 127.77 13.32C127.77 14.25 127.5 15.05 126.97 15.72C126.44 16.39 125.73 16.82 124.86 17ZM122.39 15.49H123.02C124.9 15.49 125.83 14.77 125.83 13.34C125.83 12 124.92 11.33 123.09 11.33H122.38V15.5L122.39 15.49Z" fill="#76777A"/>
<path d="M173.45 9.46997V20.73H177.31V22.59H171.47V9.46997H173.45Z" fill="#76777A"/>
<path d="M190.67 9.46997V20.73H194.53V22.59H188.69V9.46997H190.67Z" fill="#76777A"/>
<path d="M204.75 15.97C204.75 14.12 205.43 12.54 206.78 11.21C208.13 9.87997 209.75 9.21997 211.64 9.21997C213.53 9.21997 215.11 9.88997 216.45 11.22C217.79 12.56 218.46 14.16 218.46 16.04C218.46 17.92 217.79 19.53 216.44 20.84C215.09 22.16 213.45 22.82 211.54 22.82C209.84 22.82 208.32 22.23 206.97 21.06C205.49 19.76 204.74 18.06 204.74 15.96M206.74 15.98C206.74 17.43 207.23 18.62 208.2 19.56C209.17 20.49 210.29 20.96 211.56 20.96C212.94 20.96 214.1 20.48 215.05 19.53C216 18.57 216.47 17.39 216.47 16.01C216.47 14.63 216 13.44 215.07 12.49C214.14 11.54 212.99 11.06 211.62 11.06C210.25 11.06 209.1 11.54 208.16 12.49C207.22 13.43 206.75 14.59 206.75 15.97" fill="#76777A"/>
<path d="M234.99 17L239.05 22.59H236.63L232.88 17.22H232.52V22.59H230.54V9.46997H232.86C234.59 9.46997 235.85 9.78997 236.62 10.45C237.47 11.18 237.9 12.13 237.9 13.32C237.9 14.25 237.63 15.05 237.1 15.72C236.56 16.39 235.86 16.82 234.99 17ZM232.52 15.49H233.15C235.03 15.49 235.96 14.77 235.96 13.34C235.96 12 235.05 11.33 233.22 11.33H232.51V15.5L232.52 15.49Z" fill="#76777A"/>
<path d="M257.73 11.33H252.46V14.48H257.57V16.34H252.46V20.73H257.73V22.59H250.48V9.46997H257.73V11.33Z" fill="#76777A"/>
<path d="M269.95 22.59V9.46997H272.7C274.02 9.46997 275.06 9.59997 275.83 9.85997C276.65 10.12 277.4 10.55 278.07 11.16C279.43 12.4 280.1 14.02 280.1 16.03C280.1 18.04 279.39 19.68 277.98 20.93C277.27 21.55 276.53 21.99 275.75 22.23C275.02 22.47 273.99 22.59 272.66 22.59H269.94H269.95ZM271.93 20.73H272.82C273.71 20.73 274.45 20.64 275.04 20.45C275.63 20.25 276.16 19.94 276.64 19.51C277.61 18.62 278.1 17.46 278.1 16.03C278.1 14.6 277.62 13.42 276.65 12.53C275.78 11.73 274.51 11.33 272.82 11.33H271.93V20.73Z" fill="#76777A"/>
<path d="M299.22 19.4H293.6L292.14 22.59H290.01L296.5 8.64001L302.76 22.59H300.59L299.21 19.4H299.22ZM298.41 17.54L296.46 13.08L294.42 17.54H298.41Z" fill="#76777A"/>
<path d="M16.1 47.44C15.4 47.75 14.28 48.05 12.87 48.05C9.74003 48.05 7.84003 46.06 7.84003 42.89C7.84003 40.55 8.78003 38.32 10.49 36.9C11.76 35.81 13.35 35.22 15.17 35.22C16.55 35.22 17.53 35.57 17.86 35.83L17.36 37.07C16.9 36.79 16.01 36.55 14.91 36.55C13.62 36.55 12.31 37.05 11.35 37.95C10.19 39.04 9.45003 40.79 9.45003 42.67C9.45003 44.9 10.46 46.72 13.23 46.72C14.17 46.72 15.2 46.54 15.88 46.19L16.08 47.44H16.1Z" fill="#76777A"/>
<path d="M19.51 47.84L21.22 38.92H22.75L21.04 47.84H19.51ZM22.37 37.39C21.85 37.39 21.5 36.98 21.5 36.43C21.52 35.84 21.96 35.4 22.51 35.4C23.06 35.4 23.41 35.81 23.41 36.36C23.39 36.97 22.97 37.39 22.38 37.39H22.36H22.37Z" fill="#76777A"/>
<path d="M25.58 47.84L26.67 42.09C26.89 40.93 27.04 39.75 27.13 38.92H28.48C28.41 39.55 28.33 40.17 28.24 40.86H28.3C28.87 39.64 29.83 38.72 31.03 38.72C31.16 38.72 31.34 38.74 31.45 38.76L31.16 40.27C31.07 40.25 30.92 40.23 30.75 40.23C29.42 40.23 28.24 41.83 27.86 43.92L27.12 47.85H25.59L25.58 47.84Z" fill="#76777A"/>
<path d="M41.96 38.92L40.76 45.24C40.58 46.24 40.45 47.1 40.35 47.84H38.97L39.21 46.16H39.17C38.38 47.32 37.2 48.04 36.02 48.04C34.84 48.04 33.68 47.49 33.68 45.46C33.68 45.04 33.74 44.56 33.85 43.97L34.81 38.92H36.34L35.4 43.9C35.29 44.4 35.23 44.82 35.23 45.21C35.23 46.13 35.62 46.76 36.67 46.76C37.78 46.76 39.2 45.47 39.56 43.5L40.43 38.93H41.96V38.92Z" fill="#76777A"/>
<path d="M44.82 49.87C45.35 50.2 46.24 50.46 47.18 50.46C48.67 50.46 49.85 49.69 50.39 47.27L50.68 45.94H50.62C49.85 47.21 48.76 47.84 47.52 47.84C45.73 47.84 44.81 46.33 44.81 44.74C44.79 41.72 47.02 38.71 50.47 38.71C51.5 38.71 52.63 39 53.33 39.34L51.97 46.71C51.6 48.59 51.1 49.9 50.16 50.69C49.28 51.46 48.08 51.69 47.05 51.69C45.96 51.69 44.95 51.43 44.38 51.06L44.82 49.86V49.87ZM51.66 40.25C51.38 40.12 50.83 39.96 50.19 39.96C47.96 39.96 46.43 42.28 46.41 44.49C46.41 45.47 46.76 46.63 48.12 46.63C49.48 46.63 50.77 44.97 51.09 43.22L51.66 40.25Z" fill="#76777A"/>
<path d="M56.23 47.84L57.94 38.9199H59.47L57.76 47.84H56.23ZM61.67 35.2L59.22 37.84H58.02L59.83 35.2H61.67Z" fill="#76777A"/>
<path d="M68.22 47.84C68.22 47.31 68.31 46.46 68.42 45.54H68.38C67.4 47.38 66.19 48.05 64.91 48.05C63.34 48.05 62.35 46.8 62.35 45.1C62.35 42 64.64 38.72 68.52 38.72C69.37 38.72 70.31 38.87 70.92 39.07L70.02 43.72C69.73 45.27 69.6 46.85 69.63 47.85H68.21L68.22 47.84ZM69.22 40.06C69 40 68.67 39.93 68.15 39.93C65.85 39.93 63.97 42.34 63.95 44.81C63.95 45.81 64.3 46.78 65.48 46.78C66.75 46.78 68.26 45.12 68.71 42.74L69.23 40.05L69.22 40.06Z" fill="#76777A"/>
<path d="M81.36 35.5999C82.06 35.4299 83.04 35.3199 84.05 35.3199C85.25 35.3199 86.39 35.6099 87.09 36.2799C87.68 36.8299 87.99 37.5499 87.99 38.5299C87.99 39.9299 87.31 41.0899 86.5 41.7699C85.54 42.5599 84.14 42.9499 82.74 42.9499C82.28 42.9499 81.86 42.9099 81.47 42.8599L80.53 47.8399H79.02L81.36 35.5999ZM81.71 41.5699C82.15 41.6599 82.5 41.6999 82.94 41.6999C85.04 41.6999 86.44 40.3899 86.44 38.6399C86.44 37.1699 85.39 36.5799 83.97 36.5799C83.36 36.5799 82.9 36.6399 82.62 36.7099L81.7 41.5799L81.71 41.5699Z" fill="#76777A"/>
<path d="M90.08 47.84L92.57 34.75H94.1L91.59 47.84H90.08Z" fill="#76777A"/>
<path d="M102.05 47.8399C102.05 47.3099 102.14 46.4599 102.25 45.5399H102.21C101.23 47.3799 100.02 48.0499 98.74 48.0499C97.17 48.0499 96.18 46.7999 96.18 45.0999C96.18 41.9999 98.47 38.7199 102.35 38.7199C103.2 38.7199 104.14 38.8699 104.75 39.0699L103.85 43.7199C103.56 45.2699 103.43 46.8499 103.46 47.8499H102.04L102.05 47.8399ZM103.05 40.0599C102.83 39.9999 102.5 39.9299 101.98 39.9299C99.68 39.9299 97.8 42.3399 97.78 44.8099C97.78 45.8099 98.13 46.7799 99.31 46.7799C100.58 46.7799 102.09 45.1199 102.54 42.7399L103.06 40.0499L103.05 40.0599ZM104.76 35.1899L102.29 37.8299H101.09L102.91 35.1899H104.75H104.76Z" fill="#76777A"/>
<path d="M107.67 46.3C108.09 46.56 108.87 46.85 109.59 46.85C110.62 46.85 111.29 46.19 111.29 45.39C111.29 44.69 110.98 44.27 110.06 43.75C109.03 43.18 108.46 42.39 108.46 41.48C108.46 39.91 109.81 38.72 111.69 38.72C112.5 38.72 113.22 38.94 113.55 39.16L113.13 40.32C112.82 40.14 112.25 39.91 111.58 39.91C110.66 39.91 110 40.48 110 41.26C110 41.91 110.42 42.31 111.22 42.75C112.22 43.32 112.9 44.1 112.9 45.09C112.9 46.97 111.37 48.04 109.49 48.04C108.53 48.02 107.68 47.73 107.28 47.41L107.7 46.29L107.67 46.3Z" fill="#76777A"/>
<path d="M120.26 36.78L119.85 38.92H121.99L121.75 40.12H119.61L118.78 44.45C118.69 44.95 118.61 45.41 118.61 45.87C118.61 46.4 118.87 46.74 119.46 46.74C119.72 46.74 119.98 46.72 120.18 46.67L120.11 47.89C119.83 47.98 119.37 48.06 118.93 48.06C117.57 48.06 117.05 47.23 117.05 46.33C117.05 45.81 117.11 45.3 117.23 44.65L118.11 40.13H116.82L117.06 38.93H118.33L118.64 37.29L120.24 36.79L120.26 36.78Z" fill="#76777A"/>
<path d="M123.93 47.84L125.64 38.92H127.17L125.46 47.84H123.93ZM126.79 37.39C126.27 37.39 125.92 36.98 125.92 36.43C125.94 35.84 126.38 35.4 126.93 35.4C127.48 35.4 127.83 35.81 127.83 36.36C127.81 36.97 127.39 37.39 126.8 37.39H126.78H126.79Z" fill="#76777A"/>
<path d="M136.13 47.49C135.67 47.71 134.75 48.04 133.55 48.04C131.25 48.04 130.12 46.47 130.12 44.57C130.12 41.53 132.37 38.73 135.58 38.73C136.41 38.73 137.17 38.97 137.44 39.12L137 40.34C136.65 40.17 136.15 40.01 135.49 40.01C133.17 40.01 131.71 42.3 131.71 44.4C131.71 45.84 132.47 46.78 133.92 46.78C134.82 46.78 135.52 46.5 135.98 46.28L136.13 47.5V47.49Z" fill="#76777A"/>
<path d="M145.28 47.84C145.28 47.31 145.37 46.46 145.48 45.54H145.44C144.46 47.38 143.25 48.05 141.97 48.05C140.4 48.05 139.41 46.8 139.41 45.1C139.41 42 141.7 38.72 145.58 38.72C146.43 38.72 147.37 38.87 147.98 39.07L147.08 43.72C146.79 45.27 146.66 46.85 146.69 47.85H145.27L145.28 47.84ZM146.28 40.06C146.06 40 145.73 39.93 145.21 39.93C142.91 39.93 141.03 42.34 141.01 44.81C141.01 45.81 141.36 46.78 142.54 46.78C143.81 46.78 145.32 45.12 145.77 42.74L146.29 40.05L146.28 40.06Z" fill="#76777A"/>
<path d="M157.45 44.19C156.84 44.19 156.44 43.71 156.44 43.1C156.44 42.42 156.94 41.87 157.6 41.87C158.23 41.87 158.63 42.33 158.63 42.98C158.63 43.63 158.15 44.2 157.47 44.2H157.45V44.19Z" fill="#76777A"/>
<path d="M174.15 42H169.63L168.78 46.53H173.87L173.61 47.84H166.99L169.35 35.42H175.69L175.43 36.73H170.64L169.88 40.71H174.4L174.14 42H174.15Z" fill="#76777A"/>
<path d="M177.52 46.3C177.94 46.56 178.72 46.85 179.44 46.85C180.47 46.85 181.14 46.19 181.14 45.39C181.14 44.69 180.83 44.27 179.91 43.75C178.88 43.18 178.31 42.39 178.31 41.48C178.31 39.91 179.66 38.72 181.54 38.72C182.35 38.72 183.07 38.94 183.4 39.16L182.98 40.32C182.67 40.14 182.1 39.91 181.43 39.91C180.51 39.91 179.85 40.48 179.85 41.26C179.85 41.91 180.27 42.31 181.07 42.75C182.07 43.32 182.75 44.1 182.75 45.09C182.75 46.97 181.22 48.04 179.34 48.04C178.38 48.02 177.53 47.73 177.13 47.41L177.55 46.29L177.52 46.3Z" fill="#76777A"/>
<path d="M190.11 36.78L189.7 38.92H191.84L191.6 40.12H189.46L188.63 44.45C188.54 44.95 188.46 45.41 188.46 45.87C188.46 46.4 188.72 46.74 189.31 46.74C189.57 46.74 189.83 46.72 190.03 46.67L189.96 47.89C189.68 47.98 189.22 48.06 188.78 48.06C187.42 48.06 186.9 47.23 186.9 46.33C186.9 45.81 186.96 45.3 187.08 44.65L187.96 40.13H186.67L186.91 38.93H188.18L188.49 37.29L190.09 36.79L190.11 36.78Z" fill="#76777A"/>
<path d="M200.14 47.33C199.48 47.72 198.39 48.0499 197.19 48.0499C194.83 48.0499 193.8 46.4299 193.8 44.4599C193.8 41.7699 195.79 38.7299 198.67 38.7299C200.37 38.7299 201.29 39.74 201.29 41.02C201.29 43.36 198.65 43.99 195.35 43.93C195.28 44.32 195.33 45.15 195.53 45.63C195.88 46.42 196.6 46.83 197.52 46.83C198.57 46.83 199.36 46.5 199.92 46.2L200.14 47.34V47.33ZM199.81 41.04C199.81 40.32 199.26 39.9199 198.45 39.9199C196.99 39.9199 195.91 41.34 195.54 42.74C197.94 42.76 199.82 42.45 199.82 41.06V41.04H199.81ZM201.49 35.2L199.04 37.84H197.84L199.66 35.2H201.48H201.49Z" fill="#76777A"/>
<path d="M207.85 36.78L207.44 38.92H209.58L209.34 40.12H207.2L206.37 44.45C206.28 44.95 206.2 45.41 206.2 45.87C206.2 46.4 206.46 46.74 207.05 46.74C207.31 46.74 207.57 46.72 207.77 46.67L207.7 47.89C207.42 47.98 206.96 48.06 206.52 48.06C205.16 48.06 204.64 47.23 204.64 46.33C204.64 45.81 204.7 45.3 204.82 44.65L205.7 40.13H204.41L204.65 38.93H205.92L206.23 37.29L207.83 36.79L207.85 36.78Z" fill="#76777A"/>
<path d="M211.52 47.84L213.23 38.92H214.76L213.05 47.84H211.52ZM214.38 37.39C213.86 37.39 213.51 36.98 213.51 36.43C213.53 35.84 213.97 35.4 214.52 35.4C215.07 35.4 215.42 35.81 215.42 36.36C215.4 36.97 214.98 37.39 214.39 37.39H214.37H214.38Z" fill="#76777A"/>
<path d="M223.72 47.49C223.26 47.71 222.34 48.04 221.14 48.04C218.84 48.04 217.71 46.47 217.71 44.57C217.71 41.53 219.96 38.73 223.17 38.73C224 38.73 224.76 38.97 225.03 39.12L224.59 40.34C224.24 40.17 223.74 40.01 223.08 40.01C220.76 40.01 219.3 42.3 219.3 44.4C219.3 45.84 220.06 46.78 221.51 46.78C222.41 46.78 223.11 46.5 223.57 46.28L223.72 47.5V47.49Z" fill="#76777A"/>
<path d="M232.87 47.84C232.87 47.31 232.96 46.46 233.07 45.54H233.03C232.05 47.38 230.84 48.05 229.56 48.05C227.99 48.05 227 46.8 227 45.1C227 42 229.29 38.72 233.17 38.72C234.02 38.72 234.96 38.87 235.57 39.07L234.67 43.72C234.38 45.27 234.25 46.85 234.28 47.85H232.86L232.87 47.84ZM233.87 40.06C233.65 40 233.32 39.93 232.8 39.93C230.5 39.93 228.62 42.34 228.6 44.81C228.6 45.81 228.95 46.78 230.13 46.78C231.4 46.78 232.91 45.12 233.36 42.74L233.88 40.05L233.87 40.06Z" fill="#76777A"/>
<path d="M245.04 44.19C244.43 44.19 244.03 43.71 244.03 43.1C244.03 42.42 244.53 41.87 245.19 41.87C245.82 41.87 246.22 42.33 246.22 42.98C246.22 43.63 245.74 44.2 245.06 44.2H245.04V44.19Z" fill="#76777A"/>
<path d="M256.96 35.42H258.49L256.37 46.52H261.38L261.12 47.85H254.59L256.95 35.43L256.96 35.42Z" fill="#76777A"/>
<path d="M270.4 47.8399C270.4 47.3099 270.49 46.4599 270.6 45.5399H270.56C269.58 47.3799 268.37 48.0499 267.09 48.0499C265.52 48.0499 264.53 46.7999 264.53 45.0999C264.53 41.9999 266.82 38.7199 270.7 38.7199C271.55 38.7199 272.49 38.8699 273.1 39.0699L272.2 43.7199C271.91 45.2699 271.78 46.8499 271.81 47.8499H270.39L270.4 47.8399ZM271.4 40.0599C271.18 39.9999 270.85 39.9299 270.33 39.9299C268.03 39.9299 266.15 42.3399 266.13 44.8099C266.13 45.8099 266.48 46.7799 267.66 46.7799C268.93 46.7799 270.44 45.1199 270.89 42.7399L271.41 40.0499L271.4 40.0599ZM273.11 35.1899L270.64 37.8299H269.44L271.26 35.1899H273.1H273.11Z" fill="#76777A"/>
<path d="M276.03 46.3C276.45 46.56 277.23 46.85 277.95 46.85C278.98 46.85 279.65 46.19 279.65 45.39C279.65 44.69 279.34 44.27 278.42 43.75C277.39 43.18 276.82 42.39 276.82 41.48C276.82 39.91 278.17 38.72 280.05 38.72C280.86 38.72 281.58 38.94 281.91 39.16L281.49 40.32C281.18 40.14 280.61 39.91 279.94 39.91C279.02 39.91 278.36 40.48 278.36 41.26C278.36 41.91 278.78 42.31 279.58 42.75C280.58 43.32 281.26 44.1 281.26 45.09C281.26 46.97 279.73 48.04 277.85 48.04C276.89 48.02 276.04 47.73 275.64 47.41L276.06 46.29L276.03 46.3Z" fill="#76777A"/>
<path d="M291.11 47.33C290.45 47.72 289.36 48.05 288.16 48.05C285.8 48.05 284.77 46.43 284.77 44.46C284.77 41.77 286.76 38.73 289.64 38.73C291.34 38.73 292.26 39.74 292.26 41.02C292.26 43.36 289.62 43.99 286.32 43.93C286.25 44.32 286.3 45.15 286.5 45.63C286.85 46.42 287.57 46.83 288.49 46.83C289.54 46.83 290.33 46.5 290.89 46.2L291.11 47.34V47.33ZM290.78 41.04C290.78 40.32 290.23 39.92 289.42 39.92C287.96 39.92 286.88 41.34 286.51 42.74C288.91 42.76 290.79 42.45 290.79 41.06V41.04H290.78Z" fill="#76777A"/>
<path d="M294.87 47.84L295.96 42.09C296.18 40.93 296.33 39.75 296.42 38.92H297.77C297.7 39.55 297.62 40.17 297.53 40.86H297.59C298.16 39.64 299.12 38.72 300.32 38.72C300.45 38.72 300.63 38.74 300.74 38.76L300.45 40.27C300.36 40.25 300.21 40.23 300.04 40.23C298.71 40.23 297.53 41.83 297.15 43.92L296.41 47.85H294.88L294.87 47.84Z" fill="#76777A"/>
<path d="M154.44 20.82L154.43 20.93L154.35 21.75L161.92 21.3601L162.23 21.35L159.68 20.55L154.44 20.82Z" fill="#335C82"/>
<path d="M149.85 27.8099C149.85 27.8099 149.83 27.7999 149.82 27.7899C149.8 27.7799 149.77 27.7599 149.75 27.7499C149.73 27.7399 149.7 27.7199 149.68 27.7099C149.68 27.7099 149.67 27.6999 149.66 27.6899C149.66 27.6899 149.64 27.6799 149.63 27.6699C149.63 27.6699 149.62 27.6699 149.61 27.6599C149.61 27.6599 149.6 27.6499 149.59 27.6399C149.59 27.6399 149.57 27.6299 149.56 27.6199C149.56 27.6199 149.55 27.6099 149.54 27.5999C149.52 27.5799 149.5 27.5699 149.48 27.5499C149.46 27.5299 149.44 27.5199 149.42 27.4999C149.4 27.4799 149.39 27.4699 149.37 27.4499C149.37 27.4499 149.35 27.4299 149.34 27.4199C149.33 27.4099 149.31 27.3899 149.3 27.3799C149.29 27.3699 149.27 27.3499 149.26 27.3399C149.25 27.3199 149.23 27.3099 149.22 27.2999C149.21 27.2799 149.19 27.2699 149.18 27.2499C149.15 27.2199 149.13 27.1899 149.1 27.1599C149 27.0399 148.92 26.9099 148.85 26.7699C148.64 26.3799 148.51 25.9299 148.48 25.4399C148.48 25.4199 148.48 25.4099 148.48 25.3899C148.47 25.1199 148.48 24.8599 148.53 24.5999C148.58 24.3399 148.65 24.0899 148.75 23.8399C148.85 23.5999 148.98 23.3699 149.14 23.1499C149.14 23.1399 149.16 23.1299 149.16 23.1099C149.31 22.9099 149.47 22.7299 149.65 22.5799C149.83 22.4199 150.03 22.2799 150.24 22.1699C150.44 22.0699 150.65 21.9899 150.86 21.9399C150.93 21.9199 151 21.9099 151.07 21.8999L151.58 21.8699L151.67 20.9399L148.52 21.0999C148.27 21.1399 148.03 21.2099 147.8 21.3199C147.57 21.4199 147.35 21.5599 147.15 21.7299C146.95 21.8999 146.76 22.0899 146.6 22.3099C146.44 22.5299 146.3 22.7699 146.19 23.0199C146.08 23.2699 146 23.5299 145.96 23.7999C145.91 24.0699 145.9 24.3399 145.91 24.6199C145.93 24.8999 145.98 25.1599 146.05 25.4099C146.13 25.6599 146.24 25.8899 146.37 26.1099C146.51 26.3199 146.67 26.5199 146.85 26.6799C146.91 26.7299 146.97 26.7799 147.04 26.8299C147.04 26.8299 147.05 26.8299 147.05 26.8399C147.11 26.8799 147.17 26.9199 147.24 26.9599C147.24 26.9599 147.26 26.9699 147.27 26.9799C147.29 26.9899 147.32 27.0099 147.34 27.0199C147.36 27.0299 147.39 27.0499 147.41 27.0599C147.42 27.0599 147.44 27.0699 147.45 27.0799C147.46 27.0799 147.47 27.0899 147.48 27.0999C147.54 27.1299 147.61 27.1599 147.68 27.1799C147.69 27.1799 147.7 27.1799 147.71 27.1899C147.73 27.1899 147.76 27.2099 147.78 27.2099C147.8 27.2099 147.83 27.2199 147.85 27.2299C147.83 27.2299 147.8 27.2199 147.78 27.2099H147.76C148.21 27.3499 148.76 27.5199 149.29 27.6899L150.29 27.9999C150.29 27.9999 150.27 27.9999 150.26 27.9999C150.25 27.9999 150.24 27.9999 150.23 27.9899C150.2 27.9899 150.18 27.9699 150.16 27.9599C150.13 27.9499 150.11 27.9399 150.09 27.9299C150.07 27.9299 150.06 27.9199 150.04 27.9099C150.03 27.9099 150.02 27.8999 150.01 27.8999C149.95 27.8699 149.88 27.8399 149.82 27.7999M147.93 27.2699C147.93 27.2699 147.92 27.2699 147.91 27.2699C147.93 27.2699 147.94 27.2699 147.96 27.2799C147.96 27.2799 147.94 27.2799 147.93 27.2799" fill="#335C82"/>
<path d="M154.96 14.52H155.06L158.21 14.4C158.46 14.36 158.7 14.29 158.93 14.18C159.16 14.07 159.38 13.94 159.58 13.77C159.78 13.6 159.97 13.41 160.13 13.18C160.29 12.96 160.43 12.72 160.54 12.47C160.65 12.22 160.72 11.96 160.77 11.69C160.82 11.42 160.83 11.15 160.82 10.87C160.8 10.59 160.75 10.33 160.68 10.08C160.6 9.82999 160.49 9.59999 160.36 9.37999C160.23 9.16999 160.06 8.96999 159.88 8.80999C159.85 8.77999 159.82 8.75999 159.79 8.72999C159.76 8.70999 159.73 8.67999 159.7 8.65999C159.7 8.65999 159.69 8.65999 159.68 8.64999C159.62 8.60999 159.56 8.56999 159.49 8.52999C159.49 8.52999 159.47 8.51999 159.46 8.50999C159.44 8.49999 159.41 8.47999 159.39 8.46999C159.37 8.45999 159.34 8.44999 159.32 8.42999C159.31 8.42999 159.29 8.40999 159.28 8.40999C159.27 8.40999 159.26 8.40999 159.25 8.39999C159.19 8.36999 159.12 8.34999 159.06 8.31999C159.05 8.31999 159.04 8.31999 159.03 8.30999C158.98 8.28999 158.93 8.27999 158.88 8.26999C158.85 8.26999 158.82 8.24999 158.78 8.23999C158.73 8.22999 158.69 8.21999 158.64 8.21999C158.63 8.21999 158.61 8.21999 158.6 8.21999C158.6 8.21999 158.04 8.19999 157.54 8.40999C157.57 8.43999 157.59 8.46999 157.61 8.49999C157.61 8.50999 157.63 8.51999 157.63 8.52999C157.63 8.53999 157.65 8.55999 157.66 8.56999C157.68 8.60999 157.71 8.63999 157.73 8.67999C157.75 8.70999 157.77 8.74999 157.79 8.77999C157.79 8.79999 157.81 8.80999 157.82 8.82999C157.82 8.83999 157.83 8.84999 157.84 8.86999C157.87 8.91999 157.89 8.97999 157.92 9.02999C157.92 9.02999 157.92 9.04999 157.93 9.05999C157.94 9.08999 157.95 9.11999 157.97 9.13999C157.97 9.15999 157.99 9.18999 158 9.20999C158 9.21999 158 9.22999 158.01 9.24999C158.03 9.30999 158.05 9.36999 158.07 9.42999C158.07 9.43999 158.07 9.45999 158.08 9.46999C158.08 9.48999 158.09 9.51999 158.1 9.53999C158.1 9.56999 158.11 9.60999 158.12 9.63999C158.12 9.63999 158.12 9.65999 158.12 9.66999C158.13 9.72999 158.14 9.79999 158.15 9.85999C158.15 9.87999 158.15 9.88999 158.15 9.90999C158.15 9.97999 158.17 10.04 158.17 10.11C158.22 10.91 157.98 11.7 157.51 12.34C157.04 12.98 156.38 13.4 155.66 13.51L155.16 13.53H155.06L152.52 13.63H152.42L148.07 13.8V13.91L147.98 14.69V14.8L152.32 14.63H152.42L154.96 14.53V14.52Z" fill="#335C82"/>
<path d="M152.4 1.11997C152.4 1.11997 152.31 1.09997 152.26 1.08997H152.24C152.24 1.08997 152.23 1.08997 152.22 1.08997C152.2 1.08997 152.19 1.08997 152.17 1.08997C152.17 1.08997 151.66 1.08997 151.16 1.27997C151.54 1.73997 151.76 2.32997 151.8 2.97997C151.85 3.77997 151.61 4.56997 151.14 5.20997C150.66 5.84997 150.01 6.26997 149.29 6.37997L148.79 6.40997V6.51997L148.7 7.33997V7.44997L151.84 7.28997C152.09 7.24997 152.33 7.17997 152.56 7.06997C152.79 6.95997 153.01 6.82997 153.21 6.65997C153.41 6.48997 153.6 6.29997 153.76 6.06997C153.92 5.84997 154.06 5.60997 154.17 5.35997C154.28 5.10997 154.36 4.84997 154.4 4.57997C154.45 4.30997 154.46 4.03997 154.45 3.75997C154.43 3.47997 154.38 3.21997 154.31 2.96997C154.23 2.71997 154.12 2.48997 153.99 2.26997C153.85 2.05997 153.69 1.85997 153.51 1.69997C153.45 1.64997 153.39 1.59997 153.32 1.54997C153.32 1.54997 153.32 1.54997 153.3 1.53997C153.24 1.49997 153.18 1.44997 153.11 1.41997C153.11 1.41997 153.09 1.41997 153.08 1.40997C153.06 1.39997 153.03 1.37997 153.01 1.36997C152.99 1.35997 152.96 1.33997 152.94 1.32997C152.92 1.32997 152.91 1.30997 152.9 1.30997C152.9 1.30997 152.88 1.30997 152.87 1.29997C152.81 1.26997 152.74 1.24997 152.67 1.21997C152.66 1.21997 152.65 1.21997 152.64 1.20997C152.62 1.20997 152.59 1.18997 152.57 1.18997C152.55 1.18997 152.52 1.17997 152.5 1.16997C152.47 1.16997 152.44 1.14997 152.41 1.14997" fill="#335C82"/>
<path d="M148.06 13.9V13.79L148.69 7.45001V7.34001L148.78 6.52001V6.41001L148.97 4.61001C148.92 3.81001 149.16 3.02001 149.63 2.38001C150.03 1.83001 150.57 1.45001 151.16 1.28001C151.66 1.08001 152.17 1.09001 152.17 1.09001C152.18 1.09001 152.2 1.09001 152.21 1.09001H152.23H152.25C152.3 1.09001 152.34 1.10001 152.39 1.12001C152.42 1.12001 152.45 1.14001 152.48 1.14001C152.51 1.14001 152.53 1.15001 152.55 1.16001C152.55 1.16001 152.56 1.16001 152.57 1.16001C152.47 1.13001 152.38 1.10001 152.27 1.07001L151.95 0.97001C151.74 0.90001 151.51 0.83001 151.29 0.76001C151.01 0.67001 150.73 0.58001 150.46 0.50001L150.04 0.37001C150.04 0.37001 150.06 0.37001 150.07 0.37001C150.08 0.37001 150.09 0.37001 150.1 0.38001C150.15 0.40001 150.2 0.42001 150.25 0.44001C150.27 0.44001 150.28 0.45001 150.29 0.46001C150.27 0.45001 150.24 0.44001 150.22 0.43001L149.79 0.30001C149.79 0.30001 149.72 0.29001 149.68 0.28001C149.65 0.28001 149.62 0.27001 149.59 0.27001C149.54 0.27001 149.48 0.26001 149.43 0.26001C149.4 0.26001 149.38 0.26001 149.35 0.26001C149.27 0.26001 149.19 0.26001 149.11 0.26001C149.09 0.26001 149.06 0.26001 149.04 0.26001C149.01 0.26001 148.99 0.26001 148.97 0.26001C148.94 0.26001 148.92 0.26001 148.89 0.26001C148.64 0.30001 148.4 0.37001 148.17 0.48001C147.94 0.59001 147.72 0.72001 147.52 0.89001C147.32 1.06001 147.13 1.25001 146.97 1.47001C146.81 1.69001 146.67 1.93001 146.56 2.18001C146.45 2.43001 146.38 2.69001 146.33 2.96001C146.28 3.23001 146.27 3.50001 146.28 3.77001L146.01 6.50001L145.92 7.43001V7.54001L145.29 13.85L145.2 14.75V14.86L145.01 16.65C145.1 18.18 144.14 19.6 142.82 19.98C142.82 19.98 142.74 20 142.7 20.01C142.73 20.04 142.75 20.07 142.78 20.1C142.79 20.12 142.81 20.13 142.82 20.15C142.83 20.17 142.85 20.18 142.86 20.2C142.87 20.21 142.89 20.23 142.9 20.24C142.91 20.25 142.93 20.27 142.94 20.28C142.95 20.28 142.96 20.3 142.97 20.31C142.99 20.33 143 20.34 143.02 20.36C143.03 20.36 143.04 20.38 143.05 20.39C143.06 20.39 143.07 20.41 143.08 20.41C143.1 20.43 143.12 20.44 143.14 20.46C143.14 20.46 143.15 20.47 143.16 20.48C143.17 20.49 143.19 20.5 143.2 20.52C143.2 20.52 143.21 20.52 143.22 20.53C143.24 20.54 143.26 20.55 143.27 20.57C143.29 20.59 143.31 20.6 143.33 20.61C143.35 20.62 143.37 20.64 143.4 20.65C143.4 20.65 143.42 20.66 143.43 20.67C143.49 20.71 143.56 20.74 143.62 20.77C143.63 20.77 143.64 20.77 143.65 20.79C143.67 20.8 143.7 20.81 143.72 20.82L144.15 20.95C144.15 20.95 144.18 20.95 144.2 20.96C144.22 20.96 144.24 20.96 144.25 20.96C144.28 20.96 144.31 20.97 144.34 20.98C144.39 20.98 144.44 20.98 144.5 20.99C144.53 20.99 144.55 20.99 144.58 20.99C144.66 20.99 144.74 20.99 144.82 20.99C144.84 20.99 144.87 20.99 144.89 20.99C144.91 20.99 144.94 20.99 144.96 20.99C144.99 20.99 145.01 20.99 145.04 20.99C145.29 20.95 145.53 20.88 145.76 20.77C145.99 20.66 146.21 20.53 146.41 20.36C146.61 20.19 146.8 20 146.96 19.77C147.12 19.55 147.26 19.31 147.37 19.06C147.48 18.81 147.56 18.55 147.6 18.28C147.65 18.01 147.66 17.74 147.65 17.47L147.91 14.79H147.92V14.68L148 13.9H148.06Z" fill="#335C82"/>
<path d="M146.05 6.54004L137.74 6.97004V7.08004L140.29 7.87004L145.95 7.58004L145.96 7.47004L146.05 6.54004Z" fill="#335C82"/>
<path d="M143.49 20.7C143.49 20.7 143.47 20.69 143.46 20.68C143.44 20.67 143.41 20.65 143.39 20.64C143.37 20.63 143.34 20.61 143.32 20.6C143.3 20.59 143.29 20.58 143.27 20.57C143.27 20.57 143.26 20.57 143.25 20.56C143.23 20.55 143.22 20.54 143.2 20.52C143.2 20.52 143.19 20.51 143.18 20.5C143.16 20.48 143.14 20.47 143.12 20.45C143.12 20.45 143.1 20.43 143.09 20.43C143.09 20.43 143.07 20.41 143.06 20.4C143.04 20.38 143.03 20.37 143.01 20.35C143.01 20.35 142.99 20.33 142.98 20.32C142.97 20.31 142.95 20.29 142.94 20.28C142.93 20.26 142.91 20.25 142.9 20.24C142.89 20.22 142.87 20.21 142.86 20.19C142.85 20.17 142.83 20.16 142.82 20.14C142.79 20.11 142.77 20.08 142.74 20.05C142.64 19.93 142.56 19.8 142.49 19.66C142.28 19.27 142.15 18.82 142.12 18.33C142.12 18.31 142.12 18.3 142.12 18.28C142.11 18.01 142.12 17.75 142.17 17.49C142.22 17.23 142.29 16.98 142.39 16.73C142.49 16.49 142.62 16.26 142.78 16.04C142.78 16.03 142.8 16.02 142.8 16.01C142.95 15.81 143.11 15.63 143.29 15.48C143.47 15.32 143.67 15.18 143.88 15.08C144.08 14.98 144.29 14.9 144.5 14.85C144.57 14.83 144.64 14.82 144.71 14.81L145.22 14.79L145.31 13.89L142.16 14.01C141.91 14.05 141.67 14.12 141.44 14.23C141.21 14.34 140.99 14.47 140.79 14.64C140.59 14.81 140.4 15 140.24 15.23C140.08 15.45 139.94 15.69 139.83 15.94C139.72 16.19 139.64 16.45 139.6 16.72C139.55 16.99 139.54 17.26 139.55 17.54C139.57 17.82 139.62 18.08 139.69 18.33C139.77 18.58 139.88 18.81 140.01 19.03C140.15 19.24 140.31 19.44 140.49 19.6C140.55 19.65 140.61 19.7 140.67 19.75C140.67 19.75 140.68 19.75 140.69 19.76C140.75 19.8 140.81 19.84 140.88 19.88C140.88 19.88 140.9 19.89 140.91 19.9C140.93 19.92 140.96 19.93 140.98 19.94C141 19.95 141.03 19.97 141.05 19.98C141.06 19.98 141.08 19.99 141.09 20C141.1 20 141.11 20.01 141.12 20.01C141.18 20.04 141.25 20.07 141.32 20.09C141.32 20.09 141.34 20.09 141.35 20.1C141.4 20.12 141.45 20.13 141.49 20.14C141.46 20.14 141.43 20.13 141.4 20.12L141.57 20.17C141.57 20.17 141.66 20.2 141.7 20.21L141.94 20.28C142 20.3 142.05 20.32 142.11 20.33H142.15L142.53 20.46C142.66 20.5 142.8 20.54 142.93 20.58L143.07 20.62C143.07 20.62 143.16 20.65 143.2 20.66L143.46 20.74L143.71 20.82L143.92 20.89C143.92 20.89 143.91 20.89 143.9 20.89C143.89 20.89 143.88 20.89 143.87 20.88C143.85 20.88 143.83 20.86 143.81 20.86C143.78 20.85 143.75 20.84 143.72 20.83C143.71 20.83 143.69 20.82 143.67 20.81C143.66 20.81 143.65 20.8 143.64 20.79C143.58 20.76 143.51 20.73 143.45 20.69" fill="#335C82"/>
<path d="M157.58 7.85C157.34 7.78 157.1 7.7 156.87 7.63L156.4 7.48C156.4 7.48 156.43 7.49 156.45 7.5C156.46 7.5 156.47 7.5 156.48 7.51C156.5 7.51 156.53 7.53 156.55 7.54C156.58 7.54 156.6 7.56 156.63 7.57H156.6L156.17 7.43C156.13 7.43 156.1 7.42 156.06 7.41C156.03 7.41 156 7.4 155.97 7.39C155.92 7.39 155.87 7.39 155.81 7.38C155.78 7.38 155.76 7.38 155.73 7.38C155.65 7.38 155.57 7.38 155.49 7.38C155.47 7.38 155.44 7.38 155.42 7.38C155.4 7.38 155.37 7.38 155.35 7.38C155.32 7.38 155.3 7.38 155.27 7.38C155.02 7.42 154.78 7.49 154.55 7.6C154.32 7.71 154.1 7.84 153.9 8.01C153.7 8.18001 153.51 8.37 153.35 8.59C153.19 8.81 153.05 9.05 152.94 9.3C152.83 9.55 152.75 9.81 152.71 10.08C152.66 10.35 152.65 10.62 152.66 10.89L152.4 13.56L152.17 15.89L151.68 20.92L151.59 21.85V21.96L151.4 23.76C151.49 25.28 150.53 26.71 149.2 27.09C149.2 27.09 149.12 27.11 149.09 27.12C149.11 27.15 149.14 27.18 149.17 27.21C149.18 27.23 149.2 27.24 149.21 27.26C149.22 27.28 149.24 27.29 149.25 27.3C149.26 27.31 149.28 27.33 149.29 27.34C149.3 27.36 149.32 27.37 149.33 27.38C149.33 27.38 149.35 27.4 149.36 27.41C149.38 27.43 149.39 27.44 149.41 27.46C149.43 27.48 149.45 27.49 149.47 27.51C149.49 27.53 149.51 27.54 149.53 27.56C149.53 27.56 149.54 27.57 149.55 27.58C149.55 27.58 149.56 27.59 149.57 27.6C149.57 27.6 149.58 27.61 149.59 27.62C149.59 27.62 149.6 27.62 149.6 27.63C149.6 27.63 149.62 27.64 149.63 27.65C149.63 27.65 149.65 27.66 149.66 27.67C149.68 27.68 149.7 27.7 149.72 27.71C149.74 27.72 149.76 27.74 149.79 27.75C149.79 27.75 149.81 27.76 149.82 27.77C149.88 27.81 149.95 27.84 150.01 27.87C150.02 27.87 150.03 27.87 150.04 27.88C150.06 27.89 150.09 27.9 150.11 27.91L150.54 28.04C150.54 28.04 150.57 28.04 150.59 28.05C150.61 28.05 150.63 28.05 150.64 28.05C150.67 28.05 150.7 28.06 150.73 28.07C150.78 28.07 150.83 28.07 150.89 28.08C150.92 28.08 150.94 28.08 150.97 28.08C151.05 28.08 151.13 28.08 151.21 28.08C151.23 28.08 151.26 28.08 151.28 28.08C151.3 28.08 151.33 28.08 151.35 28.08C151.38 28.08 151.4 28.08 151.43 28.08C151.68 28.04 151.92 27.97 152.15 27.86C152.38 27.75 152.6 27.62 152.8 27.45C153 27.28 153.19 27.09 153.35 26.86C153.51 26.64 153.65 26.4 153.76 26.15C153.87 25.9 153.95 25.64 153.99 25.37C154.04 25.1 154.05 24.83 154.04 24.56L154.32 21.72L154.4 20.9V20.79L154.92 15.6L155.13 13.47L155.21 12.65V12.62L155.3 11.68C155.25 10.88 155.49 10.09 155.96 9.45C156.36 8.9 156.9 8.52001 157.49 8.35001C157.99 8.15001 158.55 8.16 158.55 8.16C158.55 8.16 158.58 8.16 158.6 8.16C158.65 8.16 158.69 8.17001 158.74 8.18001C158.77 8.18001 158.8 8.2 158.84 8.21C158.87 8.21 158.9 8.22 158.93 8.23L157.55 7.8L157.58 7.85Z" fill="#335C82"/>
</svg>
