<svg width="319" height="57" viewBox="0 0 319 57" fill="none" xmlns="http://www.w3.org/2000/svg">
<path d="M8.26003 15.38H13.92V10.25H15.9V23.37H13.92V17.24H8.26003V23.37H6.28003V10.25H8.26003V15.38Z" fill="#335C82"/>
<path d="M38.13 20.18H32.51L31.05 23.37H28.92L35.41 9.42004L41.67 23.37H39.5L38.12 20.18H38.13ZM37.32 18.32L35.37 13.86L33.33 18.32H37.32Z" fill="#335C82"/>
<path d="M59.13 17.78L63.19 23.37H60.77L57.02 18H56.66V23.37H54.68V10.25H57C58.73 10.25 59.99 10.57 60.76 11.23C61.61 11.96 62.04 12.91 62.04 14.1C62.04 15.03 61.77 15.83 61.24 16.5C60.71 17.17 60 17.6 59.13 17.78ZM56.66 16.27H57.29C59.17 16.27 60.1 15.55 60.1 14.12C60.1 12.78 59.19 12.11 57.36 12.11H56.65V16.28L56.66 16.27Z" fill="#335C82"/>
<path d="M78.35 15.48L83.45 10.24H86.1L80.17 16.19L86.13 23.37H83.48L78.75 17.53L78.35 17.94V23.37H76.36V10.24H78.35V15.48Z" fill="#335C82"/>
<path d="M106.44 12.11H101.18V15.26H106.29V17.12H101.18V21.51H106.44V23.37H99.2V10.25H106.44V12.11Z" fill="#335C82"/>
<path d="M124.86 17.78L128.92 23.37H126.5L122.75 18H122.39V23.37H120.41V10.25H122.73C124.46 10.25 125.72 10.57 126.49 11.23C127.34 11.96 127.77 12.91 127.77 14.1C127.77 15.03 127.5 15.83 126.97 16.5C126.44 17.17 125.73 17.6 124.86 17.78ZM122.39 16.27H123.02C124.9 16.27 125.83 15.55 125.83 14.12C125.83 12.78 124.92 12.11 123.09 12.11H122.38V16.28L122.39 16.27Z" fill="#335C82"/>
<path d="M173.45 10.25V21.51H177.31V23.37H171.47V10.25H173.45Z" fill="#335C82"/>
<path d="M190.67 10.25V21.51H194.53V23.37H188.69V10.25H190.67Z" fill="#335C82"/>
<path d="M204.75 16.75C204.75 14.9 205.43 13.32 206.78 11.99C208.13 10.66 209.75 10 211.64 10C213.53 10 215.11 10.67 216.45 12C217.79 13.34 218.46 14.94 218.46 16.82C218.46 18.7 217.79 20.31 216.44 21.62C215.09 22.94 213.45 23.6 211.54 23.6C209.84 23.6 208.32 23.01 206.97 21.84C205.49 20.54 204.74 18.84 204.74 16.74M206.74 16.76C206.74 18.21 207.23 19.4 208.2 20.34C209.17 21.27 210.29 21.74 211.56 21.74C212.94 21.74 214.1 21.26 215.05 20.31C216 19.35 216.47 18.17 216.47 16.79C216.47 15.41 216 14.22 215.07 13.27C214.14 12.32 212.99 11.84 211.62 11.84C210.25 11.84 209.1 12.32 208.16 13.27C207.22 14.21 206.75 15.37 206.75 16.75" fill="#335C82"/>
<path d="M234.99 17.78L239.05 23.37H236.63L232.88 18H232.52V23.37H230.54V10.25H232.86C234.59 10.25 235.85 10.57 236.62 11.23C237.47 11.96 237.9 12.91 237.9 14.1C237.9 15.03 237.63 15.83 237.1 16.5C236.56 17.17 235.86 17.6 234.99 17.78ZM232.52 16.27H233.15C235.03 16.27 235.96 15.55 235.96 14.12C235.96 12.78 235.05 12.11 233.22 12.11H232.51V16.28L232.52 16.27Z" fill="#335C82"/>
<path d="M257.73 12.11H252.46V15.26H257.57V17.12H252.46V21.51H257.73V23.37H250.48V10.25H257.73V12.11Z" fill="#335C82"/>
<path d="M269.95 23.37V10.25H272.7C274.02 10.25 275.06 10.38 275.83 10.64C276.65 10.9 277.4 11.33 278.07 11.94C279.43 13.18 280.1 14.8 280.1 16.81C280.1 18.82 279.39 20.46 277.98 21.71C277.27 22.33 276.53 22.77 275.75 23.01C275.02 23.25 273.99 23.37 272.66 23.37H269.94H269.95ZM271.93 21.51H272.82C273.71 21.51 274.45 21.42 275.04 21.23C275.63 21.03 276.16 20.72 276.64 20.29C277.61 19.4 278.1 18.24 278.1 16.81C278.1 15.38 277.62 14.2 276.65 13.31C275.78 12.51 274.51 12.11 272.82 12.11H271.93V21.51Z" fill="#335C82"/>
<path d="M299.22 20.18H293.6L292.14 23.37H290.01L296.5 9.42004L302.76 23.37H300.59L299.21 20.18H299.22ZM298.41 18.32L296.46 13.86L294.42 18.32H298.41Z" fill="#335C82"/>
<path d="M16.1 48.22C15.4 48.53 14.28 48.83 12.87 48.83C9.74003 48.83 7.84003 46.84 7.84003 43.67C7.84003 41.33 8.78003 39.1 10.49 37.68C11.76 36.59 13.35 36 15.17 36C16.55 36 17.53 36.35 17.86 36.61L17.36 37.85C16.9 37.57 16.01 37.33 14.91 37.33C13.62 37.33 12.31 37.83 11.35 38.73C10.19 39.82 9.45003 41.57 9.45003 43.45C9.45003 45.68 10.46 47.5 13.23 47.5C14.17 47.5 15.2 47.32 15.88 46.97L16.08 48.22H16.1Z" fill="#335C82"/>
<path d="M19.51 48.6201L21.22 39.7001H22.75L21.04 48.6201H19.51ZM22.37 38.1701C21.85 38.1701 21.5 37.7601 21.5 37.2101C21.52 36.6201 21.96 36.1801 22.51 36.1801C23.06 36.1801 23.41 36.5901 23.41 37.1401C23.39 37.7501 22.97 38.1701 22.38 38.1701H22.36H22.37Z" fill="#335C82"/>
<path d="M25.58 48.62L26.67 42.87C26.89 41.71 27.04 40.53 27.13 39.7H28.48C28.41 40.33 28.33 40.95 28.24 41.64H28.3C28.87 40.42 29.83 39.5 31.03 39.5C31.16 39.5 31.34 39.52 31.45 39.54L31.16 41.05C31.07 41.03 30.92 41.01 30.75 41.01C29.42 41.01 28.24 42.61 27.86 44.7L27.12 48.63H25.59L25.58 48.62Z" fill="#335C82"/>
<path d="M41.96 39.7001L40.76 46.0201C40.58 47.0201 40.45 47.8801 40.35 48.6201H38.97L39.21 46.9401H39.17C38.38 48.1001 37.2 48.8201 36.02 48.8201C34.84 48.8201 33.68 48.2701 33.68 46.2401C33.68 45.8201 33.74 45.3401 33.85 44.7501L34.81 39.7001H36.34L35.4 44.6801C35.29 45.1801 35.23 45.6001 35.23 45.9901C35.23 46.9101 35.62 47.5401 36.67 47.5401C37.78 47.5401 39.2 46.2501 39.56 44.2801L40.43 39.7101H41.96V39.7001Z" fill="#335C82"/>
<path d="M44.82 50.65C45.35 50.98 46.24 51.24 47.18 51.24C48.67 51.24 49.85 50.47 50.39 48.05L50.68 46.72H50.62C49.85 47.99 48.76 48.62 47.52 48.62C45.73 48.62 44.81 47.11 44.81 45.52C44.79 42.5 47.02 39.49 50.47 39.49C51.5 39.49 52.63 39.78 53.33 40.12L51.97 47.49C51.6 49.37 51.1 50.68 50.16 51.47C49.28 52.24 48.08 52.47 47.05 52.47C45.96 52.47 44.95 52.21 44.38 51.84L44.82 50.64V50.65ZM51.66 41.03C51.38 40.9 50.83 40.74 50.19 40.74C47.96 40.74 46.43 43.06 46.41 45.27C46.41 46.25 46.76 47.41 48.12 47.41C49.48 47.41 50.77 45.75 51.09 44L51.66 41.03Z" fill="#335C82"/>
<path d="M56.23 48.62L57.94 39.7H59.47L57.76 48.62H56.23ZM61.67 35.98L59.22 38.62H58.02L59.83 35.98H61.67Z" fill="#335C82"/>
<path d="M68.22 48.62C68.22 48.09 68.31 47.24 68.42 46.32H68.38C67.4 48.16 66.19 48.83 64.91 48.83C63.34 48.83 62.35 47.58 62.35 45.88C62.35 42.78 64.64 39.5 68.52 39.5C69.37 39.5 70.31 39.65 70.92 39.85L70.02 44.5C69.73 46.05 69.6 47.63 69.63 48.63H68.21L68.22 48.62ZM69.22 40.84C69 40.78 68.67 40.71 68.15 40.71C65.85 40.71 63.97 43.12 63.95 45.59C63.95 46.59 64.3 47.56 65.48 47.56C66.75 47.56 68.26 45.9 68.71 43.52L69.23 40.83L69.22 40.84Z" fill="#335C82"/>
<path d="M81.36 36.38C82.06 36.21 83.04 36.1 84.05 36.1C85.25 36.1 86.39 36.39 87.09 37.06C87.68 37.61 87.99 38.33 87.99 39.31C87.99 40.71 87.31 41.87 86.5 42.55C85.54 43.34 84.14 43.73 82.74 43.73C82.28 43.73 81.86 43.69 81.47 43.64L80.53 48.62H79.02L81.36 36.38ZM81.71 42.35C82.15 42.44 82.5 42.48 82.94 42.48C85.04 42.48 86.44 41.17 86.44 39.42C86.44 37.95 85.39 37.36 83.97 37.36C83.36 37.36 82.9 37.42 82.62 37.49L81.7 42.36L81.71 42.35Z" fill="#335C82"/>
<path d="M90.08 48.62L92.57 35.53H94.1L91.59 48.62H90.08Z" fill="#335C82"/>
<path d="M102.05 48.62C102.05 48.09 102.14 47.24 102.25 46.32H102.21C101.23 48.16 100.02 48.83 98.74 48.83C97.17 48.83 96.18 47.58 96.18 45.88C96.18 42.78 98.47 39.5 102.35 39.5C103.2 39.5 104.14 39.65 104.75 39.85L103.85 44.5C103.56 46.05 103.43 47.63 103.46 48.63H102.04L102.05 48.62ZM103.05 40.84C102.83 40.78 102.5 40.71 101.98 40.71C99.68 40.71 97.8 43.12 97.78 45.59C97.78 46.59 98.13 47.56 99.31 47.56C100.58 47.56 102.09 45.9 102.54 43.52L103.06 40.83L103.05 40.84ZM104.76 35.97L102.29 38.61H101.09L102.91 35.97H104.75H104.76Z" fill="#335C82"/>
<path d="M107.67 47.08C108.09 47.34 108.87 47.63 109.59 47.63C110.62 47.63 111.29 46.97 111.29 46.17C111.29 45.47 110.98 45.05 110.06 44.53C109.03 43.96 108.46 43.17 108.46 42.26C108.46 40.69 109.81 39.5 111.69 39.5C112.5 39.5 113.22 39.72 113.55 39.94L113.13 41.1C112.82 40.92 112.25 40.69 111.58 40.69C110.66 40.69 110 41.26 110 42.04C110 42.69 110.42 43.09 111.22 43.53C112.22 44.1 112.9 44.88 112.9 45.87C112.9 47.75 111.37 48.82 109.49 48.82C108.53 48.8 107.68 48.51 107.28 48.19L107.7 47.07L107.67 47.08Z" fill="#335C82"/>
<path d="M120.26 37.5601L119.85 39.7001H121.99L121.75 40.9001H119.61L118.78 45.2301C118.69 45.7301 118.61 46.1901 118.61 46.6501C118.61 47.1801 118.87 47.5201 119.46 47.5201C119.72 47.5201 119.98 47.5001 120.18 47.4501L120.11 48.6701C119.83 48.7601 119.37 48.8401 118.93 48.8401C117.57 48.8401 117.05 48.0101 117.05 47.1101C117.05 46.5901 117.11 46.0801 117.23 45.4301L118.11 40.9101H116.82L117.06 39.7101H118.33L118.64 38.0701L120.24 37.5701L120.26 37.5601Z" fill="#335C82"/>
<path d="M123.93 48.6201L125.64 39.7001H127.17L125.46 48.6201H123.93ZM126.79 38.1701C126.27 38.1701 125.92 37.7601 125.92 37.2101C125.94 36.6201 126.38 36.1801 126.93 36.1801C127.48 36.1801 127.83 36.5901 127.83 37.1401C127.81 37.7501 127.39 38.1701 126.8 38.1701H126.78H126.79Z" fill="#335C82"/>
<path d="M136.13 48.27C135.67 48.49 134.75 48.82 133.55 48.82C131.25 48.82 130.12 47.25 130.12 45.35C130.12 42.31 132.37 39.51 135.58 39.51C136.41 39.51 137.17 39.75 137.44 39.9L137 41.12C136.65 40.95 136.15 40.79 135.49 40.79C133.17 40.79 131.71 43.08 131.71 45.18C131.71 46.62 132.47 47.56 133.92 47.56C134.82 47.56 135.52 47.28 135.98 47.06L136.13 48.28V48.27Z" fill="#335C82"/>
<path d="M145.28 48.62C145.28 48.09 145.37 47.24 145.48 46.32H145.44C144.46 48.16 143.25 48.83 141.97 48.83C140.4 48.83 139.41 47.58 139.41 45.88C139.41 42.78 141.7 39.5 145.58 39.5C146.43 39.5 147.37 39.65 147.98 39.85L147.08 44.5C146.79 46.05 146.66 47.63 146.69 48.63H145.27L145.28 48.62ZM146.28 40.84C146.06 40.78 145.73 40.71 145.21 40.71C142.91 40.71 141.03 43.12 141.01 45.59C141.01 46.59 141.36 47.56 142.54 47.56C143.81 47.56 145.32 45.9 145.77 43.52L146.29 40.83L146.28 40.84Z" fill="#335C82"/>
<path d="M157.45 44.97C156.84 44.97 156.44 44.49 156.44 43.88C156.44 43.2 156.94 42.65 157.6 42.65C158.23 42.65 158.63 43.11 158.63 43.76C158.63 44.41 158.15 44.98 157.47 44.98H157.45V44.97Z" fill="#335C82"/>
<path d="M174.15 42.7801H169.63L168.78 47.3101H173.87L173.61 48.6201H166.99L169.35 36.2001H175.69L175.43 37.5101H170.64L169.88 41.4901H174.4L174.14 42.7801H174.15Z" fill="#335C82"/>
<path d="M177.52 47.08C177.94 47.34 178.72 47.63 179.44 47.63C180.47 47.63 181.14 46.97 181.14 46.17C181.14 45.47 180.83 45.05 179.91 44.53C178.88 43.96 178.31 43.17 178.31 42.26C178.31 40.69 179.66 39.5 181.54 39.5C182.35 39.5 183.07 39.72 183.4 39.94L182.98 41.1C182.67 40.92 182.1 40.69 181.43 40.69C180.51 40.69 179.85 41.26 179.85 42.04C179.85 42.69 180.27 43.09 181.07 43.53C182.07 44.1 182.75 44.88 182.75 45.87C182.75 47.75 181.22 48.82 179.34 48.82C178.38 48.8 177.53 48.51 177.13 48.19L177.55 47.07L177.52 47.08Z" fill="#335C82"/>
<path d="M190.11 37.5601L189.7 39.7001H191.84L191.6 40.9001H189.46L188.63 45.2301C188.54 45.7301 188.46 46.1901 188.46 46.6501C188.46 47.1801 188.72 47.5201 189.31 47.5201C189.57 47.5201 189.83 47.5001 190.03 47.4501L189.96 48.6701C189.68 48.7601 189.22 48.8401 188.78 48.8401C187.42 48.8401 186.9 48.0101 186.9 47.1101C186.9 46.5901 186.96 46.0801 187.08 45.4301L187.96 40.9101H186.67L186.91 39.7101H188.18L188.49 38.0701L190.09 37.5701L190.11 37.5601Z" fill="#335C82"/>
<path d="M200.14 48.11C199.48 48.5 198.39 48.83 197.19 48.83C194.83 48.83 193.8 47.21 193.8 45.24C193.8 42.55 195.79 39.51 198.67 39.51C200.37 39.51 201.29 40.52 201.29 41.8C201.29 44.14 198.65 44.77 195.35 44.71C195.28 45.1 195.33 45.93 195.53 46.41C195.88 47.2 196.6 47.61 197.52 47.61C198.57 47.61 199.36 47.28 199.92 46.98L200.14 48.12V48.11ZM199.81 41.82C199.81 41.1 199.26 40.7 198.45 40.7C196.99 40.7 195.91 42.12 195.54 43.52C197.94 43.54 199.82 43.23 199.82 41.84V41.82H199.81ZM201.49 35.98L199.04 38.62H197.84L199.66 35.98H201.48H201.49Z" fill="#335C82"/>
<path d="M207.85 37.5601L207.44 39.7001H209.58L209.34 40.9001H207.2L206.37 45.2301C206.28 45.7301 206.2 46.1901 206.2 46.6501C206.2 47.1801 206.46 47.5201 207.05 47.5201C207.31 47.5201 207.57 47.5001 207.77 47.4501L207.7 48.6701C207.42 48.7601 206.96 48.8401 206.52 48.8401C205.16 48.8401 204.64 48.0101 204.64 47.1101C204.64 46.5901 204.7 46.0801 204.82 45.4301L205.7 40.9101H204.41L204.65 39.7101H205.92L206.23 38.0701L207.83 37.5701L207.85 37.5601Z" fill="#335C82"/>
<path d="M211.52 48.6201L213.23 39.7001H214.76L213.05 48.6201H211.52ZM214.38 38.1701C213.86 38.1701 213.51 37.7601 213.51 37.2101C213.53 36.6201 213.97 36.1801 214.52 36.1801C215.07 36.1801 215.42 36.5901 215.42 37.1401C215.4 37.7501 214.98 38.1701 214.39 38.1701H214.37H214.38Z" fill="#335C82"/>
<path d="M223.72 48.27C223.26 48.49 222.34 48.82 221.14 48.82C218.84 48.82 217.71 47.25 217.71 45.35C217.71 42.31 219.96 39.51 223.17 39.51C224 39.51 224.76 39.75 225.03 39.9L224.59 41.12C224.24 40.95 223.74 40.79 223.08 40.79C220.76 40.79 219.3 43.08 219.3 45.18C219.3 46.62 220.06 47.56 221.51 47.56C222.41 47.56 223.11 47.28 223.57 47.06L223.72 48.28V48.27Z" fill="#335C82"/>
<path d="M232.87 48.62C232.87 48.09 232.96 47.24 233.07 46.32H233.03C232.05 48.16 230.84 48.83 229.56 48.83C227.99 48.83 227 47.58 227 45.88C227 42.78 229.29 39.5 233.17 39.5C234.02 39.5 234.96 39.65 235.57 39.85L234.67 44.5C234.38 46.05 234.25 47.63 234.28 48.63H232.86L232.87 48.62ZM233.87 40.84C233.65 40.78 233.32 40.71 232.8 40.71C230.5 40.71 228.62 43.12 228.6 45.59C228.6 46.59 228.95 47.56 230.13 47.56C231.4 47.56 232.91 45.9 233.36 43.52L233.88 40.83L233.87 40.84Z" fill="#335C82"/>
<path d="M245.04 44.97C244.43 44.97 244.03 44.49 244.03 43.88C244.03 43.2 244.53 42.65 245.19 42.65C245.82 42.65 246.22 43.11 246.22 43.76C246.22 44.41 245.74 44.98 245.06 44.98H245.04V44.97Z" fill="#335C82"/>
<path d="M256.96 36.2001H258.49L256.37 47.3001H261.38L261.12 48.6301H254.59L256.95 36.2101L256.96 36.2001Z" fill="#335C82"/>
<path d="M270.4 48.62C270.4 48.09 270.49 47.24 270.6 46.32H270.56C269.58 48.16 268.37 48.83 267.09 48.83C265.52 48.83 264.53 47.58 264.53 45.88C264.53 42.78 266.82 39.5 270.7 39.5C271.55 39.5 272.49 39.65 273.1 39.85L272.2 44.5C271.91 46.05 271.78 47.63 271.81 48.63H270.39L270.4 48.62ZM271.4 40.84C271.18 40.78 270.85 40.71 270.33 40.71C268.03 40.71 266.15 43.12 266.13 45.59C266.13 46.59 266.48 47.56 267.66 47.56C268.93 47.56 270.44 45.9 270.89 43.52L271.41 40.83L271.4 40.84ZM273.11 35.97L270.64 38.61H269.44L271.26 35.97H273.1H273.11Z" fill="#335C82"/>
<path d="M276.03 47.08C276.45 47.34 277.23 47.63 277.95 47.63C278.98 47.63 279.65 46.97 279.65 46.17C279.65 45.47 279.34 45.05 278.42 44.53C277.39 43.96 276.82 43.17 276.82 42.26C276.82 40.69 278.17 39.5 280.05 39.5C280.86 39.5 281.58 39.72 281.91 39.94L281.49 41.1C281.18 40.92 280.61 40.69 279.94 40.69C279.02 40.69 278.36 41.26 278.36 42.04C278.36 42.69 278.78 43.09 279.58 43.53C280.58 44.1 281.26 44.88 281.26 45.87C281.26 47.75 279.73 48.82 277.85 48.82C276.89 48.8 276.04 48.51 275.64 48.19L276.06 47.07L276.03 47.08Z" fill="#335C82"/>
<path d="M291.11 48.11C290.45 48.5 289.36 48.83 288.16 48.83C285.8 48.83 284.77 47.21 284.77 45.24C284.77 42.55 286.76 39.51 289.64 39.51C291.34 39.51 292.26 40.52 292.26 41.8C292.26 44.14 289.62 44.77 286.32 44.71C286.25 45.1 286.3 45.93 286.5 46.41C286.85 47.2 287.57 47.61 288.49 47.61C289.54 47.61 290.33 47.28 290.89 46.98L291.11 48.12V48.11ZM290.78 41.82C290.78 41.1 290.23 40.7 289.42 40.7C287.96 40.7 286.88 42.12 286.51 43.52C288.91 43.54 290.79 43.23 290.79 41.84V41.82H290.78Z" fill="#335C82"/>
<path d="M294.87 48.62L295.96 42.87C296.18 41.71 296.33 40.53 296.42 39.7H297.77C297.7 40.33 297.62 40.95 297.53 41.64H297.59C298.16 40.42 299.12 39.5 300.32 39.5C300.45 39.5 300.63 39.52 300.74 39.54L300.45 41.05C300.36 41.03 300.21 41.01 300.04 41.01C298.71 41.01 297.53 42.61 297.15 44.7L296.41 48.63H294.88L294.87 48.62Z" fill="#335C82"/>
<path d="M154.44 21.6001L154.43 21.7101L154.35 22.5301L161.92 22.1401L162.23 22.1301L159.68 21.3301L154.44 21.6001Z" fill="#335C82"/>
<path d="M149.85 28.59C149.85 28.59 149.83 28.58 149.82 28.57C149.8 28.56 149.77 28.54 149.75 28.53C149.73 28.52 149.7 28.5 149.68 28.49C149.68 28.49 149.67 28.48 149.66 28.47C149.66 28.47 149.64 28.46 149.63 28.45C149.63 28.45 149.62 28.45 149.61 28.44C149.61 28.44 149.6 28.43 149.59 28.42C149.59 28.42 149.57 28.41 149.56 28.4C149.56 28.4 149.55 28.39 149.54 28.38C149.52 28.36 149.5 28.35 149.48 28.33C149.46 28.31 149.44 28.3 149.42 28.28C149.4 28.26 149.39 28.25 149.37 28.23C149.37 28.23 149.35 28.21 149.34 28.2C149.33 28.19 149.31 28.17 149.3 28.16C149.29 28.15 149.27 28.13 149.26 28.12C149.25 28.1 149.23 28.09 149.22 28.08C149.21 28.06 149.19 28.05 149.18 28.03C149.15 28 149.13 27.97 149.1 27.94C149 27.82 148.92 27.69 148.85 27.55C148.64 27.16 148.51 26.71 148.48 26.22C148.48 26.2 148.48 26.19 148.48 26.17C148.47 25.9 148.48 25.64 148.53 25.38C148.58 25.12 148.65 24.87 148.75 24.62C148.85 24.38 148.98 24.15 149.14 23.93C149.14 23.92 149.16 23.91 149.16 23.89C149.31 23.69 149.47 23.51 149.65 23.36C149.83 23.2 150.03 23.06 150.24 22.95C150.44 22.85 150.65 22.77 150.86 22.72C150.93 22.7 151 22.69 151.07 22.68L151.58 22.65L151.67 21.72L148.52 21.88C148.27 21.92 148.03 21.99 147.8 22.1C147.57 22.2 147.35 22.34 147.15 22.51C146.95 22.68 146.76 22.87 146.6 23.09C146.44 23.31 146.3 23.55 146.19 23.8C146.08 24.05 146 24.31 145.96 24.58C145.91 24.85 145.9 25.12 145.91 25.4C145.93 25.68 145.98 25.94 146.05 26.19C146.13 26.44 146.24 26.67 146.37 26.89C146.51 27.1 146.67 27.3 146.85 27.46C146.91 27.51 146.97 27.56 147.04 27.61C147.04 27.61 147.05 27.61 147.05 27.62C147.11 27.66 147.17 27.7 147.24 27.74C147.24 27.74 147.26 27.75 147.27 27.76C147.29 27.77 147.32 27.79 147.34 27.8C147.36 27.81 147.39 27.83 147.41 27.84C147.42 27.84 147.44 27.85 147.45 27.86C147.46 27.86 147.47 27.87 147.48 27.88C147.54 27.91 147.61 27.94 147.68 27.96C147.69 27.96 147.7 27.96 147.71 27.97C147.73 27.97 147.76 27.99 147.78 27.99C147.8 27.99 147.83 28 147.85 28.01C147.83 28.01 147.8 28 147.78 27.99H147.76C148.21 28.13 148.76 28.3 149.29 28.47L150.29 28.78C150.29 28.78 150.27 28.78 150.26 28.78C150.25 28.78 150.24 28.78 150.23 28.77C150.2 28.77 150.18 28.75 150.16 28.74C150.13 28.73 150.11 28.72 150.09 28.71C150.07 28.71 150.06 28.7 150.04 28.69C150.03 28.69 150.02 28.68 150.01 28.68C149.95 28.65 149.88 28.62 149.82 28.58M147.93 28.05C147.93 28.05 147.92 28.05 147.91 28.05C147.93 28.05 147.94 28.05 147.96 28.06C147.96 28.06 147.94 28.06 147.93 28.06" fill="#335C82"/>
<path d="M154.96 15.3H155.06L158.21 15.18C158.46 15.14 158.7 15.07 158.93 14.96C159.16 14.85 159.38 14.72 159.58 14.55C159.78 14.38 159.97 14.19 160.13 13.96C160.29 13.74 160.43 13.5 160.54 13.25C160.65 13 160.72 12.74 160.77 12.47C160.82 12.2 160.83 11.93 160.82 11.65C160.8 11.37 160.75 11.11 160.68 10.86C160.6 10.61 160.49 10.38 160.36 10.16C160.23 9.95002 160.06 9.75002 159.88 9.59002C159.85 9.56002 159.82 9.54002 159.79 9.51002C159.76 9.49002 159.73 9.46002 159.7 9.44002C159.7 9.44002 159.69 9.44002 159.68 9.43002C159.62 9.39002 159.56 9.35002 159.49 9.31002C159.49 9.31002 159.47 9.30002 159.46 9.29002C159.44 9.28002 159.41 9.26002 159.39 9.25002C159.37 9.24002 159.34 9.23002 159.32 9.21002C159.31 9.21002 159.29 9.19002 159.28 9.19002C159.27 9.19002 159.26 9.19002 159.25 9.18002C159.19 9.15002 159.12 9.13002 159.06 9.10002C159.05 9.10002 159.04 9.10002 159.03 9.09002C158.98 9.07002 158.93 9.06002 158.88 9.05002C158.85 9.05002 158.82 9.03002 158.78 9.02002C158.73 9.01002 158.69 9.00002 158.64 9.00002C158.63 9.00002 158.61 9.00002 158.6 9.00002C158.6 9.00002 158.04 8.98002 157.54 9.19002C157.57 9.22002 157.59 9.25002 157.61 9.28002C157.61 9.29002 157.63 9.30002 157.63 9.31002C157.63 9.32002 157.65 9.34002 157.66 9.35002C157.68 9.39002 157.71 9.42002 157.73 9.46002C157.75 9.49002 157.77 9.53002 157.79 9.56002C157.79 9.58002 157.81 9.59002 157.82 9.61002C157.82 9.62002 157.83 9.63002 157.84 9.65002C157.87 9.70002 157.89 9.76002 157.92 9.81002C157.92 9.81002 157.92 9.83002 157.93 9.84002C157.94 9.87002 157.95 9.90002 157.97 9.92002C157.97 9.94002 157.99 9.97002 158 9.99002C158 10 158 10.01 158.01 10.03C158.03 10.09 158.05 10.15 158.07 10.21C158.07 10.22 158.07 10.24 158.08 10.25C158.08 10.27 158.09 10.3 158.1 10.32C158.1 10.35 158.11 10.39 158.12 10.42C158.12 10.42 158.12 10.44 158.12 10.45C158.13 10.51 158.14 10.58 158.15 10.64C158.15 10.66 158.15 10.67 158.15 10.69C158.15 10.76 158.17 10.82 158.17 10.89C158.22 11.69 157.98 12.48 157.51 13.12C157.04 13.76 156.38 14.18 155.66 14.29L155.16 14.31H155.06L152.52 14.41H152.42L148.07 14.58V14.69L147.98 15.47V15.58L152.32 15.41H152.42L154.96 15.31V15.3Z" fill="#335C82"/>
<path d="M152.4 1.9C152.4 1.9 152.31 1.88 152.26 1.87H152.24C152.24 1.87 152.23 1.87 152.22 1.87C152.2 1.87 152.19 1.87 152.17 1.87C152.17 1.87 151.66 1.87 151.16 2.06C151.54 2.52 151.76 3.11 151.8 3.76C151.85 4.56 151.61 5.35 151.14 5.99C150.66 6.62999 150.01 7.04999 149.29 7.16L148.79 7.18999V7.29999L148.7 8.12V8.22999L151.84 8.06999C152.09 8.02999 152.33 7.96 152.56 7.85C152.79 7.74 153.01 7.60999 153.21 7.43999C153.41 7.26999 153.6 7.08 153.76 6.85C153.92 6.63 154.06 6.39 154.17 6.14C154.28 5.89 154.36 5.62999 154.4 5.35999C154.45 5.08999 154.46 4.82 154.45 4.54C154.43 4.26 154.38 4 154.31 3.75C154.23 3.5 154.12 3.27 153.99 3.05C153.85 2.84 153.69 2.64 153.51 2.48C153.45 2.43 153.39 2.38 153.32 2.33C153.32 2.33 153.32 2.33 153.3 2.32C153.24 2.28 153.18 2.23 153.11 2.2C153.11 2.2 153.09 2.2 153.08 2.19C153.06 2.18 153.03 2.16 153.01 2.15C152.99 2.14 152.96 2.12 152.94 2.11C152.92 2.11 152.91 2.09 152.9 2.09C152.9 2.09 152.88 2.09 152.87 2.08C152.81 2.05 152.74 2.03 152.67 2C152.66 2 152.65 2 152.64 1.99C152.62 1.99 152.59 1.97 152.57 1.97C152.55 1.97 152.52 1.96 152.5 1.95C152.47 1.95 152.44 1.93 152.41 1.93" fill="#335C82"/>
<path d="M148.06 14.68V14.57L148.69 8.23004V8.12004L148.78 7.30004V7.19004L148.97 5.39004C148.92 4.59004 149.16 3.80004 149.63 3.16004C150.03 2.61004 150.57 2.23004 151.16 2.06004C151.66 1.86004 152.17 1.87004 152.17 1.87004C152.18 1.87004 152.2 1.87004 152.21 1.87004H152.23H152.25C152.3 1.87004 152.34 1.88004 152.39 1.90004C152.42 1.90004 152.45 1.92004 152.48 1.92004C152.51 1.92004 152.53 1.93004 152.55 1.94004C152.55 1.94004 152.56 1.94004 152.57 1.94004C152.47 1.91004 152.38 1.88004 152.27 1.85004L151.95 1.75004C151.74 1.68004 151.51 1.61004 151.29 1.54004C151.01 1.45004 150.73 1.36004 150.46 1.28004L150.04 1.15004C150.04 1.15004 150.06 1.15004 150.07 1.15004C150.08 1.15004 150.09 1.15004 150.1 1.16004C150.15 1.18004 150.2 1.20004 150.25 1.22004C150.27 1.22004 150.28 1.23004 150.29 1.24004C150.27 1.23004 150.24 1.22004 150.22 1.21004L149.79 1.08004C149.79 1.08004 149.72 1.07004 149.68 1.06004C149.65 1.06004 149.62 1.05004 149.59 1.05004C149.54 1.05004 149.48 1.04004 149.43 1.04004C149.4 1.04004 149.38 1.04004 149.35 1.04004C149.27 1.04004 149.19 1.04004 149.11 1.04004C149.09 1.04004 149.06 1.04004 149.04 1.04004C149.01 1.04004 148.99 1.04004 148.97 1.04004C148.94 1.04004 148.92 1.04004 148.89 1.04004C148.64 1.08004 148.4 1.15004 148.17 1.26004C147.94 1.37004 147.72 1.50004 147.52 1.67004C147.32 1.84004 147.13 2.03004 146.97 2.25004C146.81 2.47004 146.67 2.71004 146.56 2.96004C146.45 3.21004 146.38 3.47004 146.33 3.74004C146.28 4.01004 146.27 4.28004 146.28 4.55004L146.01 7.28004L145.92 8.21004V8.32004L145.29 14.63L145.2 15.53V15.64L145.01 17.43C145.1 18.96 144.14 20.38 142.82 20.76C142.82 20.76 142.74 20.78 142.7 20.79C142.73 20.82 142.75 20.85 142.78 20.88C142.79 20.9 142.81 20.91 142.82 20.93C142.83 20.95 142.85 20.96 142.86 20.98C142.87 20.99 142.89 21.01 142.9 21.02C142.91 21.03 142.93 21.05 142.94 21.06C142.95 21.06 142.96 21.08 142.97 21.09C142.99 21.11 143 21.12 143.02 21.14C143.03 21.14 143.04 21.16 143.05 21.17C143.06 21.17 143.07 21.19 143.08 21.19C143.1 21.21 143.12 21.22 143.14 21.24C143.14 21.24 143.15 21.25 143.16 21.26C143.17 21.27 143.19 21.28 143.2 21.3C143.2 21.3 143.21 21.3 143.22 21.31C143.24 21.32 143.26 21.33 143.27 21.35C143.29 21.37 143.31 21.38 143.33 21.39C143.35 21.4 143.37 21.42 143.4 21.43C143.4 21.43 143.42 21.44 143.43 21.45C143.49 21.49 143.56 21.52 143.62 21.55C143.63 21.55 143.64 21.55 143.65 21.57C143.67 21.58 143.7 21.59 143.72 21.6L144.15 21.73C144.15 21.73 144.18 21.73 144.2 21.74C144.22 21.74 144.24 21.74 144.25 21.74C144.28 21.74 144.31 21.75 144.34 21.76C144.39 21.76 144.44 21.76 144.5 21.77C144.53 21.77 144.55 21.77 144.58 21.77C144.66 21.77 144.74 21.77 144.82 21.77C144.84 21.77 144.87 21.77 144.89 21.77C144.91 21.77 144.94 21.77 144.96 21.77C144.99 21.77 145.01 21.77 145.04 21.77C145.29 21.73 145.53 21.66 145.76 21.55C145.99 21.44 146.21 21.31 146.41 21.14C146.61 20.97 146.8 20.78 146.96 20.55C147.12 20.33 147.26 20.09 147.37 19.84C147.48 19.59 147.56 19.33 147.6 19.06C147.65 18.79 147.66 18.52 147.65 18.25L147.91 15.57H147.92V15.46L148 14.68H148.06Z" fill="#335C82"/>
<path d="M146.05 7.32007L137.74 7.75007V7.86007L140.29 8.65007L145.95 8.36007L145.96 8.25007L146.05 7.32007Z" fill="#335C82"/>
<path d="M143.49 21.48C143.49 21.48 143.47 21.47 143.46 21.46C143.44 21.45 143.41 21.43 143.39 21.42C143.37 21.41 143.34 21.39 143.32 21.38C143.3 21.37 143.29 21.36 143.27 21.35C143.27 21.35 143.26 21.35 143.25 21.34C143.23 21.33 143.22 21.32 143.2 21.3C143.2 21.3 143.19 21.29 143.18 21.28C143.16 21.26 143.14 21.25 143.12 21.23C143.12 21.23 143.1 21.21 143.09 21.21C143.09 21.21 143.07 21.19 143.06 21.18C143.04 21.16 143.03 21.15 143.01 21.13C143.01 21.13 142.99 21.11 142.98 21.1C142.97 21.09 142.95 21.07 142.94 21.06C142.93 21.04 142.91 21.03 142.9 21.02C142.89 21 142.87 20.99 142.86 20.97C142.85 20.95 142.83 20.94 142.82 20.92C142.79 20.89 142.77 20.86 142.74 20.83C142.64 20.71 142.56 20.58 142.49 20.44C142.28 20.05 142.15 19.6 142.12 19.11C142.12 19.09 142.12 19.08 142.12 19.06C142.11 18.79 142.12 18.53 142.17 18.27C142.22 18.01 142.29 17.76 142.39 17.51C142.49 17.27 142.62 17.04 142.78 16.82C142.78 16.81 142.8 16.8 142.8 16.79C142.95 16.59 143.11 16.41 143.29 16.26C143.47 16.1 143.67 15.96 143.88 15.86C144.08 15.76 144.29 15.68 144.5 15.63C144.57 15.61 144.64 15.6 144.71 15.59L145.22 15.57L145.31 14.67L142.16 14.79C141.91 14.83 141.67 14.9 141.44 15.01C141.21 15.12 140.99 15.25 140.79 15.42C140.59 15.59 140.4 15.78 140.24 16.01C140.08 16.23 139.94 16.47 139.83 16.72C139.72 16.97 139.64 17.23 139.6 17.5C139.55 17.77 139.54 18.04 139.55 18.32C139.57 18.6 139.62 18.86 139.69 19.11C139.77 19.36 139.88 19.59 140.01 19.81C140.15 20.02 140.31 20.22 140.49 20.38C140.55 20.43 140.61 20.48 140.67 20.53C140.67 20.53 140.68 20.53 140.69 20.54C140.75 20.58 140.81 20.62 140.88 20.66C140.88 20.66 140.9 20.67 140.91 20.68C140.93 20.7 140.96 20.71 140.98 20.72C141 20.73 141.03 20.75 141.05 20.76C141.06 20.76 141.08 20.77 141.09 20.78C141.1 20.78 141.11 20.79 141.12 20.79C141.18 20.82 141.25 20.85 141.32 20.87C141.32 20.87 141.34 20.87 141.35 20.88C141.4 20.9 141.45 20.91 141.49 20.92C141.46 20.92 141.43 20.91 141.4 20.9L141.57 20.95C141.57 20.95 141.66 20.98 141.7 20.99L141.94 21.06C142 21.08 142.05 21.1 142.11 21.11H142.15L142.53 21.24C142.66 21.28 142.8 21.32 142.93 21.36L143.07 21.4C143.07 21.4 143.16 21.43 143.2 21.44L143.46 21.52L143.71 21.6L143.92 21.67C143.92 21.67 143.91 21.67 143.9 21.67C143.89 21.67 143.88 21.67 143.87 21.66C143.85 21.66 143.83 21.64 143.81 21.64C143.78 21.63 143.75 21.62 143.72 21.61C143.71 21.61 143.69 21.6 143.67 21.59C143.66 21.59 143.65 21.58 143.64 21.57C143.58 21.54 143.51 21.51 143.45 21.47" fill="#335C82"/>
<path d="M157.58 8.63003C157.34 8.56003 157.1 8.48003 156.87 8.41003L156.4 8.26003C156.4 8.26003 156.43 8.27003 156.45 8.28003C156.46 8.28003 156.47 8.28003 156.48 8.29003C156.5 8.29003 156.53 8.31003 156.55 8.32003C156.58 8.32003 156.6 8.34003 156.63 8.35003H156.6L156.17 8.21003C156.13 8.21003 156.1 8.20003 156.06 8.19003C156.03 8.19003 156 8.18003 155.97 8.17003C155.92 8.17003 155.87 8.17003 155.81 8.16003C155.78 8.16003 155.76 8.16003 155.73 8.16003C155.65 8.16003 155.57 8.16003 155.49 8.16003C155.47 8.16003 155.44 8.16003 155.42 8.16003C155.4 8.16003 155.37 8.16003 155.35 8.16003C155.32 8.16003 155.3 8.16003 155.27 8.16003C155.02 8.20003 154.78 8.27003 154.55 8.38003C154.32 8.49003 154.1 8.62003 153.9 8.79003C153.7 8.96003 153.51 9.15003 153.35 9.37003C153.19 9.59003 153.05 9.83003 152.94 10.08C152.83 10.33 152.75 10.59 152.71 10.86C152.66 11.13 152.65 11.4 152.66 11.67L152.4 14.34L152.17 16.67L151.68 21.7L151.59 22.63V22.74L151.4 24.54C151.49 26.06 150.53 27.49 149.2 27.87C149.2 27.87 149.12 27.89 149.09 27.9C149.11 27.93 149.14 27.96 149.17 27.99C149.18 28.01 149.2 28.02 149.21 28.04C149.22 28.06 149.24 28.07 149.25 28.08C149.26 28.09 149.28 28.11 149.29 28.12C149.3 28.14 149.32 28.15 149.33 28.16C149.33 28.16 149.35 28.18 149.36 28.19C149.38 28.21 149.39 28.22 149.41 28.24C149.43 28.26 149.45 28.27 149.47 28.29C149.49 28.31 149.51 28.32 149.53 28.34C149.53 28.34 149.54 28.35 149.55 28.36C149.55 28.36 149.56 28.37 149.57 28.38C149.57 28.38 149.58 28.39 149.59 28.4C149.59 28.4 149.6 28.4 149.6 28.41C149.6 28.41 149.62 28.42 149.63 28.43C149.63 28.43 149.65 28.44 149.66 28.45C149.68 28.46 149.7 28.48 149.72 28.49C149.74 28.5 149.76 28.52 149.79 28.53C149.79 28.53 149.81 28.54 149.82 28.55C149.88 28.59 149.95 28.62 150.01 28.65C150.02 28.65 150.03 28.65 150.04 28.66C150.06 28.67 150.09 28.68 150.11 28.69L150.54 28.82C150.54 28.82 150.57 28.82 150.59 28.83C150.61 28.83 150.63 28.83 150.64 28.83C150.67 28.83 150.7 28.84 150.73 28.85C150.78 28.85 150.83 28.85 150.89 28.86C150.92 28.86 150.94 28.86 150.97 28.86C151.05 28.86 151.13 28.86 151.21 28.86C151.23 28.86 151.26 28.86 151.28 28.86C151.3 28.86 151.33 28.86 151.35 28.86C151.38 28.86 151.4 28.86 151.43 28.86C151.68 28.82 151.92 28.75 152.15 28.64C152.38 28.53 152.6 28.4 152.8 28.23C153 28.06 153.19 27.87 153.35 27.64C153.51 27.42 153.65 27.18 153.76 26.93C153.87 26.68 153.95 26.42 153.99 26.15C154.04 25.88 154.05 25.61 154.04 25.34L154.32 22.5L154.4 21.68V21.57L154.92 16.38L155.13 14.25L155.21 13.43V13.4L155.3 12.46C155.25 11.66 155.49 10.87 155.96 10.23C156.36 9.68003 156.9 9.30003 157.49 9.13003C157.99 8.93003 158.55 8.94003 158.55 8.94003C158.55 8.94003 158.58 8.94003 158.6 8.94003C158.65 8.94003 158.69 8.95003 158.74 8.96003C158.77 8.96003 158.8 8.98003 158.84 8.99003C158.87 8.99003 158.9 9.00003 158.93 9.01003L157.55 8.58003L157.58 8.63003Z" fill="#335C82"/>
</svg>
