<svg width="95" height="85" viewBox="0 0 95 85" fill="none" xmlns="http://www.w3.org/2000/svg">
<g id="Topper">
<path id="Vector" d="M86.5521 25.7619C85.6954 21.9003 83.9369 18.5064 81.265 15.6157C79.358 13.5537 77.0792 12.0067 74.5423 10.8188C72.4963 9.85986 70.3408 9.24028 68.1228 9.09821C65.3922 8.92259 62.646 8.94232 59.9702 9.78882C57.4489 10.586 55.0939 11.693 53.0656 13.4037C51.802 14.4692 50.6519 15.669 49.3727 16.8805C49.267 16.7582 49.1086 16.5431 48.9169 16.3615C47.669 15.1914 46.4915 13.9246 45.1438 12.8848C42.2333 10.6432 38.8553 9.41589 35.2485 9.10807C32.5786 8.88115 29.8891 8.97389 27.2328 9.75133C23.7179 10.7813 20.6901 12.5809 18.1238 15.1362C16.2324 17.0186 14.7595 19.2424 13.7072 21.7346C12.8133 23.8498 12.1776 26.044 12.0563 28.3231C11.9077 31.0658 12.0426 33.8046 12.5884 36.5296C13.2436 39.7893 14.3272 42.8853 15.7923 45.8391C18.0906 50.4683 21.1282 54.5725 24.7057 58.2841C27.272 60.9479 29.9419 63.5032 32.8778 65.7388C35.3737 67.637 37.9399 69.4583 40.5805 71.1434C43.1194 72.7634 45.7873 74.1762 48.4123 75.6541C48.8954 75.9264 49.4333 76.1672 50.022 75.8475C51.8137 74.8747 53.623 73.9394 55.3873 72.9193C55.6768 72.7516 55.9506 72.2168 55.9135 71.8873C55.8587 71.3841 55.6475 70.6698 55.2817 70.4844C54.8044 70.2397 54.0318 70.2318 53.5272 70.4508C52.3027 70.9816 51.1448 71.6801 49.9888 72.3609C49.582 72.5996 49.2886 72.5779 48.8895 72.3648C44.1443 69.8233 39.6299 66.9267 35.3854 63.5979C32.3556 61.2202 29.4764 58.6886 26.8377 55.8709C24.3614 53.2288 22.1003 50.4268 20.2226 47.319C18.8729 45.0834 17.713 42.755 16.8622 40.2727C16.0329 37.8576 15.4304 35.4088 15.2152 32.8456C15.0353 30.6948 14.959 28.5441 15.4304 26.4544C16.4025 22.1371 18.5972 18.5557 22.0905 15.7992C24.6627 13.7688 27.5888 12.5552 30.779 12.2119C33.2279 11.9475 35.7199 12.0758 38.1375 12.8512C42.2587 14.1733 45.5624 16.5569 47.9331 20.229C48.8876 21.7069 50.022 21.6931 50.9961 20.2014C52.1971 18.3624 53.6563 16.7443 55.4186 15.4716C59.755 12.3421 64.6274 11.4305 69.7873 12.5237C74.067 13.4294 77.5643 15.7124 80.2401 19.276C82.6421 22.4765 83.7804 26.0835 83.9037 30.0378C83.9408 31.1941 83.8059 32.3701 83.6161 33.5145C83.2934 35.4463 82.8963 37.3682 82.4621 39.2782C82.2587 40.1761 82.601 41.0186 83.4636 41.3225C84.1462 41.5612 85.1751 41.0758 85.3883 40.2964C85.7775 38.8718 86.0905 37.4234 86.4093 35.9791C86.6284 34.9885 86.8044 33.9881 87 32.9936V27.9699C86.8513 27.2339 86.7144 26.4959 86.5521 25.7619Z" fill="white"/>
<path id="Vector_2" d="M81.7599 42.7501C80.4191 41.869 78.9573 41.3368 77.3433 41.1476C75.7527 40.9623 74.1777 40.9051 72.6399 41.3486C70.8463 41.867 69.2186 42.7303 67.9325 44.1377C67.5988 44.5023 67.3802 44.4688 67.0484 44.1318C66.6269 43.7041 66.1682 43.296 65.6725 42.9629C63.1042 41.2363 60.286 40.6844 57.2453 41.1673C54.2945 41.6364 51.9466 43.1502 50.2312 45.5431C48.4317 48.0522 47.7057 50.8827 48.1078 54.0364C48.3947 56.2815 49.0211 58.3807 49.9833 60.401C50.9806 62.4943 52.2472 64.4161 53.8671 66.0619C55.5279 67.7492 57.1848 69.4699 59.0369 70.9246C60.9788 72.4521 63.1178 73.7393 65.2373 75.0165C66.1916 75.5921 67.1928 76.4633 68.4731 75.7024C68.8186 75.4974 69.1757 75.3161 69.527 75.1229C73.0302 73.1992 76.2894 70.9167 79.1817 68.1473C80.4718 66.9134 81.6584 65.5494 82.7415 64.1263C84.4648 61.8596 85.7666 59.3524 86.4282 56.5397C86.5921 55.8399 86.8087 55.154 87 54.4602V50.7703C86.9044 50.5417 86.7619 50.3209 86.717 50.0805C86.1276 46.9011 84.4102 44.4964 81.7579 42.752L81.7599 42.7501ZM83.2255 56.5298C82.4624 58.9739 81.1822 61.0889 79.5935 63.056C76.5626 66.8129 72.7043 69.5113 68.6858 72.0638C67.2299 72.9883 66.3536 72.0993 65.4188 71.4922C63.3462 70.1499 61.2677 68.7761 59.3902 67.1756C55.8402 64.148 52.8971 60.6296 51.5934 55.972C50.7757 53.0528 50.7757 50.2027 52.5478 47.6363C54.1208 45.3598 56.33 44.1101 59.64 44.1042C62.1244 44.1475 64.4625 45.3479 66.135 47.8768C66.9196 49.0634 68.1199 48.9353 68.8771 47.8177C70.7565 45.0444 73.3893 43.7514 76.6446 44.1554C80.3703 44.6167 83.0148 47.0628 83.7427 50.7822C84.1155 52.6862 83.8208 54.6336 83.2275 56.5298H83.2255Z" fill="white"/>
</g>
</svg>
