<svg width="97" height="81" viewBox="0 0 97 81" fill="none" xmlns="http://www.w3.org/2000/svg">
<g id="Group 128">
<path id="Vector" d="M94.2169 49.6885C93.1454 48.5867 92.0663 47.49 90.9495 46.4336C88.9397 44.5319 86.6129 44.0263 84.0196 45.035C83.5341 45.2237 83.2524 45.1884 82.8877 44.8137C81.1772 43.0629 79.4491 41.3298 77.6934 39.6244C77.2406 39.1842 77.2205 38.9327 77.6481 38.4296C80.7647 34.7546 79.3661 29.4673 74.846 27.8574C74.2498 27.6436 74.1769 27.382 74.2498 26.8513C74.7101 23.448 73.0097 20.6458 69.7599 19.524C69.2341 19.3429 69.2266 19.1617 69.2945 18.6813C69.785 15.2327 68.0947 12.4306 64.7945 11.2534C64.2612 11.0622 64.2411 10.8509 64.3266 10.3805C64.958 6.942 62.7771 3.68206 59.3713 2.83437C58.4381 2.60296 57.4999 2.76897 56.5717 2.59038C52.1798 1.74773 47.7854 0.912619 43.381 0.135365C41.9095 -0.12372 40.4028 -0.0784432 39.1476 0.877403C38.6621 1.24717 38.2848 1.29999 37.7239 1.17673C33.1409 0.183157 29.1565 3.88832 29.7954 8.54179C29.8759 9.13542 29.8306 9.43726 29.149 9.67119C26.0349 10.7377 24.2691 13.7964 24.8627 17.0237C24.9608 17.5594 24.7948 17.7154 24.3446 17.8789C20.3023 19.3605 18.6799 23.3901 20.5815 27.2588C20.8356 27.7719 20.6998 27.9002 20.247 28.1291C16.1997 30.1791 15.2137 34.9911 18.1441 38.4271C18.5491 38.9025 18.6095 39.154 18.124 39.6219C16.3809 41.2946 14.6754 43.0076 12.9901 44.7357C12.5851 45.1507 12.2531 45.2388 11.6897 45.0501C9.38556 44.2703 7.27264 44.7407 5.48168 46.3405C4.12589 47.5504 2.85059 48.8584 1.61805 50.1941C-0.487328 52.473 -0.555243 56.143 1.51492 58.447C2.96127 60.0544 4.54344 61.5385 6.08286 63.0603C6.52305 63.4954 7.07644 63.7092 7.71535 63.5835C9.2774 63.2716 9.84085 61.5183 8.71144 60.316C7.44369 58.9677 6.09292 57.7 4.7975 56.3769C3.51465 55.0639 3.51465 53.7156 4.78241 52.4252C5.81623 51.3738 6.85508 50.3249 7.91658 49.3036C8.80702 48.4509 10.188 48.305 11.0105 48.9565C11.4758 49.3237 11.9236 49.7187 12.3462 50.1362C15.1936 52.966 18.0511 55.7883 20.8708 58.6508C24.3697 62.2025 28.0145 65.6058 31.3851 69.2858C32.9069 70.946 32.9396 71.9672 31.3273 73.5821C30.4846 74.4248 29.6445 75.2725 28.7968 76.1101C27.3404 77.5539 26.0223 77.5589 24.5709 76.1227C23.3661 74.9304 22.1813 73.7205 20.9739 72.5332C19.9804 71.5547 18.7981 71.4767 17.9907 72.3119C17.1757 73.157 17.2587 74.216 18.2397 75.2121C19.1201 76.1076 20.0433 76.9603 20.8935 77.8809C22.1838 79.277 23.5849 80.4894 25.4715 81H27.9189C29.1364 80.5221 30.3463 80.0492 31.2845 79.0631C32.3209 77.9715 33.4201 76.9376 34.4715 75.8611C36.4561 73.8261 36.9466 71.1372 35.7242 68.5916C35.4525 68.0281 35.6034 67.7741 35.9707 67.4144C37.9151 65.4977 39.8821 63.6036 41.7535 61.6164C42.6968 60.6128 43.7533 60.2355 45.089 60.2481C47.5339 60.2682 49.9713 60.6354 52.4213 60.4367C52.786 60.4065 52.9948 60.6103 53.2212 60.8367C55.5052 63.1231 57.7866 65.4121 60.0882 67.6785C60.4378 68.0206 60.4529 68.2872 60.2794 68.7249C59.2506 71.3158 59.726 73.6425 61.6352 75.6548C62.7143 76.7918 63.8386 77.8885 64.963 78.9827C67.5061 81.4578 71.3244 81.5534 73.8474 79.0606C80.6993 72.2917 87.516 65.4876 94.2949 58.6432C96.838 56.075 96.7399 52.2793 94.2195 49.686L94.2169 49.6885ZM42.4629 3.92857C45.6499 4.29581 48.7589 5.07558 52.1069 5.64154C50.4694 7.28409 48.9752 8.77823 47.4836 10.2774C47.2597 10.5013 47.0384 10.4434 46.8095 10.3026C44.6311 8.97192 42.8326 7.27151 41.7435 4.92718C41.3083 3.98894 41.4492 3.81286 42.4629 3.93108V3.92857ZM33.7446 6.57224C34.2803 5.17871 35.8374 4.49704 37.2334 5.01018C37.6006 5.14601 37.8119 5.36485 37.9704 5.76731C39.5501 9.75923 42.4377 12.506 46.2812 14.2894C47.2899 14.7573 47.5415 15.0239 47.554 16.0678C47.5742 17.1746 47.0987 18.0047 46.1328 18.5329C45.1292 19.0813 44.1457 18.9857 43.2175 18.3367C42.9886 18.1757 42.7798 17.9795 42.5811 17.7808C39.9148 15.1246 37.256 12.4582 34.5847 9.80451C33.6565 8.88388 33.2591 7.83496 33.7446 6.56972V6.57224ZM29.3854 13.9197C30.3966 12.9211 32.0844 12.8104 33.1308 13.8191C35.5405 16.1458 37.8949 18.5329 40.2569 20.9099C40.7348 21.3904 40.9637 22.0092 40.9436 22.5374C40.9511 23.8479 40.4405 24.7006 39.4243 25.1962C38.3729 25.7093 37.2862 25.6338 36.4511 24.8289C34.0187 22.4795 31.6241 20.0899 29.2722 17.6601C28.2635 16.6187 28.3843 14.9107 29.3879 13.9197H29.3854ZM24.42 22.2003C25.4991 21.1187 27.2046 21.1212 28.3818 22.2682C30.1098 23.951 31.8127 25.6615 33.5031 27.3845C34.3759 28.275 34.6048 29.3516 34.0841 30.4936C33.6188 31.5148 32.7761 32.0556 31.6342 32.0783C30.8242 32.1235 30.1576 31.8116 29.6017 31.2608C27.8862 29.5629 26.1632 27.875 24.4829 26.1419C23.3032 24.927 23.3133 23.3071 24.4225 22.1978L24.42 22.2003ZM21.7512 31.6758C22.7498 31.13 23.7635 31.1803 24.6615 31.867C25.6073 32.5914 26.455 33.4416 27.1819 34.3849C27.8485 35.2502 27.9214 36.2261 27.4083 37.2071C26.9002 38.1781 26.0928 38.6887 24.986 38.6937C23.2554 38.7038 20.3753 35.8765 20.3401 34.1434C20.3174 33.0366 20.7853 32.204 21.7512 31.6758ZM62.5181 64.7229C60.8126 62.9672 59.0745 61.2416 57.3238 59.5337C56.9414 59.1614 56.9238 58.9879 57.359 58.6256C58.1765 57.944 58.9412 57.1944 59.6757 56.4247C60.5133 55.5468 60.5083 54.4199 59.7386 53.6502C58.989 52.9031 57.6936 52.8377 56.9842 53.7558C54.9291 56.4146 52.205 56.88 49.0884 56.6007C47.2572 56.4372 45.4109 56.2335 43.5495 56.5052C42.0353 56.7265 40.7222 57.2522 39.6381 58.3439C37.5604 60.4367 35.4575 62.5044 33.3874 64.6072C32.9723 65.0273 32.7359 65.0902 32.2756 64.6299C26.8524 59.1815 21.4091 53.7533 15.9507 48.3377C15.4879 47.8774 15.4678 47.6259 15.9507 47.163C17.6687 45.5079 19.349 43.815 21.0167 42.1121C21.3764 41.7449 21.633 41.6795 22.131 41.9059C26.3946 43.8578 30.9173 41.2846 31.5034 36.5909C31.5537 36.1909 31.6518 35.9997 32.097 35.9343C35.5959 35.4237 37.6786 33.4592 38.144 29.905C38.2018 29.4673 38.4181 29.3642 38.8055 29.2912C42.4302 28.6095 44.1155 26.9569 44.767 23.3876C44.8701 22.8267 45.094 22.6959 45.6021 22.6405C48.9375 22.2758 51.4328 19.4812 51.4428 15.7509C51.4302 15.112 51.229 14.1335 50.7486 13.238C50.5322 12.8355 50.5775 12.5941 50.8995 12.2771C52.5571 10.6522 54.1745 8.98449 55.8422 7.3671C57.0396 6.20248 58.7022 6.20751 59.7989 7.31176C60.8755 8.39841 60.8529 10.1089 59.7159 11.2785C58.6444 12.3803 57.5376 13.4493 56.456 14.5435C55.4926 15.522 55.4146 16.6187 56.2321 17.4538C57.037 18.2763 58.1815 18.2134 59.15 17.2777C59.7134 16.7319 60.2492 16.1584 60.8202 15.6201C61.9798 14.5209 63.6399 14.4957 64.7165 15.5396C65.8509 16.6388 65.8761 18.2788 64.7241 19.4913C63.6651 20.6056 62.5508 21.6671 61.4717 22.7613C60.4831 23.7624 60.39 24.922 61.2151 25.742C62.0552 26.5746 63.162 26.4715 64.1908 25.4653C64.6612 25.005 65.119 24.5296 65.5919 24.0718C66.915 22.794 68.5273 22.7034 69.6945 23.8404C70.8566 24.9698 70.771 26.6802 69.4706 28.0109C68.5273 28.9768 67.5564 29.915 66.6131 30.8784C65.6623 31.8519 65.607 32.9637 66.4421 33.7837C67.242 34.5685 68.3437 34.5131 69.2844 33.6227C69.8076 33.1272 70.2881 32.5838 70.8289 32.1059C72.0388 31.0319 73.6336 31.0771 74.7127 32.1814C75.7238 33.2177 75.7565 34.8854 74.6925 36.0073C73.3317 37.4411 71.8979 38.8019 70.5145 40.2155C69.6919 41.0582 69.6668 42.2329 70.4088 42.99C71.1609 43.7572 72.3004 43.7446 73.1908 42.9498C73.4248 42.741 73.6663 42.5322 73.8549 42.2832C74.2372 41.7826 74.5265 41.8405 74.9541 42.2807C76.6168 43.9911 78.3046 45.6764 80.0176 47.3341C80.4553 47.7567 80.3874 47.9705 79.9924 48.3629C74.5164 53.8036 69.053 59.257 63.6072 64.728C63.1771 65.1606 62.9482 65.1682 62.5206 64.728L62.5181 64.7229ZM91.0652 56.4901C86.2507 61.302 81.4312 66.1089 76.6168 70.9183C74.929 72.6036 73.2487 74.294 71.5558 75.9717C70.1271 77.3879 68.8141 77.3954 67.4029 76.0044C66.4194 75.036 65.451 74.0525 64.47 73.0816C63.9317 72.5508 63.5997 71.9371 63.645 71.1623C63.6047 70.3826 63.9569 69.7738 64.4876 69.2456C71.1458 62.5949 77.799 55.9417 84.4673 49.3011C85.7502 48.0233 87.1261 48.061 88.4316 49.3413C89.327 50.2192 90.2099 51.1097 91.0979 51.9976C92.7052 53.6049 92.7002 54.8601 91.0677 56.4901H91.0652Z" fill="#213445"/>
<path id="Vector_2" d="M12.9951 65.5783C11.9437 65.606 11.1387 66.4662 11.1564 67.5428C11.174 68.6068 12.0292 69.4268 13.0932 69.3992C14.1622 69.3715 14.9496 68.5339 14.9294 67.4472C14.9093 66.3857 14.044 65.5506 12.9951 65.5783Z" fill="#213445"/>
<path id="Vector_3" d="M64.4247 47.1203C63.3834 47.0926 62.4778 47.9378 62.4376 48.9741C62.3998 49.9979 63.2727 50.9059 64.3141 50.9236C65.3856 50.9412 66.2635 50.1287 66.3012 49.0823C66.3364 48.0711 65.4535 47.148 64.4247 47.1228V47.1203Z" fill="#213445"/>
</g>
</svg>
