<svg width="70" height="70" viewBox="0 0 70 70" fill="none" xmlns="http://www.w3.org/2000/svg">
<g id="Topper" clip-path="url(#clip0_573_2637)">
<path id="Vector" d="M69.3628 32.2619C68.8242 31.8163 68.1212 31.8748 67.568 32.4262C66.2771 33.7117 65.0026 35.0155 63.6953 36.2828C63.29 36.6772 63.1731 37.1172 63.1293 37.6541C63.0581 38.5178 62.9613 39.387 62.7586 40.2269C62.3003 42.1351 61.2833 43.7511 59.9103 45.1279C52.8332 52.2238 45.7416 59.3051 38.6572 66.3918C38.5933 66.4557 38.5331 66.5251 38.4618 66.5817C37.4448 67.3943 36.3438 67.5349 35.5076 66.5854C34.748 65.7198 34.4997 64.7849 35.6245 63.6674C39.5994 59.7177 43.5542 55.7498 47.5127 51.7837C47.6861 51.6103 47.845 51.4167 47.9783 51.2122C48.5735 50.2974 48.2138 49.3223 47.1767 49.0849C46.6089 48.9553 46.1542 49.1634 45.7324 49.5889C40.799 54.5447 35.8509 59.484 30.9064 64.4288C29.9953 65.34 28.688 65.3455 27.8444 64.3923C27.1762 63.6382 27.0319 62.5572 28.111 61.4798C33.0098 56.5861 37.9031 51.6888 42.8001 46.7914C42.8969 46.6947 42.9991 46.6034 43.0886 46.5011C43.4319 46.0994 43.5706 45.6721 43.3515 45.1425C43.1233 44.5874 42.7764 44.3026 42.1501 44.2679C41.5439 44.235 41.1258 44.5016 40.7369 44.8906C38.7558 46.8718 36.7766 48.853 34.7955 50.8342C30.9795 54.6524 27.1506 58.4578 23.3583 62.2979C22.7704 62.8932 21.3754 63.105 20.6597 62.5572C19.9184 61.9893 19.6354 60.8261 20.101 59.988C20.2726 59.6794 20.5063 59.3927 20.7583 59.1407C26.5189 53.3705 32.2795 47.5985 38.062 41.8503C38.597 41.3189 38.6627 40.7875 38.4436 40.1521C38.2245 39.5148 37.684 39.5221 37.1253 39.4801C36.6451 39.4436 36.3767 39.6791 36.0846 39.9713C30.9959 45.0622 25.9072 50.1513 20.813 55.2349C20.1466 55.8996 19.3633 56.3013 18.4102 55.9178C16.9659 55.3372 16.6263 53.7157 17.7182 52.5981C19.3104 50.9693 20.9354 49.3734 22.5403 47.7574C22.7119 47.5839 22.8708 47.3885 22.9986 47.1822C23.4222 46.4974 23.3072 45.7908 22.7156 45.3343C22.208 44.9435 21.3718 45.0147 20.8806 45.5004C20.2014 46.1724 19.5021 46.828 18.8575 47.5346C18.4339 48.0002 18.1546 48.0605 17.6762 47.5602C16.148 45.9642 14.5321 44.4541 13.0148 42.8509C12.0763 41.8594 11.2145 40.7893 10.3874 39.7029C8.4848 37.2049 7.15375 34.4111 6.32298 31.3891C6.11483 30.6349 5.72775 30.067 5.17816 29.5448C4.32001 28.7304 3.49837 27.8758 2.65847 27.0395C1.63051 26.0133 0.849037 26.0608 0.00366211 27.1984V28.2922C1.06084 29.3731 2.12532 30.445 3.16789 31.5388C3.39064 31.7725 3.58236 32.0647 3.69739 32.366C4.13194 33.4963 4.47703 34.6631 4.9481 35.7751C6.22803 38.7899 7.97904 41.5197 10.2285 43.8954C12.1384 45.9113 14.1468 47.8341 16.1096 49.8007C16.1845 49.8756 16.2374 49.9723 16.3196 50.0856C14.7968 51.3163 14.0793 52.9086 14.3805 54.7985C14.68 56.6829 15.8723 57.9593 17.6525 58.6386C16.4456 61.2607 17.2818 63.2438 18.6932 64.4873C20.4442 66.0339 22.4563 66.2713 24.8665 64.7356C25.4434 66.2713 26.5463 67.2884 28.0909 67.754C29.6721 68.2306 31.1 67.754 32.4219 66.8246C32.4657 66.9013 32.5077 66.9524 32.5278 67.0108C33.0828 68.7327 35.1862 70.0219 36.7948 69.9945C38.4673 69.9671 39.7199 69.255 40.8245 68.0608C41.9912 66.7972 42.0296 66.8337 43.2219 68.0261C43.2858 68.09 43.3479 68.1575 43.4154 68.2178C44.615 69.2824 46.0666 69.7206 47.582 69.3846C49.6927 68.9153 51.0877 67.5769 51.4492 65.3071C52.8971 65.4423 54.2154 65.1793 55.3274 64.1988C56.4247 63.2328 57.0747 62.066 57.009 60.5778C59.861 60.3203 61.8585 58.4614 61.9078 55.5453C61.9133 55.1746 61.9863 55.0286 62.3989 54.9226C65.607 54.0918 67.1425 50.6096 65.4481 47.8834C64.8839 46.9777 64.0641 46.2308 63.3411 45.3872C63.3685 45.3343 63.4141 45.2101 63.4871 45.106C64.7214 43.3476 65.512 41.4193 65.7476 39.2738C65.795 38.8337 65.7567 38.306 65.9886 37.9828C66.4578 37.3309 67.0805 36.7904 67.6446 36.2079C68.3038 35.5268 69.0122 34.8895 69.6166 34.1628C70.2173 33.4433 70.095 32.8608 69.3628 32.2546V32.2619ZM48.0093 66.1873C47.2315 66.9323 46.0264 66.8702 45.2157 66.054C44.8505 65.687 44.4689 65.3364 44.1056 64.9858C45.1153 63.9997 46.0666 63.0685 47.027 62.1299C47.3721 62.4768 47.7409 62.8439 48.1061 63.2164C48.935 64.0636 48.893 65.3418 48.0093 66.1873ZM53.5088 62.1628C52.5484 62.7854 51.6373 62.7526 50.9015 62.0404C50.246 61.4068 49.6106 60.7567 48.9715 60.1195C49.9283 59.1517 50.8558 58.2149 51.9258 57.1321C52.6689 58.078 53.4978 58.9618 54.1113 59.9752C54.5459 60.6928 54.1314 61.7592 53.507 62.1646L53.5088 62.1628ZM58.4478 57.2636C57.8069 57.7858 56.2586 57.9483 55.6341 57.1139C55.3639 56.7523 54.9768 56.4821 54.6828 56.1369C54.3943 55.7955 54.1552 55.4102 53.8941 55.045C54.6573 54.2379 55.5866 53.2518 56.5708 52.211C57.3559 53.0674 58.0023 53.8179 58.7016 54.5173C59.3717 55.1892 59.0795 56.7486 58.4478 57.2654V57.2636ZM62.0392 52.138C61.2304 52.4247 60.4526 52.2987 59.8062 51.6724C59.4009 51.2798 58.9973 50.8853 58.5646 50.4635C59.5816 49.4519 60.5165 48.5243 61.4696 47.5784C61.8804 47.9966 62.3095 48.433 62.7385 48.8694C63.7793 49.9249 63.4287 51.6486 62.0411 52.138H62.0392Z" fill="white"/>
<path id="Vector_2" d="M16.2173 18.1761C16.3798 18.3386 16.6099 18.4354 16.8089 18.5614C16.9002 18.5595 16.9915 18.5559 17.0846 18.5541C18.6092 18.5632 20.1356 18.5778 21.6602 18.5778C23.8914 18.5778 26.1172 18.5668 28.3301 18.9868C30.9046 19.4762 33.3987 20.2632 35.5405 21.735C38.2646 23.6085 40.8117 25.7412 43.4209 27.7791C44.7939 28.8509 46.1433 29.9575 47.498 31.0531C48.0841 31.5278 48.6575 32.0172 49.3385 32.5851C48.7268 32.8974 48.2229 33.2005 47.6861 33.4196C45.7416 34.2212 43.7477 34.4969 41.7174 33.7647C38.7777 32.7038 36.2069 30.9125 33.4316 29.5247C32.7524 29.1851 32.1516 28.6848 31.2551 28.9021C29.5845 29.3056 27.8992 29.7804 26.1993 29.8899C23.1775 30.0816 20.1429 30.025 17.2069 29.0609C16.7815 28.9203 16.2703 28.829 15.8522 28.9313C15.2642 29.0755 14.8808 29.5503 14.9045 30.2095C14.9301 30.896 15.2916 31.3599 15.9544 31.5717C18.2714 32.3094 20.6597 32.649 23.0753 32.786C23.9919 32.8389 24.9267 32.7641 25.8415 32.6545C27.3807 32.4701 28.9454 32.3386 30.4372 31.9478C31.7043 31.6155 32.5625 32.1761 33.563 32.7714C33.3732 32.9759 33.2289 33.142 33.0737 33.2973C31.9307 34.4422 30.7859 35.5834 29.6447 36.7283C29.2065 37.1666 29.097 37.9499 29.4147 38.463C29.7506 39.0035 30.2893 39.2336 30.8626 39.051C31.2862 38.9159 31.6824 38.5963 32.0111 38.2749C33.4097 36.9091 34.7772 35.5122 36.1101 34.1737C37.4302 34.8329 38.6536 35.5286 39.939 36.071C43.0192 37.3692 46.1159 37.2305 49.1048 35.8025C50.2113 35.273 51.1808 34.4531 52.1996 33.7464C53.0669 33.1457 53.1655 32.2509 52.3822 31.5516C51.3324 30.6112 50.2295 29.7292 49.1358 28.8381C47.7847 27.7352 46.4153 26.6542 45.0623 25.5513C43.8317 24.547 42.6157 23.5263 41.3796 22.5019C44.5913 20.5371 48.0184 19.5091 51.7085 19.4214C52.5173 19.4032 53.1126 19.142 53.6676 18.5833C58.2633 13.9671 62.8736 9.36559 67.4803 4.7604C68.1559 4.08478 68.8497 3.42376 69.5034 2.72623C69.9379 2.26242 70.1534 1.70001 69.8284 1.07917C69.549 0.545976 69.0688 0.283031 68.4864 0.419982C68.0774 0.51676 67.6154 0.679275 67.3288 0.964132C62.2054 6.04956 57.1039 11.1606 51.9915 16.2569C51.8144 16.4341 51.5752 16.6057 51.3397 16.6532C50.8595 16.75 50.3646 16.7847 49.8735 16.8011C48.1024 16.8632 46.4226 17.3544 44.7519 17.8857C42.8804 18.481 41.1313 19.3265 39.4916 20.4093C39.309 20.5298 38.964 20.6065 38.796 20.5152C37.1892 19.6405 35.6518 18.6271 34.0031 17.8456C31.3282 16.5765 28.4415 16.0159 25.5019 15.868C23.1392 15.7493 20.7674 15.8333 18.4011 15.7804C18.0414 15.7731 17.5995 15.5996 17.3475 15.3512C12.6916 10.7388 8.05937 6.09156 3.41437 1.46081C2.89765 0.945872 2.32433 0.485718 1.77657 0H0V1.91366C0.142417 2.07252 0.275706 2.23869 0.427252 2.39024C5.68939 7.65462 10.9497 12.919 16.2192 18.1779L16.2173 18.1761Z" fill="white"/>
<path id="Vector_3" d="M24.8738 42.0344C24.8738 42.836 25.4489 43.4514 26.2103 43.466C26.9224 43.4788 27.6126 42.7794 27.6089 42.049C27.6053 41.2492 27.0721 40.7379 26.2377 40.7325C25.4215 40.727 24.8756 41.2511 24.8756 42.0362L24.8738 42.0344Z" fill="white"/>
</g>
<defs>
<clipPath id="clip0_573_2637">
<rect width="70" height="70" fill="white"/>
</clipPath>
</defs>
</svg>
