<svg width="86" height="90" viewBox="0 0 86 90" fill="none" xmlns="http://www.w3.org/2000/svg">
<g id="Group 129">
<path id="Vector" d="M43.0178 17.3999C43.3348 17.7193 43.4334 17.9987 43.3559 18.4707C42.9943 20.7179 42.7289 22.9815 42.3603 25.2287C42.2194 26.0881 42.3086 26.8137 43.0318 27.3374C43.7645 27.868 44.5041 27.6802 45.2579 27.2998C47.2374 26.2995 49.2451 25.3532 51.2176 24.3364C51.7177 24.0781 52.1075 24.0758 52.5983 24.327C54.6247 25.3626 56.6723 26.3629 58.7106 27.3749C59.4408 27.7366 60.1711 27.8281 60.8544 27.2927C61.533 26.7621 61.6082 26.0412 61.4814 25.2334C61.1268 22.9839 60.8239 20.7273 60.4717 18.4777C60.3942 17.9846 60.5398 17.6653 60.8803 17.3248C62.4747 15.7327 64.0385 14.1101 65.6259 12.511C66.2247 11.9076 66.5816 11.2454 66.2787 10.3859C65.9899 9.56409 65.3159 9.27761 64.5176 9.14846C62.3291 8.79389 60.1429 8.41348 57.9521 8.06595C57.3533 7.97203 56.9964 7.69494 56.7193 7.13373C55.8106 5.30216 54.822 3.51051 53.8874 1.69303C53.554 1.04259 53.1994 0.425018 52.5842 0H51.3537C50.7362 0.328743 50.3534 0.850037 50.0388 1.46995C49.0596 3.39545 48.0193 5.29042 47.0496 7.22061C46.7983 7.72312 46.4766 7.96263 45.9436 8.04952C43.7527 8.40409 41.5713 8.79623 39.3781 9.13907C38.5398 9.27056 37.8213 9.55 37.5348 10.3977C37.2507 11.236 37.5935 11.9123 38.2064 12.5204C39.8219 14.1313 41.3999 15.782 43.0107 17.3999H43.0178ZM47.8996 11.3064C48.7027 11.182 49.2193 10.7593 49.5762 10.0572C50.1867 8.85964 50.8113 7.66911 51.4453 6.48329C51.5768 6.23908 51.6285 5.92208 51.9924 5.76005C52.6992 7.10321 53.46 8.41348 54.0894 9.78481C54.5801 10.8556 55.3808 11.2736 56.4751 11.4215C57.9192 11.6164 59.3492 11.8958 60.9624 12.1682C59.8776 13.2789 58.9477 14.3661 57.8793 15.2936C56.8085 16.2211 56.5949 17.2731 56.8602 18.5904C57.1302 19.9289 57.2805 21.2932 57.5059 22.7913C56.0571 22.0751 54.7022 21.4646 53.406 20.7484C52.3846 20.1848 51.4712 20.159 50.4427 20.7414C49.177 21.4552 47.8432 22.0469 46.4179 22.7537C46.3968 21.4669 46.7396 20.3469 46.8312 19.2033C46.864 18.7971 46.9016 18.3815 47.0143 17.9917C47.282 17.0594 46.965 16.3479 46.3122 15.6975C45.1804 14.5657 44.0744 13.4057 42.8816 12.1799C44.6356 11.8723 46.2629 11.5647 47.8972 11.3088L47.8996 11.3064Z" fill="#213445"/>
<path id="Vector_2" d="M85.3717 63.5345C84.9349 60.9609 83.364 59.235 80.835 58.4624C78.9072 57.873 77.085 58.2323 75.3286 59.1363C70.7543 61.4869 66.1731 63.8209 61.6106 66.1926C61.0588 66.4791 60.7136 66.4556 60.2346 66.04C59.0487 65.0091 57.6422 64.4878 56.0525 64.4902C53.0069 64.4925 49.959 64.4315 46.9157 64.5089C45.6759 64.5418 44.7108 64.2342 43.8937 63.302C43.4921 62.8441 42.9802 62.4801 42.5012 62.0974C39.1715 59.4416 35.4849 57.6805 31.129 57.6664C28.2549 57.657 25.5005 58.3192 22.8517 59.3735C21.1329 60.0592 19.407 60.4372 17.559 60.3151C17.0729 60.2822 16.7982 60.1883 16.5633 59.7069C15.6687 57.8871 14.1541 56.9737 12.1276 56.9596C9.6973 56.9432 7.26694 56.9432 4.83659 56.9596C2.61992 56.9737 0.793046 58.4084 0.187219 60.5429C-0.0922134 61.5244 0.0463285 62.5224 0.0463285 63.511C0.0463285 64.5207 0.790698 65.2064 1.77693 65.211C2.76551 65.2157 3.49109 64.5324 3.5404 63.5321C3.56153 63.1235 3.5451 62.7126 3.5451 62.3017C3.55214 60.9585 3.99125 60.5077 5.3297 60.503C7.43836 60.4959 9.54701 60.4983 11.6557 60.503C13.128 60.5053 13.5272 60.9069 13.5272 62.3932C13.5319 65.4106 13.5272 68.4257 13.5272 71.4431C13.5272 74.5474 13.5342 77.6516 13.5225 80.7559C13.5178 81.9136 13.0857 82.4302 12.0877 82.4372C9.71608 82.4536 7.34443 82.4536 4.97043 82.4372C4.06639 82.4302 3.58502 81.9323 3.54745 81.0119C3.52396 80.4554 3.55919 79.8988 3.5357 79.3423C3.49344 78.3397 2.76316 77.6469 1.78162 77.6469C0.797742 77.6469 0.0745065 78.3397 0.0322395 79.3423C0.011106 79.8401 0.0651138 80.3403 0.0181505 80.8358C-0.219014 83.4046 1.88964 86.0792 5.0761 85.9994C7.38905 85.9407 9.70199 85.9829 12.0173 85.99C14.1635 85.997 15.7039 85.039 16.6502 83.1182C16.7653 82.8834 16.8169 82.6063 17.1692 82.6204C18.8011 82.6908 20.4613 82.3902 22.0674 82.82C29.9033 84.9169 37.7344 87.0373 45.5609 89.1624C47.7446 89.7564 49.9331 90.2331 52.2156 89.8785C54.8572 89.47 57.1326 88.2348 59.2741 86.725C63.2425 83.9259 67.1945 81.1011 71.1512 78.2833C75.0116 75.5336 78.9001 72.8215 82.7135 70.006C84.8598 68.4233 85.8131 66.1738 85.3646 63.5298L85.3717 63.5345ZM81.2436 66.5096C80.9548 66.9205 80.5603 67.2258 80.1517 67.517C72.4967 72.96 64.851 78.4171 57.189 83.8508C55.4889 85.0554 53.6973 86.0839 51.5745 86.3892C49.7453 86.6522 48.0358 86.1379 46.3193 85.6753C38.46 83.5596 30.6054 81.4228 22.7437 79.3094C21.1352 78.8774 19.4798 79.1404 17.8478 79.1145C17.2443 79.1052 17.0588 78.9666 17.0611 78.3397C17.0893 73.7701 17.0846 69.2029 17.0635 64.6334C17.0611 64.0745 17.1926 63.8421 17.7867 63.8796C20.0198 64.0252 22.1191 63.511 24.1831 62.668C26.2448 61.825 28.4075 61.3201 30.6547 61.2497C34.1981 61.1393 37.2108 62.4848 39.9323 64.6193C40.7377 65.251 41.529 65.9085 42.2617 66.6223C43.2902 67.625 44.4877 68.0406 45.9131 68.0265C49.2522 67.9936 52.5913 68.003 55.928 68.0218C57.5154 68.0312 58.875 69.1935 59.091 70.6588C59.3305 72.279 58.4499 73.7396 56.9424 74.2538C56.4869 74.4088 56.0196 74.3924 55.5523 74.3924C53.0327 74.3971 50.5155 74.3947 47.9959 74.3947C45.3026 74.3947 42.6069 74.3736 39.9135 74.4041C38.3308 74.4229 37.4291 75.7074 38.0585 76.9777C38.406 77.6798 39.0283 77.9921 39.7773 77.9945C45.2251 78.0039 50.6752 78.0931 56.1182 77.9639C60.6126 77.8583 63.1909 73.8312 62.6132 70.3418C62.5357 69.8722 62.6649 69.6162 63.1134 69.3884C67.7769 67.0191 72.4262 64.624 77.0779 62.2359C77.712 61.9095 78.3882 61.7076 79.0997 61.7499C80.2315 61.8156 81.1121 62.3111 81.617 63.3724C82.1523 64.4972 81.9175 65.5351 81.2366 66.5072L81.2436 66.5096Z" fill="#213445"/>
<path id="Vector_3" d="M62.6532 32.3884C60.4036 32.7289 58.1682 33.1727 55.9186 33.5273C55.125 33.6541 54.5003 33.9617 54.2444 34.7319C53.9673 35.5679 54.289 36.2441 54.9066 36.857C56.5245 38.4678 58.1001 40.1209 59.7062 41.7435C60.0138 42.0558 60.143 42.3329 60.0632 42.8143C59.6687 45.2353 59.3423 47.668 58.9689 50.2392C58.8773 51.5072 60.2839 52.4347 61.6364 51.7913C63.7451 50.7887 65.8373 49.7437 67.9154 48.6777C68.4414 48.4076 68.8594 48.4311 69.3689 48.6941C71.3437 49.7062 73.3444 50.6666 75.3215 51.6739C76.0823 52.0614 76.8126 52.2117 77.5382 51.6528C78.2591 51.101 78.3084 50.3519 78.1746 49.516C77.827 47.3533 77.5312 45.1836 77.186 43.0209C77.0897 42.4198 77.2447 41.9971 77.6885 41.558C79.3134 39.9542 80.9055 38.3176 82.4788 36.6621C83.6294 35.4504 83.1362 33.8795 81.4972 33.5696C79.1749 33.1281 76.8432 32.7289 74.5067 32.3697C73.9972 32.2922 73.7389 32.0761 73.5205 31.6558C72.4873 29.6575 71.4212 27.678 70.3998 25.6727C70.0123 24.9142 69.5098 24.3319 68.6199 24.3272C67.7276 24.3225 67.2157 24.8954 66.8282 25.6539C65.8185 27.631 64.7618 29.5847 63.7521 31.5595C63.5079 32.0386 63.2332 32.2992 62.6532 32.3861V32.3884ZM66.3375 34.2905C67.0396 32.8839 67.7957 31.5032 68.6105 29.9581C69.4042 31.4609 70.165 32.8158 70.8459 34.2106C71.285 35.1123 71.9167 35.5796 72.9264 35.7087C74.4527 35.906 75.9626 36.2253 77.658 36.5259C76.5473 37.6577 75.6057 38.7285 74.5443 39.6678C73.5135 40.5788 73.2998 41.6144 73.5581 42.8988C73.8305 44.2655 73.9878 45.6556 74.2132 47.142C72.7268 46.4046 71.3273 45.7472 69.963 45.0216C69.0543 44.5402 68.2183 44.5191 67.3025 45.0098C65.9664 45.726 64.5928 46.3718 63.1064 47.1091C63.097 45.827 63.4328 44.6834 63.5455 43.5187C63.5948 42.9975 63.7146 42.4809 63.7944 41.9619C63.9141 41.1941 63.5807 40.607 63.0571 40.081C61.9276 38.9469 60.8146 37.7986 59.5653 36.5236C61.2936 36.2206 62.8316 35.9107 64.3814 35.6947C65.3184 35.5632 65.9218 35.1217 66.3375 34.2881V34.2905Z" fill="#213445"/>
<path id="Vector_4" d="M26.3082 41.7647C26.5501 42.0136 26.7591 42.2179 26.6887 42.6617C26.32 44.9676 26.0406 47.29 25.6578 49.5935C25.5122 50.4623 25.632 51.1644 26.3482 51.6951C27.0526 52.2188 27.7665 52.045 28.4897 51.681C30.4997 50.6713 32.5262 49.6968 34.5292 48.6777C35.0152 48.4288 35.398 48.41 35.8982 48.6683C37.8965 49.6992 39.9206 50.6784 41.9353 51.6763C42.3016 51.8572 42.6609 52.0638 43.0577 52.0215C44.2717 52.0027 44.9973 50.9813 44.7977 49.6804C44.4478 47.4003 44.1402 45.1132 43.7716 42.8355C43.6894 42.3306 43.8444 42.0254 44.1778 41.6872C45.7863 40.067 47.3666 38.4186 48.9728 36.796C49.5269 36.2348 49.8439 35.6196 49.6044 34.8259C49.3649 34.0393 48.7943 33.6753 47.9983 33.5414C45.7229 33.1657 43.4593 32.7243 41.1815 32.3815C40.6015 32.2946 40.3245 32.048 40.0779 31.5666C39.0658 29.5895 38.0045 27.6405 36.9948 25.6633C36.6073 24.9025 36.0978 24.3296 35.2055 24.3296C34.3131 24.3296 33.8106 24.9119 33.4232 25.6704C32.3994 27.6734 31.331 29.6529 30.3001 31.6535C30.0818 32.0809 29.8258 32.2969 29.3209 32.3744C27.0714 32.7243 24.8359 33.1587 22.5864 33.5133C21.7669 33.6424 21.1 33.9312 20.837 34.7461C20.5505 35.629 20.945 36.3052 21.5767 36.9322C23.1758 38.5219 24.735 40.1492 26.3106 41.7624L26.3082 41.7647ZM26.3294 36.5025C27.5199 36.2888 28.7081 36.0751 29.8986 35.8638C30.272 35.798 30.6453 35.7159 31.021 35.6853C31.9274 35.6102 32.5121 35.1312 32.9113 34.3304C33.5383 33.0765 34.2004 31.8437 34.8603 30.6062C34.9518 30.4348 34.9847 30.2071 35.29 30.1108C36.0132 31.4821 36.767 32.8511 37.4597 34.2506C37.8871 35.1147 38.4999 35.5726 39.4744 35.7041C41.0242 35.9108 42.5599 36.2301 44.1003 36.5025C44.1614 36.5988 44.2224 36.6974 44.2811 36.7937C43.1516 37.848 42.0292 38.9094 40.888 39.9519C40.1836 40.5977 39.9112 41.3303 40.0896 42.3025C40.3714 43.8499 40.5475 45.4161 40.7917 47.135C39.3171 46.4047 37.9176 45.7472 36.5533 45.0216C35.6469 44.5403 34.8133 44.5191 33.8975 45.0099C32.5403 45.7355 31.1455 46.3883 29.6262 47.142C29.8704 45.4067 30.0512 43.8147 30.3354 42.2414C30.495 41.3655 30.2813 40.6846 29.6614 40.1022C28.4944 39.0033 27.3156 37.9137 26.1415 36.8195C26.2026 36.7138 26.2636 36.6082 26.3247 36.5025H26.3294Z" fill="#213445"/>
<path id="Vector_5" d="M1.73229 73.2696C2.67861 73.3072 3.52864 72.483 3.54743 71.5155C3.56621 70.5105 2.80306 69.7239 1.80274 69.7168C0.835295 69.7098 0.0697926 70.4424 0.0369182 71.4028C0.00404388 72.3961 0.762502 73.2321 1.72995 73.2696H1.73229Z" fill="#213445"/>
</g>
</svg>
