<svg width="77" height="83" viewBox="0 0 77 83" fill="none" xmlns="http://www.w3.org/2000/svg">
<g id="Topper" clip-path="url(#clip0_573_2646)">
<path id="Vector" d="M76.3477 61.2507C75.4741 59.0197 74.632 56.7788 73.7438 54.5527C72.6536 51.8221 71.6923 49.0246 70.3782 46.4078C69.2052 44.0679 67.1513 42.7447 64.4452 42.7669C63.6202 42.7743 62.7977 42.8485 61.7829 42.9005C64.2895 40.3084 66.6135 37.7979 69.0568 35.4086C70.9136 33.5931 71.8943 31.5426 71.7532 28.8664C71.6242 26.3955 69.8745 23.5931 67.4969 22.9649C65.1947 22.3564 62.8147 22.0423 60.4615 21.6342C59.0622 21.3918 57.6483 21.2211 56.2417 21.0059C54.4579 20.7314 52.679 20.3925 50.8879 20.1798C50.0483 20.0809 49.4886 19.8558 49.0992 19.0025C46.7776 13.9369 44.4171 8.89119 42.0273 3.86029C40.8033 1.28548 38.6398 0.0487738 35.8948 -0.000694226C32.9599 -0.0526357 30.9157 1.50561 29.6746 4.13978C27.3384 9.09154 25.0338 14.0606 22.7414 19.0346C22.4567 19.653 22.0795 19.925 21.4127 20.0166C19.6581 20.2614 17.9181 20.6102 16.1684 20.8822C13.9636 21.2236 11.754 21.513 9.54916 21.8543C7.97465 22.0992 6.3539 22.2204 4.8451 22.7002C0.00963303 24.2337 -1.67438 30.5533 1.95647 34.4959C5.39508 38.2307 8.99187 41.8122 12.5205 45.4605C12.8393 45.7894 13.2287 46.0714 13.4696 46.4523C13.713 46.8357 13.9661 47.3254 13.9393 47.7484C13.8784 48.6413 13.6205 49.5218 13.4745 50.4122C13.1435 52.428 12.8369 54.4488 12.5108 56.4671C12.2285 58.2183 11.8343 59.9595 11.6712 61.7206C11.5106 63.4421 10.9022 65.077 11.1942 66.9049C11.9073 71.3768 16.6284 74.5378 21.0136 72.1609C24.8538 70.0782 28.6452 67.8992 32.4635 65.7745C32.8139 65.5791 33.213 65.4678 33.7095 65.27C33.1181 67.1349 32.6484 68.75 32.8893 70.5705C33.3882 74.3597 35.3472 77.0359 38.6569 78.6288C41.1075 79.8086 43.6724 80.7534 46.2106 81.7354C47.4566 82.2177 48.7366 82.7025 50.0434 82.9152C52.3115 83.2837 54.3265 82.4279 56.3001 81.3174C61.559 78.3567 66.8642 75.4826 72.1571 72.5863C76.3039 70.3182 78.0634 65.6261 76.3477 61.2581V61.2507ZM33.0694 62.1559C32.9137 62.245 32.7555 62.3291 32.5973 62.4132C30.4509 63.5682 28.2802 64.7975 26.18 65.9848C25.3867 66.4349 24.5934 66.8826 23.7976 67.3303C23.3717 67.5702 22.9483 67.8126 22.5248 68.055C21.8045 68.4681 21.0599 68.896 20.3006 69.309C19.3977 69.7988 18.5922 69.9694 17.9084 69.9694C16.7938 69.9694 16.0005 69.5143 15.616 69.2373C14.3579 68.3221 13.7738 66.7342 14.0537 64.9929C14.2459 63.7933 14.4333 62.564 14.6134 61.3768C14.7545 60.4468 14.8957 59.5193 15.0417 58.5893C15.1999 57.5826 15.3653 56.5759 15.5284 55.5668C15.6501 54.8173 15.7742 54.0679 15.8934 53.3185C15.9883 52.7298 16.0784 52.1411 16.1684 51.5525C16.3266 50.5186 16.4896 49.4501 16.6746 48.3865C17.0104 46.4647 16.4312 45.5371 15.8886 44.946C14.4163 43.3358 12.8588 41.7256 11.3524 40.1674C10.6029 39.3932 9.85091 38.6166 9.10625 37.8374C8.77528 37.4912 8.44432 37.1449 8.11093 36.7986C6.79924 35.4308 5.44375 34.0185 4.1418 32.5592C3.16838 31.4709 2.73764 29.7618 3.06861 28.3099C3.52368 26.3089 5.53623 25.4655 6.65323 25.28C8.09876 25.0425 9.56132 24.8273 10.9752 24.6196C12.4061 24.4093 13.8882 24.1917 15.3264 23.9517L16.2244 23.8033C18.6141 23.4125 20.87 23.0415 23.0992 22.5023C23.6686 22.3638 24.5155 21.9879 25.2723 20.3134C26.2555 18.1392 27.2873 15.9577 28.2826 13.8479C28.7426 12.8734 29.2049 11.8964 29.6625 10.9194C29.9058 10.4 30.1467 9.87808 30.3877 9.35619C30.9741 8.08733 31.5777 6.77396 32.225 5.48284C32.7604 4.41433 33.965 3.09848 35.6076 2.90803C37.4474 2.69037 38.9927 4.09526 39.6546 5.49026L40.1803 6.59587C42.2999 11.0604 44.4901 15.6757 46.561 20.2713C47.3179 21.9532 48.5079 22.7571 50.6664 23.044C52.3432 23.2666 54.0126 23.5486 55.6309 23.8207C56.6408 23.9913 57.6848 24.1669 58.702 24.3228C59.5976 24.4613 60.5199 24.5899 61.413 24.7136C62.6322 24.8842 63.8952 25.0598 65.1485 25.2651C66.4797 25.4853 68.2148 26.3658 68.7185 28.1194C69.1541 29.6406 68.7234 31.4783 67.6721 32.5913C64.6642 35.7721 61.5736 38.9604 58.5828 42.0447L57.3465 43.321C57.0375 43.64 56.7114 43.9789 56.4218 44.3153L52.0438 45.7771C51.9295 45.8463 51.8029 45.9007 51.6958 45.9205C51.5522 45.9477 51.2554 45.6311 51.1678 45.411C49.8999 42.2376 48.7269 39.0222 47.3884 35.8785C46.2714 33.2592 44.2978 31.7677 41.436 31.231C37.3038 30.4543 33.6949 33.2468 32.6265 37.0311C32.0936 38.9233 32.4562 40.7239 33.157 42.4899C35.3205 47.9363 37.4863 53.3803 39.6473 58.8292C39.6595 58.8589 39.6449 58.9034 39.623 58.9826L40.044 60.103C39.8055 60.0783 36.6078 60.103 33.0719 62.151L33.0694 62.1559ZM70.5948 70.1525C64.5401 73.4322 59.2423 76.3731 54.3995 79.1408C53.2265 79.8111 52.112 80.0485 51.0996 80.0485C49.5397 80.0485 48.2207 79.4895 47.2814 79.0913C46.0086 78.5521 44.7334 78.0154 43.4583 77.4811C42.3218 77.0038 41.1829 76.5264 40.0464 76.0466C37.2746 74.8742 35.7342 72.5838 35.7001 69.591C35.5492 66.4547 37.793 63.4718 40.9614 62.6259C42.3948 62.2425 43.8063 62.9227 44.6312 63.8675C42.5335 58.4335 40.3628 52.9227 38.2651 47.5901L36.8074 43.8874C36.547 43.227 36.2696 42.5715 35.9727 41.879L35.7025 41.2433C34.9433 39.4501 35.1964 38.0304 35.5419 37.1548C35.885 36.2866 36.6565 35.0944 38.3892 34.345C39.6059 33.8182 40.9249 33.8008 42.1028 34.293C43.356 34.8174 44.3587 35.8834 44.9257 37.2958C46.4199 41.0182 48.1112 45.2354 49.749 49.3561C49.7831 49.4451 49.8171 49.5094 49.8439 49.5564C49.8512 49.5564 49.8585 49.5515 49.8658 49.549C52.5962 48.7501 55.3243 47.9487 58.0547 47.1473L62.6809 45.7869C65.2264 45.04 67.2876 46.0937 68.3413 48.6759C69.0787 50.4839 69.8063 52.3242 70.5096 54.1025C70.8211 54.8866 71.1302 55.6707 71.4417 56.4547C71.6582 56.9964 71.87 57.5406 72.0817 58.0822C72.583 59.3659 73.0575 60.5804 73.5759 61.7874C74.98 65.0597 73.7827 68.4211 70.5899 70.15L70.5948 70.1525Z" fill="white"/>
</g>
<defs>
<clipPath id="clip0_573_2646">
<rect width="77" height="83" fill="white"/>
</clipPath>
</defs>
</svg>
