<svg width="62" height="91" viewBox="0 0 62 91" fill="none" xmlns="http://www.w3.org/2000/svg">
<g id="Group 127">
<path id="Vector" d="M61.9054 22.4717C61.9054 21.6336 61.8085 20.7927 61.6973 19.9632C61.1414 15.7815 57.6382 12.9738 53.6047 12.874C52.0598 12.8341 50.5034 13.3472 48.9641 13.6066C48.4624 8.72657 42.6959 4.39096 36.1768 7.45524C35.6267 3.51301 32.8987 0.508588 28.1954 0.0411071C26.4766 -0.129923 24.7834 0.22924 23.3296 1.18416C21.0606 2.67496 19.6183 4.77863 19.205 7.39538C18.2244 7.12174 17.3379 6.86519 16.4428 6.63145C11.2977 5.28317 6.24376 10.0007 6.41764 14.8352C6.51741 17.6059 6.45185 20.3822 6.41194 23.1558C6.40624 23.4836 6.14685 24.0394 5.9074 24.0964C3.03126 24.792 -0.0729333 28.4377 0.00117952 32.1092C0.11805 37.833 0.0239835 43.5596 0.043937 49.2834C0.0467874 50.2269 0.0724419 51.1904 0.266276 52.1082C1.22974 56.6291 3.35051 60.5828 6.60578 63.8352C8.22201 65.4514 10.1375 66.7712 11.9619 68.1679C12.5605 68.624 12.8655 69.0402 12.8598 69.8554C12.8113 75.7218 12.8626 81.5909 12.8085 87.4572C12.7971 88.6288 13.1619 89.4611 14.114 90.0797H22.0099C23.3154 89.1105 23.7515 88.2696 23.4237 87.3518C23.0531 86.3142 22.1011 85.8125 20.4991 85.8125C19.376 85.8125 18.2558 85.8125 17.1013 85.8125C17.1013 79.7751 17.0813 73.8746 17.1184 67.9741C17.127 66.8168 16.6709 66.0956 15.716 65.497C12.6859 63.5872 9.85534 61.4408 7.76308 58.4535C5.66511 55.4604 4.29117 52.2337 4.29688 48.5109C4.30543 43.1406 4.33393 37.7703 4.27977 32.3999C4.25697 30.1509 5.83044 28.0102 8.54696 27.9959C16.2633 27.9503 23.9767 27.9788 31.7015 27.9788C30.7837 32.9073 26.3227 36.3764 21.5281 36.5046C19.2534 36.5645 16.9759 36.5046 14.7012 36.5303C13.7007 36.5417 12.9367 37.3142 12.8427 38.3033C12.7286 39.5091 13.35 40.5751 14.3306 40.7576C15.0176 40.883 15.716 40.9571 16.4143 40.9942C20.1114 41.1795 23.3467 42.5904 26.069 44.9906C29.5665 48.0719 31.6673 51.9401 31.8327 56.7146C31.8526 57.3047 31.9552 57.8948 32.0721 58.4763C32.2631 59.4283 33.2294 60.0725 34.2841 59.9927C35.3274 59.9129 36.174 58.8867 36.3307 57.8064C36.5417 56.3469 36.6528 54.7906 37.2628 53.4879C39.1442 49.463 42.4479 47.3992 46.8947 47.194C48.109 47.137 49.1523 46.0937 49.1095 44.9792C49.0696 43.9045 48.0178 42.9297 46.8491 42.9268C44.0556 42.9211 41.4787 43.6622 39.0872 45.1274C37.2828 46.2334 35.7863 47.6472 34.5406 49.4573C32.7847 45.4409 30.1338 42.3453 26.4566 39.8825C30.3732 38.3575 33.0527 35.7664 34.8912 32.2374C37.89 35.1022 41.5015 34.3212 44.9848 34.3269C46.2305 38.8164 51.2132 42.7871 57.5897 39.7457C57.6097 39.891 57.6467 40.0193 57.6439 40.1476C57.5755 43.1548 57.4501 46.1621 57.4529 49.1694C57.4529 51.2759 56.9256 53.2256 56.0476 55.0956C53.9439 59.5708 50.5119 62.8176 46.3246 65.2975C45.2499 65.9332 44.8167 66.68 44.8252 67.9085C44.868 73.4927 44.8423 79.0768 44.8423 84.6609V85.8239C43.2546 85.8239 41.8008 85.8039 40.3442 85.8296C39.2981 85.8495 38.5598 86.642 38.4344 87.6739C38.2976 88.8055 38.8848 89.501 39.72 90.0854H47.6158C48.6905 89.3471 49.2178 88.4293 49.1437 87.024C49.0154 84.5782 49.1095 82.1183 49.1095 79.664C49.1095 75.9726 49.1095 72.2812 49.1095 68.6782C52.2565 66.7797 54.9131 64.4594 57.1279 61.6688C60.52 57.3874 61.9738 52.4617 61.931 47.0116C61.8655 38.8335 61.9196 30.6554 61.9054 22.4745V22.4717ZM19.0254 23.6717H10.7048C10.7048 20.4934 10.4939 17.3265 10.7789 14.2081C10.9756 12.0559 12.6488 10.7504 14.7867 10.7219C17.0813 10.6934 19.0254 12.4294 19.0254 14.3363C19.0282 17.4291 19.0254 20.5248 19.0254 23.6717ZM32.0407 23.6774H23.5064C23.5064 22.9904 23.5064 22.3263 23.5064 21.665C23.5064 17.2638 23.5178 12.8598 23.5064 8.45862C23.5007 6.55734 24.9145 4.6304 27.2548 4.2969C29.0078 4.0489 31.274 5.50266 31.7699 7.1873C31.9239 7.71464 32.0265 8.27904 32.0293 8.82348C32.0493 13.752 32.0407 18.6776 32.0407 23.6746V23.6774ZM43.5453 30.034C41.6469 30.054 39.6915 30.5443 37.9812 29.2587C36.9493 28.4833 36.3393 27.4315 36.325 26.1488C36.2851 22.3149 36.2937 18.4781 36.3193 14.6442C36.3336 12.4322 38.708 10.3742 41.0911 10.7989C43.6023 11.2464 44.8053 13.2104 44.8366 15.5507C44.8651 17.7512 44.8423 19.9547 44.8423 22.1552C44.8423 24.2162 44.8024 26.2742 44.8594 28.3323C44.8879 29.3328 44.7482 30.0198 43.5425 30.0312L43.5453 30.034ZM57.4244 32.9273C57.3161 34.4979 56.0448 35.8604 54.457 36.3308C52.4218 36.9322 50.8369 36.06 50.0815 34.9483C49.5314 34.1416 49.1808 33.0441 49.1494 32.0664C49.0439 28.4833 49.1323 24.8946 49.101 21.3087C49.0839 19.4701 50.4321 17.4776 52.8094 17.1013C54.5197 16.8305 56.84 18.2586 57.3503 19.9547C57.5555 20.6445 57.6125 21.3942 57.6296 22.121C57.6695 23.6831 57.641 25.2452 57.641 26.8073C57.6752 26.8073 57.7094 26.8101 57.7437 26.813C57.6382 28.8511 57.5612 30.892 57.4216 32.9301L57.4244 32.9273Z" fill="#213445"/>
<path id="Vector_2" d="M32.112 86.2145C31.2939 85.5731 30.0939 85.6758 29.3699 86.4511C28.6743 87.1951 28.623 88.5804 29.2872 89.3415C29.5295 89.618 29.8402 89.8346 30.1195 90.0798H31.6132C32.0322 89.6807 32.5311 89.3358 32.8503 88.8683C33.4261 88.0331 33.0926 86.987 32.112 86.2145Z" fill="#213445"/>
</g>
</svg>
